<?xml version="1.0" encoding="UTF-8"?>
<svg width="24px" height="24px" viewBox="0 0 24 24" version="1.1" xmlns="http://www.w3.org/2000/svg" xmlns:xlink="http://www.w3.org/1999/xlink">
    <title>linkedin-icon</title>
    <g id="linkedin-icon" stroke="none" stroke-width="1" fill="none" fill-rule="evenodd">
        <rect id="ViewBox" x="2" y="2" width="20" height="20"></rect>
        <g id="Group" transform="translate(4.000000, 4.000000)" fill="#000000" fill-rule="nonzero">
            <circle id="Oval" cx="1.9262683" cy="1.9262683" r="1.9262683"></circle>
            <path d="M5.6713987,5.31220425 L5.6713987,15.9991196 L8.9895455,15.9991196 L8.9895455,10.7142071 C8.9895455,9.31968747 9.25189832,7.96918675 10.9809618,7.96918675 C12.6862551,7.96918675 12.7073842,9.56355233 12.7073842,10.802245 L12.7073842,16 L16.0272917,16 L16.0272917,10.1393199 C16.0272917,7.26048201 15.4075052,5.04809068 12.0426984,5.04809068 C10.4272037,5.04809068 9.34433807,5.93463189 8.90150765,6.77363266 L8.85660834,6.77363266 L8.85660834,5.31220425 L5.6713987,5.31220425 L5.6713987,5.31220425 Z M0.264113569,5.31220425 L3.58754264,5.31220425 L3.58754264,15.9991196 L0.264113569,15.9991196 L0.264113569,5.31220425 Z" id="Shape"></path>
        </g>
    </g>
</svg>