<?xml version="1.0" encoding="utf-8"?>
<!-- Generator: Adobe Illustrator 18.0.0, SVG Export Plug-In . SVG Version: 6.00 Build 0)  -->
<!DOCTYPE svg PUBLIC "-//W3C//DTD SVG 1.1//EN" "http://www.w3.org/Graphics/SVG/1.1/DTD/svg11.dtd">
<svg version="1.1" id="Layer_1" xmlns="http://www.w3.org/2000/svg" xmlns:xlink="http://www.w3.org/1999/xlink" x="0px" y="0px"
	 viewBox="0 0 818 66" enable-background="new 0 0 818 66" xml:space="preserve">
<g>
	<path fill="none" d="M111.3,13.2c-1.9-2.2-4.3-4.1-7.1-5.3c-2.8-1.2-6-1.9-9.6-1.9H82v52h12.5c3.6,0,6.8-0.5,9.6-1.7
		c2.8-1.2,5.2-2.9,7.1-5.1c1.9-2.2,3.4-4.9,4.5-8.2c1-3.2,1.6-6.8,1.6-10.9c0-4-0.5-7.6-1.6-10.8C114.7,18.2,113.2,15.5,111.3,13.2z
		"/>
	<path fill="none" d="M662.4,14.7c-0.6-1.9-1.3-4-1.9-6.2c-0.6,2.3-1.2,4.3-1.8,6.3c-0.6,1.9-1.2,3.7-1.8,5.1L649.4,42h22.1
		l-7.4-22.3C663.6,18.3,663,16.6,662.4,14.7z"/>
	<path fill="none" d="M595.2,13.3c-1.9-2.2-4.3-3.9-7.1-5.1c-2.8-1.2-6-1.8-9.6-1.8c-3.6,0-6.9,0.6-9.7,1.8
		c-2.8,1.2-5.2,2.9-7.2,5.1c-1.9,2.2-3.4,4.9-4.5,8.1c-1,3.2-1.6,6.8-1.6,10.8c0,4,0.5,7.7,1.6,10.9c1,3.2,2.5,5.9,4.5,8.1
		c1.9,2.2,4.3,3.9,7.2,5.1c2.8,1.2,6.1,1.7,9.7,1.7c3.6,0,6.8-0.6,9.6-1.7c2.8-1.2,5.2-2.9,7.1-5.1c1.9-2.2,3.4-4.9,4.5-8.1
		c1-3.2,1.6-6.8,1.6-10.9c0-4-0.5-7.6-1.6-10.8C598.7,18.2,597.2,15.5,595.2,13.3z"/>
	<path fill="none" d="M354,0v34.6c0,1.3,0,2.7,0.1,4.1c0.1,1.5,0.2,3.2,0.3,4.7L319.8,0H300v66h16V29.3c0-1.2,0.2-2.5,0.1-3.8
		c-0.1-1.4-0.1-2.6-0.2-4L351.1,66H370V0H354z"/>
	<path fill="none" d="M440.7,52.9c-0.4-0.4-0.8-0.7-1.3-0.9c-0.4-0.2-0.9-0.2-1.3-0.2c-0.6,0-1.1,0.1-1.6,0.4
		c-0.5,0.2-1,0.5-1.4,0.9c-1.1,1-2.2,1.8-3.3,2.4c-1.1,0.6-2.2,1.2-3.4,1.6c-1.2,0.4-2.5,0.7-3.9,0.9c-1.4,0.2-3,0.2-4.7,0.2
		c-3,0-5.7-0.6-8.3-1.7c-2.6-1.1-4.9-2.8-6.8-5c-1.9-2.2-3.5-4.9-4.6-8.1c-1.1-3.2-1.7-6.9-1.7-11c0-4,0.6-7.5,1.7-10.7
		c1.1-3.2,2.7-5.9,4.7-8.1c2-2.2,4.4-4,7.2-5.2c2.8-1.2,5.9-1.8,9.3-1.8c2,0,3.7,0.1,5.1,0.4c1.5,0.3,2.7,0.7,3.8,1.1
		c1.1,0.4,2,0.9,2.8,1.4c0.8,0.5,1.5,1,2.2,1.4c0.7,0.4,1.3,0.8,1.9,1.1c0.6,0.3,1.2,0.5,1.9,0.5c1,0,1.8-0.2,2.3-0.6
		c0.6-0.4,1-0.8,1.4-1.4l6.3-8.4c-0.7-0.7-1.5-1.9-2.3-1.9h-52.5c-1.2,0-2.4,1.7-3.4,2.8c-3.7,3.7-6.6,7.8-8.7,12.9
		c-2.1,5.1-3.1,10.6-3.1,16.6c0,5.9,0.9,11.4,2.7,16.5c1.8,5.1,4.4,9.5,7.8,13.2c1.3,1.4,2.7,2,4.2,4h49.6c1.7-2,3.3-3.3,4.7-5.1
		L440.7,52.9z"/>
	<polygon fill="none" points="508,0 508,26 476,26 476,0 457,0 457,66 476,66 476,39 508,39 508,66 527,66 527,0 	"/>
	<polygon fill="none" points="19,58 19,39 45,39 45,25 19,25 19,6 52,6 52,0 0,0 0,66 52,66 52,58 	"/>
	<path fill="none" d="M133.5,48.4c2-4.9,3-10.3,3-16.2c0-5.8-1-11.1-3-16.1c-2-4.9-4.9-9.1-8.5-12.7C123.6,2.2,122,1,120.4,0H63v66
		h56.5c2-2,3.8-2.9,5.5-4.6C128.6,57.8,131.5,53.4,133.5,48.4z M115.7,43.1c-1,3.2-2.5,5.9-4.5,8.2c-1.9,2.2-4.3,3.9-7.1,5.1
		c-2.8,1.2-6,1.7-9.6,1.7H82V6h12.5c3.6,0,6.8,0.7,9.6,1.9c2.8,1.2,5.2,3.1,7.1,5.3c1.9,2.2,3.4,5,4.5,8.2c1,3.2,1.6,6.8,1.6,10.8
		C117.3,36.3,116.8,39.9,115.7,43.1z"/>
	<path fill="none" d="M608.9,61.9c3.7-3.7,6.5-8.2,8.5-13.3c2-5,3-10.4,3-16.3c0-5.8-1-11.2-3-16.2c-2-5-4.9-9.3-8.5-13
		c-1.2-1.2-2.4-2.1-3.8-3.1h-53.4c-1.3,1-2.6,1.9-3.7,3c-3.7,3.7-6.5,7.8-8.5,12.9c-2,5-3,10.5-3,16.3c0,5.8,1,11.3,3,16.3
		c2,5,4.9,9.6,8.5,13.3c1.4,1.5,3,2.2,4.7,4.2h51.6C605.9,64,607.5,63.3,608.9,61.9z M599.7,43.1c-1,3.2-2.5,5.9-4.5,8.1
		c-1.9,2.2-4.3,3.9-7.1,5.1c-2.8,1.2-6,1.7-9.6,1.7c-3.6,0-6.9-0.6-9.7-1.7c-2.8-1.2-5.2-2.9-7.2-5.1c-1.9-2.2-3.4-4.9-4.5-8.1
		c-1-3.2-1.6-6.8-1.6-10.9c0-4,0.5-7.6,1.6-10.8c1-3.2,2.5-5.9,4.5-8.1c1.9-2.2,4.3-3.9,7.2-5.1c2.8-1.2,6.1-1.8,9.7-1.8
		c3.6,0,6.8,0.6,9.6,1.8c2.8,1.2,5.2,2.9,7.1,5.1c1.9,2.2,3.4,4.9,4.5,8.1c1,3.2,1.6,6.8,1.6,10.8C601.2,36.3,600.7,39.9,599.7,43.1
		z"/>
	<path fill="none" d="M235.3,0l-10.1,38.3c-0.3,1.3-0.7,2.5-1,3.9c-0.3,1.5-0.6,3-0.9,4.7c-0.3-1.7-0.7-3.2-1.2-4.7
		c-0.4-1.5-0.9-2.6-1.3-3.9L209,0h-20.1l-12,38.3c-0.4,1.4-0.8,2.6-1.3,4.1c-0.4,1.5-0.9,3.2-1.2,4.9c-0.2-1.7-0.5-3.3-0.8-4.9
		c-0.4-1.6-0.7-2.8-1.1-4.2L162.3,0h-20.6l20.4,66h21.3l13.3-43.3c0.3-0.8,0.5-1.8,0.8-2.7c0.3-0.9,0.5-1.9,0.8-2.9
		c0.3,1,0.5,2,0.8,2.9c0.3,0.9,0.5,1.9,0.8,2.7L213.1,66h21.3l20.4-66H235.3z"/>
	<rect x="266" fill="none" width="19" height="66"/>
	<polygon fill="none" points="758,7 758,0 693,0 693,7 716,7 716,66 735,66 735,7 	"/>
	<path fill="none" d="M647.9,0l-25.6,66h19l3.8-11h30.7l3.8,11h19L673.1,0H647.9z M649.4,42l7.4-22.1c0.6-1.4,1.1-3.2,1.8-5.1
		c0.6-1.9,1.2-4,1.8-6.3c0.6,2.2,1.3,4.3,1.9,6.2c0.6,1.9,1.2,3.7,1.7,5.1l7.4,22.3H649.4z"/>
	<path d="M605.1,0c1.3,1,2.6,1.9,3.8,3.1c3.7,3.7,6.5,8,8.5,13c2,5,3,10.4,3,16.2c0,5.8-1,11.3-3,16.3c-2,5-4.9,9.6-8.5,13.3
		c-1.4,1.5-3,2.1-4.6,4.1h18l25.6-66H605.1z"/>
	<path d="M120.4,0c1.6,1,3.1,2.2,4.5,3.5c3.7,3.6,6.5,7.7,8.5,12.7c2,4.9,3,10.3,3,16.1c0,5.8-1,11.2-3,16.2c-2,4.9-4.9,9.4-8.5,13
		c-1.7,1.6-3.5,2.6-5.5,4.6h42.7L141.8,0H120.4z"/>
	<polygon points="52,0 52,6 19,6 19,25 45,25 45,39 19,39 19,58 52,58 52,66 63,66 63,0 	"/>
	<polygon points="758,0 758,7 735,7 735,66 766,66 766,0 	"/>
	<polygon points="693,7 693,0 673.1,0 698.6,66 716,66 716,7 	"/>
	<polygon points="645.1,55 641.3,66 679.6,66 675.8,55 	"/>
	<path d="M446.9,0c0.8,0,1.6,1.2,2.3,1.9l-6.3,8.4c-0.4,0.5-0.9,0.9-1.4,1.4c-0.6,0.4-1.3,0.6-2.3,0.6c-0.7,0-1.3-0.2-1.9-0.5
		c-0.6-0.3-1.2-0.7-1.9-1.1c-0.7-0.4-1.4-0.9-2.2-1.4c-0.8-0.5-1.7-1-2.8-1.4c-1.1-0.4-2.4-0.8-3.8-1.1c-1.5-0.3-3.2-0.4-5.1-0.4
		c-3.4,0-6.5,0.6-9.3,1.8c-2.8,1.2-5.2,2.9-7.2,5.2c-2,2.2-3.6,4.9-4.7,8.1c-1.1,3.2-1.7,6.8-1.7,10.7c0,4.1,0.6,7.8,1.7,11
		c1.1,3.2,2.7,5.9,4.6,8.1c1.9,2.2,4.2,3.9,6.8,5c2.6,1.1,5.4,1.7,8.3,1.7c1.7,0,3.3-0.1,4.7-0.2c1.4-0.2,2.7-0.5,3.9-0.9
		c1.2-0.4,2.3-0.9,3.4-1.6c1.1-0.6,2.2-1.5,3.3-2.4c0.4-0.4,0.9-0.7,1.4-0.9c0.5-0.2,1.1-0.4,1.6-0.4c0.4,0,0.9,0.1,1.3,0.2
		c0.4,0.2,0.9,0.5,1.3,0.9l7.4,8c-1.4,1.9-3,3.1-4.7,5.1H457V0H446.9z"/>
	<path d="M354.1,38.8c-0.1-1.5-0.1-2.8-0.1-4.1V0h-34.2l34.6,43.5C354.3,41.9,354.2,40.2,354.1,38.8z"/>
	<polygon points="254.8,0 234.3,66 266,66 266,0 	"/>
	<path d="M389.7,62c-3.4-3.7-6-8.1-7.8-13.2c-1.8-5.1-2.7-10.6-2.7-16.5c0-6,1-11.6,3.1-16.6c2.1-5.1,5-9.2,8.7-12.9
		c1.1-1.1,2.2-2.8,3.4-2.8H370v66h23.9C392.4,64,391,63.4,389.7,62z"/>
	<rect x="285" width="15" height="66"/>
	<rect x="476" y="39" width="32" height="27"/>
	<rect x="476" width="32" height="26"/>
	<path d="M316.1,25.5c0.1,1.4-0.1,2.6-0.1,3.8V66h35.1l-35.1-44.4C316,23,316,24.2,316.1,25.5z"/>
	<path d="M222.1,42.2c0.4,1.5,0.8,3,1.2,4.7c0.3-1.6,0.6-3.2,0.9-4.7c0.3-1.5,0.6-2.6,1-3.9L235.3,0H209l11.9,38.3
		C221.3,39.6,221.7,40.7,222.1,42.2z"/>
	<path d="M173.6,42.4c0.4,1.6,0.6,3.2,0.8,4.9c0.4-1.7,0.8-3.4,1.2-4.9c0.4-1.5,0.9-2.8,1.3-4.1l12-38.3h-26.5l10.1,38.3
		C172.8,39.7,173.2,40.9,173.6,42.4z"/>
	<path d="M548,61.8c-3.7-3.7-6.5-8.3-8.5-13.3c-2-5-3-10.5-3-16.3c0-5.8,1-11.3,3-16.3c2-5,4.9-9.2,8.5-12.9c1.2-1.2,2.4-2,3.7-3
		H527v66h25.7C551,64,549.4,63.3,548,61.8z"/>
	<path d="M199.2,20c-0.3-0.9-0.5-1.9-0.8-2.9c-0.3,1-0.5,2-0.8,2.9c-0.3,0.9-0.5,1.9-0.8,2.7L183.5,66h29.6L200,22.7
		C199.7,22,199.5,20.9,199.2,20z"/>
	<g>
		<path fill="none" d="M810,0c0,1.8,0,3.8,0,6h8V0H810z"/>
		<path fill="none" d="M784,58V39h26v-7.8V25h-26V6h26c0-2.2,0-4.2,0-6h-44v66h44c0-2.2,0-4.9,0-8H784z"/>
		<path fill="none" d="M810,66h8v-8h-8C810,61.1,810,63.8,810,66z"/>
		<path d="M784,58h26c0-5.3,0-11.8,0-19h-26V58z"/>
		<path d="M784,25h26c0-7.1,0-13.6,0-19h-26V25z"/>
	</g>
</g>
</svg>
