<svg width="7011" height="1516" viewBox="0 0 7011 1516" fill="none" xmlns="http://www.w3.org/2000/svg">
<path d="M3676.58 272.893C3751.7 175.616 3878.23 157.996 3986.28 216.601C4123.25 290.89 4161.89 503.936 4048.36 610.646C3941.61 710.985 3759.61 680.805 3676.58 560.119C3612.99 467.702 3608.01 361.683 3676.58 272.893Z" stroke="black" stroke-width="81"/>
<path d="M157 921C958.473 921 1759.42 930 2560.79 930C3113.92 930 3664.32 896.164 4217.03 894C4532.78 892.764 4847.83 894.135 5163.46 887C5554.54 878.159 5940.25 845.569 6330.21 831.5C6507.15 825.116 6676.67 804 6854 804" stroke="black" stroke-opacity="0.4" stroke-width="51" stroke-linecap="round" stroke-linejoin="round"/>
<path d="M4525.24 1091.7C4251.22 831.422 4595.6 62.6639 4940.37 217.376C5127.7 301.436 5173.69 460.212 5226.23 658.756C5269.48 822.202 5315.02 947.838 5226.23 1091.7C5082.41 1324.72 4723.76 1280.26 4525.24 1091.7Z" fill="#001AFF" fill-opacity="0.4"/>
<path d="M4211.5 1090C4270.36 1095.65 4316.14 1125.76 4331 1183C4352.77 1266.83 4248.36 1351.15 4164.5 1329.5C4097.54 1312.22 4050.26 1250.57 4065 1183C4079.44 1116.79 4144.04 1083.52 4211.5 1090Z" stroke="black" stroke-width="61"/>
</svg>
