<svg width="6745" height="943" viewBox="0 0 6745 943" fill="none" xmlns="http://www.w3.org/2000/svg">
<g clip-path="url(#clip0_840_33)">
<path d="M3571.59 109.157C3628.54 35.4013 3724.48 22.0422 3806.41 66.4761C3910.26 122.802 3939.55 284.333 3853.47 365.24C3772.53 441.316 3634.55 418.434 3571.59 326.93C3523.38 256.86 3519.6 176.477 3571.59 109.157Z" stroke="black" stroke-width="81"/>
<path d="M24 640C825.473 640 1626.42 649 2427.79 649C2980.92 649 3531.32 615.164 4084.03 613C4399.78 611.764 4714.83 613.135 5030.46 606C5421.54 597.159 5807.25 564.569 6197.21 550.5C6374.15 544.116 6543.67 523 6721 523" stroke="black" stroke-opacity="0.4" stroke-width="47" stroke-linecap="round" stroke-linejoin="round"/>
<path d="M4214.21 729.039C4006.55 532.08 4267.52 -49.6548 4528.8 67.4187C4670.75 131.029 4705.6 251.178 4745.42 401.42C4778.2 525.103 4812.71 620.174 4745.42 729.039C4636.43 905.365 4364.64 871.727 4214.21 729.039Z" fill="#001AFF" fill-opacity="0.4"/>
<path d="M3976.61 727.604C4021.03 731.893 4055.58 754.749 4066.8 798.193C4083.22 861.821 4004.43 925.818 3941.14 909.39C3890.6 896.27 3854.92 849.48 3866.04 798.193C3876.94 747.938 3925.7 722.688 3976.61 727.604Z" stroke="black" stroke-width="61"/>
</g>
<defs>
<clipPath id="clip0_840_33">
<rect width="6745" height="943" fill="white"/>
</clipPath>
</defs>
</svg>
