<svg width="4433" height="612" viewBox="0 0 4433 612" fill="none" xmlns="http://www.w3.org/2000/svg">
<path d="M108.231 73.4285C137.089 52.2656 645.944 50.7577 686.11 117.316C720.164 173.746 712.111 506.503 667.995 537.811C611.685 577.774 124.073 523.45 80.7008 475.96C37.329 428.47 49.267 116.67 108.231 73.4285Z" fill="#B5B9EB"/>
<path d="M144.564 48.7055L147.564 48.5685C149.481 48.4954 151.4 48.4049 153.314 48.3164L156.313 48.1795L159.188 48.0534C160.67 47.9849 162.17 47.8605 163.671 47.6612L169.626 46.8893C171.958 46.5785 174.353 46.2925 176.713 46.1437L182.712 45.8699C186.147 45.6576 189.577 45.8971 192.94 46.6062L198.821 47.8484C199.528 47.9975 200.211 48.0724 200.846 48.0477L203.845 47.9107L206.72 47.7847C208.452 47.7174 210.229 47.5937 211.961 47.4516L217.939 46.9287C220.442 46.7232 222.949 46.7216 225.454 46.7731L228.464 46.7607L231.361 46.8837C231.72 46.8912 232.163 46.7885 232.72 46.6394L235.789 45.8689L238.723 44.9848C240.623 44.4698 242.57 44.137 244.532 43.9747L250.564 44.0744L253.482 44.4464L256.39 44.6939C258.341 44.9092 260.367 45.207 262.352 45.4271L265.395 45.7883L268.427 46.0249C268.79 46.0618 269.112 46.1221 269.434 46.0623L272.39 45.4272L275.357 44.9167C277.982 44.403 280.623 44.0179 283.294 43.8459L286.282 43.5844L289.282 43.4475C292.378 43.2493 295.533 43.4351 298.605 43.8866L301.524 44.2586L304.453 44.7552C305.659 44.9306 306.881 44.9265 308.108 44.9373L311.129 45.0494L314.14 45.037C315.906 45.0502 317.659 45.001 319.402 44.953L322.413 44.9406L325.288 44.8146C327.695 44.7476 330.163 44.7926 332.576 44.9298L335.597 45.0419L338.504 45.2895C340.766 45.4193 343.079 45.5695 345.327 45.8219L348.245 46.1939L351.288 46.5551C352.284 46.664 353.286 46.6056 354.299 46.5427L357.298 46.4057L360.287 46.1443C362.282 46.0157 364.293 45.9921 366.286 45.8704L369.274 45.6089L372.149 45.4828C374.981 45.3099 377.871 45.3291 380.693 45.6137L383.612 45.9857L386.644 46.2224C387.463 46.3036 388.298 46.3466 389.156 46.2535L392.134 45.8675L395.122 45.6061C397.932 45.295 400.803 45.1069 403.623 45.2388L406.52 45.3618L409.552 45.5985C411.944 45.7117 414.38 45.916 416.759 46.2227L422.596 46.9668C424.568 47.2212 426.586 47.4433 428.557 47.7L434.394 48.4441C435.691 48.613 437.009 48.7236 438.309 48.729L441.319 48.7166L444.205 48.7151C446.851 48.7252 449.534 48.9269 452.159 49.274L455.202 49.6351L458.132 50.1317C459.35 50.2923 460.57 50.3161 461.786 50.3138L467.807 50.289C469.591 50.2817 471.388 50.2602 473.194 50.1941L479.193 49.9202C482.194 49.8117 485.188 50.0458 488.154 50.5165L494.013 51.5096C495.452 51.7391 496.959 51.7831 498.437 51.8755L501.345 52.123L504.377 52.3596C507.019 52.5256 509.645 52.7997 512.239 53.303L515.179 53.9241L518.109 54.4207C519.046 54.6036 520.012 54.7873 521.027 54.7927L527.048 54.7679C531.016 54.791 534.864 55.5956 538.538 57.025L541.398 58.1551L543.862 59.0688L546.737 58.9428L549.747 58.9304C552.48 58.8284 555.209 58.8145 557.917 59.0939L560.836 59.4659L563.744 59.7135C566.153 59.9629 568.605 60.376 570.994 60.8358L573.934 61.4569L576.864 61.9535C578.379 62.2459 579.922 62.5128 581.445 62.682L584.477 62.9186L587.395 63.2907C589.385 63.5104 591.375 63.7957 593.357 64.0239L596.265 64.2714L599.183 64.6435C601.645 64.9269 604.134 65.3587 606.569 65.8794L612.45 67.1216C614.762 67.6176 617.126 68.248 619.381 68.8993L622.208 69.6558L625.045 70.5369C626.791 71.0405 628.552 71.4966 630.314 71.958L633.141 72.7146L636.092 73.4602C639.14 74.2617 642.123 75.3932 644.919 76.8287L647.551 78.2296L650.308 79.6196C650.572 79.7504 650.817 79.886 651.088 79.9278L654.006 80.2999L657.06 80.7856C660.927 81.3844 664.63 82.6517 668.059 84.5915L670.702 86.1169L673.209 87.5287C674.452 88.2324 675.8 88.8567 677.141 89.4433L679.887 90.7088L682.622 91.8498C686.955 93.7445 690.685 96.7334 693.547 100.556L695.395 103.029L699.247 108.339C699.494 108.742 700.193 109.964 700.776 111.467C700.809 111.552 700.759 111.706 700.808 111.841L702.228 113.724C704.765 116.985 706.32 120.613 707.274 124.074L708.158 127.008L708.907 129.828C709.571 132.25 710.135 134.739 710.557 137.213L711.578 143.146C711.734 144.051 711.976 144.94 712.316 145.842L713.324 148.766L714.447 151.553C715.912 155.43 716.545 159.536 716.386 163.68L716.162 169.723C716.131 170.604 716.244 171.422 716.38 172.213L716.89 175.18L718.389 183.707L719.41 189.641C719.901 192.312 720.259 194.999 720.367 197.713L720.641 203.712C720.705 205.373 720.789 207.046 720.952 208.704L721.475 214.681C721.693 216.911 721.837 219.185 721.939 221.416L722.065 224.291L722.202 227.291C722.306 229.57 722.456 231.89 722.428 234.172L722.305 237.069L722.317 240.079C722.295 241.877 722.254 243.676 722.287 245.477L722.424 248.477L722.426 251.363C722.458 253.098 722.525 254.878 722.634 256.614L722.771 259.614L723.436 267.21L723.946 270.177L724.332 273.154C724.853 276.807 724.806 280.47 724.159 284.086L723.674 287.14L723.053 290.08C722.93 290.773 722.934 291.455 722.978 292.095L723.115 295.094L723.365 297.958C723.553 300.696 723.542 303.507 723.337 306.242L723.09 309.15L722.853 312.182C722.729 313.851 722.703 315.546 722.666 317.217L722.543 320.114L722.556 323.124C722.505 325.44 722.363 327.752 722.159 330.06L721.922 333.093L721.675 336C721.614 336.682 721.629 337.378 721.735 338.128L722.132 341.23L722.518 344.208C722.972 347.315 723.19 350.442 722.962 353.58L722.725 356.612L722.478 359.52C722.242 362.73 721.617 365.899 720.669 368.963L719.788 371.801L718.918 374.763L719.43 380.616C719.712 384.075 719.509 387.549 718.829 390.957L717.586 396.838C717.424 397.668 717.418 398.537 717.431 399.361L717.432 402.247L717.445 405.257C717.476 407.347 717.506 409.436 717.491 411.527L717.516 417.548C717.501 419.685 717.413 421.823 717.325 423.964L717.1 430.007C717.003 432.33 716.836 434.648 716.579 436.954L716.218 439.997L715.846 442.915C715.515 445.86 714.965 448.767 714.096 451.601L713.226 454.563L712.345 457.4C712.103 458.187 711.858 458.935 711.794 459.707L711.557 462.739L711.31 465.647C711.039 469.049 710.321 472.422 709.171 475.621L708.154 478.345L707.149 481.194C707.091 481.355 707.08 481.594 707.079 481.827L707.104 487.848C707.081 491.523 706.464 495.162 705.29 498.672L704.285 501.521L703.403 504.358C702.779 506.216 702.119 508.075 701.506 509.92L700.5 512.768L699.619 515.606C698.601 518.659 697.166 521.519 695.482 524.249L693.956 526.892L692.42 529.411C691.689 530.595 691.015 531.803 690.473 532.969L689.196 535.59L687.931 538.336C686.059 542.351 683.322 545.829 679.918 548.573L677.693 550.399L675.345 552.236C671.37 555.439 666.669 557.419 661.665 557.95L658.552 558.222L655.575 558.608C653.987 558.774 652.462 558.987 650.989 559.26L648.147 559.76L645.18 560.271C644.024 560.487 642.842 560.808 641.623 561.209L638.7 562.218L635.89 563.091C633.296 563.948 630.592 564.679 627.916 565.169L625.074 565.668L622.107 566.179C619.329 566.687 616.474 566.991 613.65 567.044L610.765 567.046L607.765 567.183C604.982 567.234 602.205 567.027 599.437 566.657L596.394 566.295L593.476 565.923C593.171 565.883 592.863 565.83 592.593 565.875L589.627 566.386L586.671 567.021C582.917 567.723 579.049 567.742 575.263 567.14L572.333 566.644L569.415 566.272C569.218 566.241 568.949 566.162 568.657 566.213L562.723 567.234C559.32 567.822 555.806 568.004 552.344 567.64L549.425 567.268L546.518 567.02C545.665 566.932 544.792 566.915 543.881 567L537.904 567.523C534.7 567.833 531.422 567.797 528.228 567.366L522.391 566.622C521.262 566.469 520.12 566.393 518.986 566.418L515.975 566.43L512.976 566.567C510.976 566.612 508.966 566.686 506.966 566.716L503.955 566.729L501.07 566.73C498.835 566.764 496.522 566.77 494.291 566.696L491.394 566.573L488.373 566.461C485.204 566.353 482.033 565.95 478.973 565.15L476.146 564.394L473.195 563.648C472.656 563.507 472.141 563.395 471.668 563.405L468.668 563.542L465.783 563.544C463.46 563.595 461.072 563.629 458.755 563.531L455.847 563.284L452.826 563.171C450.724 563.082 448.623 562.992 446.523 562.844L443.491 562.608L440.594 562.485C438.967 562.37 437.319 562.297 435.684 562.287L432.673 562.3L429.776 562.177C427.121 562.161 424.455 561.97 421.822 561.618L418.904 561.246L415.861 560.884C414.124 560.652 412.394 560.379 410.657 560.21L407.625 559.974L404.718 559.726C403.054 559.565 401.351 559.483 399.671 559.415L396.774 559.292L393.753 559.18C391.02 559.068 388.321 558.633 385.631 558.134L379.772 557.14C377.729 556.761 375.681 556.342 373.643 555.92L367.762 554.678C366.337 554.383 364.872 554.204 363.441 554.052L360.522 553.68L357.615 553.433C356.836 553.35 355.987 553.303 355.102 553.401L352.125 553.787L349.012 554.06C345.179 554.483 341.3 554.23 337.527 553.308L334.712 552.676L331.76 551.93C330.185 551.545 328.602 551.234 327.033 550.963L321.174 549.97C320.281 549.818 319.361 549.693 318.391 549.712L315.392 549.849L312.381 549.861C308.949 549.939 305.459 549.596 302.121 548.751L299.294 547.995L296.343 547.249C294.683 546.83 293.023 546.403 291.345 546.055L288.404 545.434L285.475 544.938C283.998 544.632 282.494 544.367 281.018 544.198L275.181 543.454C273.072 543.213 270.946 542.937 268.835 542.629L265.917 542.257L262.863 541.771C260.417 541.413 257.987 540.989 255.591 540.4L252.764 539.643L249.824 539.022C249.418 538.923 248.979 538.872 248.432 538.893L245.433 539.03L242.298 539.053C237.949 539.229 233.701 538.462 229.676 536.77L226.816 535.64L224.081 534.499C223.259 534.152 222.441 533.862 221.628 533.709L218.699 533.213L215.759 532.592C214.985 532.448 214.188 532.396 213.36 532.425L207.361 532.699C202.942 532.859 198.614 532.035 194.603 530.302L191.733 529.047L188.987 527.782C187.973 527.343 186.94 527.122 186.025 526.912L183.199 526.155L180.383 525.523C179.159 525.242 177.876 524.987 176.56 524.854L170.496 524.38C167.294 524.058 164.188 523.241 161.144 522.187L158.306 521.306L155.458 520.301C154.388 519.929 153.29 519.632 152.247 519.452L149.442 518.945L146.512 518.448C143.69 517.961 140.873 517.246 138.168 516.292L135.319 515.287L132.595 514.27C132.055 514.08 131.44 513.972 130.808 513.925L124.744 513.451C120.628 513.144 116.625 512.121 112.917 510.22L107.653 507.418C107.182 507.177 106.646 507.036 106.104 506.926L100.224 505.684C95.5146 504.725 91.2178 502.603 87.6375 499.507L85.3354 497.576L83.0224 495.519C81.9648 494.607 80.9752 493.868 80.0649 493.269L77.671 491.721L75.4015 490.163C72.9255 488.533 70.6176 486.692 68.517 484.617L66.453 482.539L64.2645 480.472C60.8574 477.099 58.464 472.948 57.187 468.418L56.4274 465.473L55.5542 462.663C55.1431 461.205 54.7003 459.742 54.1767 458.392L53.1899 455.718L52.0677 452.93C51.0846 450.396 50.247 447.762 49.6271 445.113L49.0029 442.282L48.3679 439.326C47.9016 437.333 47.3996 435.304 46.9624 433.301L46.3383 430.469L45.7032 427.513C45.2653 425.506 44.8237 423.497 44.4222 421.477L43.7872 418.521L43.2767 415.554C42.7736 413.016 42.4379 410.446 42.2277 407.866L41.7047 401.889C41.5032 399.393 41.37 396.891 41.4246 394.385L41.6488 388.343C41.6579 387.885 41.5248 387.452 41.4045 386.984L39.8853 381.094C38.7556 376.814 38.6784 372.382 39.4995 368.078L39.996 365.148L40.6062 362.083C40.7427 361.348 40.8365 360.678 40.8055 360.058L40.544 357.07L40.4071 354.07C40.362 353.294 40.2967 352.464 40.0647 351.591L39.1697 348.532L38.4101 345.587C37.5605 342.433 37.1331 339.203 37.0623 335.918L36.9253 332.918L36.9129 329.908C36.8665 327.579 36.8122 325.209 36.9254 322.88L37.173 319.972L37.2851 316.951C37.4414 313.802 37.9011 310.695 38.7312 307.665L39.6014 304.703L40.266 302.261L39.8209 300.041L39.1858 297.085C38.6446 294.223 38.344 291.288 38.2987 288.379L38.2863 285.369L38.2848 282.483C38.2382 279.447 38.4449 276.372 38.9947 273.386L39.6158 270.446L40.1123 267.517C40.3818 266.056 40.6018 264.521 40.7272 263.071L41.2223 257.256C41.4118 255.066 41.6138 252.854 41.901 250.672L42.273 247.753L42.6342 244.71C42.7486 243.826 42.8318 242.88 42.7681 241.938L42.6311 238.938L42.3697 235.95C42.152 232.679 42.3109 229.351 42.8897 226.117L43.3971 223.312L44.0182 220.372C44.2488 219.084 44.354 217.751 44.4277 216.446L44.5398 213.425L44.7873 210.517C44.9639 207.293 45.4223 204.061 46.3362 200.971L47.2172 198.133L48.0874 195.171C48.186 194.834 48.2541 194.516 48.2493 194.153L48.2368 191.143L48.0999 188.143L48.7786 181.559C49.2387 179.403 49.919 177.246 50.8598 175.229L52.1253 172.483L53.5153 169.726C53.8166 169.074 54.0136 168.443 54.11 167.918L54.6174 165.113L55.114 162.183C55.285 161.251 55.3522 160.237 55.3506 159.151L55.3382 156.141L55.3149 153.006C55.314 149.478 55.8997 145.984 56.912 142.577L57.6686 139.75L58.5496 136.913C59.2846 134.439 60.16 131.91 61.1663 129.532L63.4482 124.062C63.9743 122.818 64.5104 121.569 64.8756 120.298L65.6321 117.472L66.5132 114.634C67.1948 112.264 68.0151 109.943 68.9135 107.648L69.9299 104.924L71.06 102.065C71.8478 100.055 72.6811 98.0513 73.5474 96.0752L74.6884 93.3404L75.8403 90.7301C76.7356 88.6881 77.6918 86.5856 78.6904 84.5833L80.0914 81.9512L81.3678 79.3299C82.8634 76.3316 84.726 73.4608 86.9076 70.9402L88.8393 68.6381L90.9065 66.4496C93.5607 63.3829 96.7492 60.8235 100.416 58.9673L105.698 56.2465L111.523 53.9803C113.527 53.4431 115.64 53.1887 117.717 53.062L120.705 52.8005L123.829 52.6527C124.615 52.6013 125.364 52.4169 126.049 52.2075L128.858 51.3343L131.793 50.4502C134.998 49.4722 138.322 48.9599 141.689 48.8315L144.564 48.7055ZM141.127 81.1284L138.317 82.0016L135.383 82.8857C132.242 83.846 129.017 84.4066 125.747 84.6071L122.623 84.755L119.883 84.9947L117.48 86.2087L115.065 87.2983L114.941 87.3092L114.952 87.4337L113.134 89.6004L111.078 91.9134C110.612 92.4525 110.232 92.9792 109.963 93.5167L108.698 96.2624L105.187 103.471L104.046 106.206L102.781 108.951C102.086 110.538 101.45 112.151 100.818 113.766L99.6771 116.501L98.6715 119.349C98.1418 120.706 97.6803 122.083 97.2768 123.486L96.3957 126.324L95.6392 129.151C94.9198 131.653 94.0377 134.128 93.0226 136.532L91.7571 139.278L90.6161 142.012C90.0717 143.299 89.606 144.694 89.2105 146.025L88.454 148.852L87.5729 151.689C87.4626 152.061 87.3107 152.472 87.3083 152.967L87.3316 156.102L87.344 159.113C87.3479 162.078 87.147 165.044 86.6123 167.96L86.1158 170.89L85.4838 173.705C84.8747 177.027 83.8444 180.225 82.4297 183.258L81.1642 186.004L80.1042 188.229L80.1866 190.606L80.1991 193.617C80.2585 197.239 79.7798 200.807 78.7482 204.284L77.8672 207.121L77.1216 210.073C76.9036 210.809 76.7231 211.532 76.6842 212.244L76.5612 215.141L76.3245 218.173C76.1799 220.789 75.9673 223.445 75.5057 226.024L74.8737 228.84L74.3771 231.769C74.2641 232.401 74.2595 233.093 74.3024 233.783L74.5639 236.772L74.7008 239.772C74.9067 242.814 74.7744 245.935 74.3754 248.96L73.6313 254.797C73.404 256.52 73.2312 258.263 73.0818 259.99L72.8342 262.897L72.5976 265.929C72.3831 268.393 72.0607 270.852 71.6107 273.293L70.9896 276.234L70.493 279.163C70.3216 280.092 70.2205 281.031 70.2346 281.946L70.247 284.957L70.373 287.832C70.3889 288.867 70.4508 289.974 70.6563 291.069L71.2913 294.025L71.8018 296.992C72.6355 301.401 72.3872 305.922 71.2024 310.22L70.4568 313.171L69.5867 316.133C69.3535 316.988 69.2077 317.798 69.171 318.553L69.0589 321.575L68.9359 324.471C68.8585 326.064 68.8207 327.659 68.8518 329.247L68.9888 332.246L69.0012 335.257C69.0165 335.865 69.1075 336.516 69.3 337.238L70.0596 340.183L70.9437 343.117C71.7593 346.132 72.2154 349.275 72.3834 352.402L72.5203 355.402L72.6464 358.277C72.8226 361.574 72.6168 364.894 72.0018 368.12L71.5162 371.174L70.976 373.605L71.5457 375.814L72.4298 378.748C73.3189 382.114 73.6602 385.575 73.5831 389.062L73.5955 392.072L73.4834 395.094C73.4527 396.517 73.4898 397.938 73.6047 399.349L74.1277 405.326C74.2381 406.659 74.3428 407.99 74.6008 409.3L75.2359 412.256L75.7464 415.223C76.1124 417.065 76.5845 418.931 76.9838 420.761L77.6079 423.593L78.243 426.549C78.6459 428.394 79.0508 430.251 79.4804 432.087L80.1045 434.918L80.8641 437.863C81.1399 439.037 81.4876 440.173 81.9163 441.284L82.914 444.083L84.0362 446.871C84.9317 449.181 85.7331 451.535 86.4114 453.941L87.5508 458.358L90.9907 461.822C91.6773 462.501 92.3874 462.991 93.0111 463.402L95.2806 464.96L97.6745 466.507C99.8628 467.948 101.975 469.603 103.996 471.35L107.787 474.531L109.585 475.001L112.525 475.622C115.891 476.312 119.162 477.346 122.224 478.915L124.856 480.316L127.229 481.614L127.104 481.625L126.931 482.518L127.489 481.716L127.353 481.603L130.136 481.861L133.168 482.098C136.563 482.351 139.91 482.981 143.132 484.112L148.829 486.123C149.881 486.494 150.917 486.808 151.915 486.983L157.774 487.976C160.551 488.457 163.317 489.093 165.984 490.018L168.708 491.034L171.556 492.04C172.243 492.278 172.979 492.403 173.727 492.477L176.635 492.725L179.678 493.086C182.323 493.35 184.995 493.811 187.573 494.403L193.204 495.667C196.103 496.333 198.998 497.252 201.728 498.435L204.474 499.7L206.813 500.625L209.19 500.542L212.201 500.53C215.373 500.415 218.547 500.622 221.671 501.207L224.6 501.704L227.54 502.325C230.591 502.899 233.568 503.737 236.427 504.935L239.297 506.19L241.512 507.125L244.013 507.032L247.137 506.884C250.611 506.744 254.109 507.022 257.512 507.859L260.338 508.615L263.29 509.361C264.67 509.698 266.08 509.914 267.497 510.122L270.426 510.619L273.47 510.98C275.251 511.239 277.034 511.564 278.808 511.767L281.716 512.015L284.635 512.387C287.052 512.664 289.494 513.017 291.885 513.509L297.766 514.752C299.939 515.201 302.142 515.644 304.291 516.188L307.117 516.945L310.069 517.69C310.553 517.809 311.046 517.944 311.596 517.933L314.595 517.796L317.606 517.784C320.604 517.716 323.609 517.875 326.567 518.38L332.425 519.373C334.736 519.771 337.044 520.342 339.335 520.902L342.275 521.523L345.226 522.269L348.464 521.985L351.566 521.589C354.69 521.241 357.837 521.186 360.971 521.519L366.808 522.263C369.297 522.527 371.852 522.854 374.308 523.363L377.248 523.984L380.064 524.616C381.878 524.992 383.732 525.304 385.549 525.642L388.478 526.139L391.419 526.76C392.614 526.982 393.88 527.142 395.095 527.191L397.992 527.314L401.013 527.426C403.286 527.518 405.566 527.615 407.825 527.834L410.732 528.082L413.651 528.454C415.788 528.661 417.977 528.858 420.111 529.143L423.154 529.504L426.083 530.001C427.361 530.171 428.699 530.154 429.987 530.161L432.884 530.284L435.894 530.272C438.207 530.286 440.514 530.382 442.819 530.544L445.727 530.792L448.748 530.904C450.559 531.031 452.366 531.23 454.179 531.307L457.2 531.419L460.097 531.542C461.714 531.611 463.371 531.65 464.997 531.616L467.996 531.479L471.007 531.466C474.479 531.393 477.923 531.703 481.268 532.576L484.23 533.446L487.056 534.203C487.875 534.417 488.706 534.468 489.466 534.494L492.487 534.606L495.384 534.729C497.093 534.785 498.818 534.806 500.533 534.78L503.543 534.768L506.543 534.631C508.463 534.602 510.383 534.547 512.304 534.503L515.314 534.491L518.2 534.49C521.008 534.426 523.857 534.505 526.641 534.88L529.56 535.252L532.613 535.738C533.311 535.828 534.012 535.745 534.741 535.677L540.718 535.154C543.758 534.86 546.845 534.911 549.885 535.231L552.793 535.478L555.711 535.85C556.16 535.898 556.748 535.809 557.33 535.709L563.264 534.688C566.95 534.053 570.701 533.999 574.423 534.59L580.281 535.583C580.419 535.605 580.594 535.574 580.779 535.539L583.746 535.029L586.702 534.394C590.336 533.72 594.071 533.693 597.726 534.182L600.644 534.554L603.687 534.915C604.897 535.077 606.084 535.13 607.218 535.108L610.103 535.107L613.114 535.095C614.204 535.073 615.271 534.881 616.34 534.687L619.307 534.176L622.15 533.677C623.343 533.458 624.603 533.133 625.831 532.727L628.629 531.729L631.564 530.845C634.131 529.998 636.772 529.269 639.413 528.778L645.098 527.779C647.448 527.342 649.871 527.025 652.288 526.774L655.265 526.388L656.511 526.279L657.566 525.434L659.2 524.036L660.168 522.194L661.445 519.573C662.54 517.212 663.722 514.838 665.101 512.603L666.762 510.074L668.288 507.431C668.698 506.76 669.027 506.122 669.245 505.465L670.126 502.627L671.142 499.903C671.765 498.027 672.395 496.105 673.029 494.217L673.91 491.379L674.916 488.531C674.997 488.29 675.086 487.996 675.088 487.638L675.064 481.617C675.087 477.8 675.796 474.006 677.093 470.397L679.105 464.7C679.294 464.164 679.428 463.664 679.472 463.162L679.709 460.13L679.956 457.223C680.206 454.073 680.722 450.93 681.651 447.914L683.413 442.239C683.709 441.279 683.926 440.266 684.034 439.299L684.779 433.462C684.956 431.879 685.044 430.268 685.112 428.665L685.336 422.622C685.41 420.833 685.478 418.994 685.49 417.213L685.489 414.327L685.476 411.317C685.489 409.474 685.522 407.634 685.495 405.794L685.482 402.784L685.346 399.784C685.3 396.673 685.685 393.591 686.294 390.541L686.79 387.612L687.411 384.672C687.507 384.192 687.572 383.663 687.53 383.156L687.018 377.303C686.681 373.24 687.154 369.129 688.348 365.266L689.23 362.429L690.1 359.466C690.349 358.658 690.473 357.902 690.526 357.171L690.774 354.263L691.01 351.231C691.064 350.466 691.046 349.679 690.928 348.854L690.417 345.887L690.031 342.909C689.56 339.704 689.517 336.379 689.804 333.142L690.299 327.327C690.442 325.712 690.462 324.035 690.497 322.416L690.62 319.519L690.608 316.509C690.657 314.252 690.847 311.949 691.015 309.697L691.263 306.79L691.375 303.768C691.46 302.598 691.522 301.43 691.444 300.249L691.307 297.25L691.045 294.261C690.819 290.963 690.984 287.673 691.565 284.428L692.175 281.363L692.672 278.434C692.721 278.149 692.763 277.908 692.731 277.676L692.221 274.709L691.835 271.731C691.492 269.352 691.229 266.915 691.078 264.52L690.952 261.645L690.691 258.656C690.552 256.452 690.528 254.229 690.487 252.024L690.35 249.024L690.338 246.014C690.299 243.892 690.254 241.74 690.28 239.62L690.403 236.723L690.391 233.713C690.411 232.055 690.404 230.354 690.328 228.699L690.202 225.824L690.065 222.824L689.107 211.866C688.884 209.598 688.721 207.283 688.632 205.007L688.358 199.008C688.311 197.793 688.138 196.601 687.918 195.407L687.407 192.441L686.908 189.598C686.539 187.599 686.223 185.534 685.876 183.54L685.376 180.698L684.865 177.731C684.333 174.676 684.069 171.599 684.184 168.505L684.296 165.484L684.441 162.836L683.443 160.038L682.321 157.25C681.253 154.432 680.438 151.521 679.928 148.55L679.542 145.573L679.032 142.606C678.787 141.166 678.415 139.714 678.028 138.302L677.279 135.481L676.395 132.547L676.271 132.558L675.55 131.492L674.006 129.619C673.438 128.889 672.684 127.792 671.99 126.659C671.736 126.243 670.915 124.872 670.294 123.043C670.26 122.943 670.182 122.823 670.136 122.68L669.708 122.09L668.706 120.672L667.022 120.067L664.276 118.801C661.946 117.781 659.656 116.632 657.452 115.383L654.945 113.971L652.302 112.446L652.177 112.457L649.123 111.971L646.194 111.474C642.503 110.904 638.928 109.836 635.612 108.134L632.98 106.733L630.224 105.343C629.436 104.939 628.637 104.616 627.884 104.418L622.231 102.905C620.204 102.375 618.191 101.756 616.182 101.176L613.231 100.43L610.393 99.5493C608.891 99.1171 607.345 98.7833 605.779 98.4472L599.899 97.205C598.444 96.8929 597.006 96.6204 595.567 96.4547L589.73 95.7106C587.804 95.4888 585.838 95.3046 583.904 95.091L580.872 94.8544L577.953 94.4823C575.564 94.218 573.191 93.8055 570.827 93.3491L567.898 92.8525L564.957 92.2314C563.472 91.9454 561.987 91.7696 560.512 91.6165L557.593 91.2445L554.686 90.9969C553.495 90.8737 552.189 90.7776 550.906 90.8257L544.907 91.0996C540.711 91.257 536.582 90.5465 532.681 89.0323L526.962 86.7722L526.837 86.783L520.817 86.8079C517.845 86.7896 514.865 86.3964 511.948 85.8272L509.018 85.3306L506.202 84.6986C504.969 84.4579 503.684 84.3601 502.401 84.2783L499.369 84.0416L496.472 83.9186C493.984 83.7632 491.449 83.4584 488.995 83.0671L483.136 82.074C482.241 81.9328 481.317 81.9064 480.364 81.9401L474.365 82.214C472.198 82.2933 469.997 82.2742 467.846 82.2824L464.96 82.2839L461.95 82.2963C459.25 82.3061 456.549 82.1048 453.871 81.7483L448.034 81.0042C446.747 80.8329 445.407 80.7243 444.119 80.7193L441.109 80.7318L438.223 80.7333C435.575 80.7232 432.897 80.5166 430.269 80.1744L424.432 79.4303C422.475 79.1754 420.43 78.9497 418.47 78.6971L412.633 77.953C411.097 77.7549 409.487 77.5564 407.95 77.4844L405.053 77.3614L402.032 77.2493C400.924 77.2005 399.791 77.1678 398.648 77.2944L392.692 78.0664C389.602 78.4075 386.497 78.3142 383.401 78.0009L380.494 77.7534L377.461 77.5168C376.371 77.4077 375.29 77.3611 374.191 77.4264L368.192 77.7003C366.241 77.8195 364.282 77.962 362.329 78.0878L359.34 78.3493L356.341 78.4863C353.444 78.6695 350.546 78.5662 347.661 78.2418L344.754 77.9943L341.711 77.6331C340.073 77.45 338.43 77.2821 336.778 77.1863L333.757 77.0742L330.849 76.8267C329.32 76.7389 327.716 76.8143 326.209 76.8562L323.323 76.8577L320.324 76.9947C318.172 77.0543 315.972 77.0799 313.805 77.0631L310.908 76.9401L307.898 76.9525C305.196 76.9315 302.491 76.7947 299.819 76.4045L296.89 75.9079L293.847 75.5468C293.018 75.4275 292.189 75.3355 291.323 75.3911L288.324 75.528L285.335 75.7895C284.039 75.8736 282.754 76.0034 281.486 76.2518L278.53 76.8868L275.563 77.3973C272.018 78.0872 268.39 78.2334 264.811 77.8361L261.903 77.5886L258.86 77.2275C256.87 77.0066 254.854 76.7101 252.898 76.4943L249.991 76.2467L247.072 75.8747L244.138 76.7588L241.193 77.5183C237.8 78.4423 234.205 78.8926 230.641 78.8179L227.755 78.8195L224.859 78.6965C223.467 78.6673 222.016 78.7034 220.603 78.8178L214.626 79.3408C212.423 79.5221 210.22 79.7079 208.015 79.7937L205.005 79.8061L202.13 79.9321C198.828 80.0605 195.497 79.8388 192.275 79.1631L189.335 78.542L186.27 77.9318C185.721 77.8196 185.164 77.7907 184.629 77.8243L178.631 78.0982C177.013 78.2011 175.363 78.4369 173.785 78.6476L170.932 79.0227L167.954 79.4087C165.554 79.7292 163.14 79.9277 160.732 80.0406L157.732 80.1776L154.857 80.3036C152.855 80.3963 150.74 80.5119 148.734 80.5884L145.859 80.7144L142.859 80.8514C142.321 80.8755 141.742 80.9405 141.127 81.1284ZM127.229 481.614L127.489 481.716L126.931 482.518L127.104 481.625L127.229 481.614ZM115.076 87.4228L114.941 87.3092L115.076 87.4228Z" fill="#B5B9EB"/>
<path d="M168.366 473.533C194.331 470.01 228.505 467.157 254.747 465.957C262.973 465.58 258.909 467.092 264.586 466.906C273.119 466.639 281.18 465.855 289.522 465.543C292.056 465.448 294.52 465.397 297.082 465.407C300.733 465.43 296.295 467.522 300.103 467.506C320.924 467.422 340.695 466.453 361.816 466.828C397.82 467.475 433.126 469.286 468.391 470.395C536.732 471.877 603.368 486.269 669.76 490.83C698.026 492.772 731.492 493.312 762.055 489.664C767.734 489.007 773.148 488.203 778.507 487.223C782.428 486.491 779.807 485.238 780.531 484.981C791.881 480.857 788.571 484.832 796.354 483.701C827.123 479.181 860.594 466.9 891.203 458.908C904.235 455.588 890.336 455.34 904.037 454.253C904.99 454.184 901.982 456.603 905.658 456.037C913.923 454.688 929.594 451.947 936.072 451.419C939.8 451.07 942.515 450.86 944.957 450.674C950.516 450.258 953.897 449.938 962.007 449.241C977.764 447.908 996.724 447.324 1013.97 446.714C1017.65 446.583 1012.74 444.816 1018.64 444.471C1024.55 444.063 1040.23 444.709 1045.46 445.544C1050.68 446.314 1048.34 447.588 1049.25 447.975C1056.63 451.157 1074.79 449.391 1077.09 449.654C1079.08 449.834 1081 450.023 1082.98 450.236C1124.96 454.29 1154.27 478.097 1187.41 486.973C1197.88 489.802 1208.86 491.25 1220.01 491.29C1237.04 491.468 1253.06 487.07 1266.82 479.71C1293.97 465.15 1312.72 443.331 1339.17 422.544C1342 420.358 1337.35 421.217 1340.86 418.542C1365.69 398.792 1400 387.572 1432.08 390.981C1447.13 392.221 1462.06 395.176 1476.34 399.724C1480.72 401.142 1474.52 401.274 1478.84 402.813C1505.84 411.764 1541.8 436.362 1559.73 436.975C1575.62 446.152 1594.67 456.396 1608.95 463.383C1618.19 467.823 1608.14 466.564 1620.41 469.647C1623.19 470.282 1620.17 467.535 1624.28 468.575C1641.43 472.927 1660.74 475.751 1678.17 474.041C1681.74 473.693 1680.68 472.134 1681.67 471.794C1681.68 471.79 1681.7 471.786 1681.71 471.782C1689.86 469.158 1703.88 470.675 1707.02 470.161C1730.2 467.085 1745.87 458.736 1765.3 447.815C1769.83 445.227 1763.43 446.45 1767.72 443.886C1789.89 430.562 1813.59 414.825 1839.21 405.571C1844.91 403.53 1840.41 407.276 1843.16 406.407C1855.18 402.812 1856.86 398.692 1868.94 396.424C1871.5 395.984 1870.42 397.838 1870.92 397.898C1878.52 398.914 1884.04 394.235 1885.95 393.872C1886.72 393.72 1887.5 393.579 1888.26 393.449C1910.4 389.886 1925.33 393.437 1946.94 394.262C1949.63 394.392 1943.7 391.953 1951.28 392.466C2001.92 396.119 2053.16 412.443 2098.34 431.932C2105.37 434.972 2099.74 434.341 2100.13 434.688C2106.28 440.205 2112.49 438.637 2114.82 439.444C2133.4 446.02 2148.79 456.454 2162.82 457.81C2191.37 470.947 2220.74 487.04 2248.6 493.393C2297.65 501.773 2347.14 491.789 2394.75 475.945C2395.74 475.621 2394.67 478.045 2396.64 477.388C2420.32 469.264 2414.71 468.185 2428.57 458.514C2432.05 456.071 2445.44 455.051 2446.61 454.901C2450.85 454.365 2448.03 458.616 2449.38 458.284C2460.54 455.481 2455.17 447.631 2469.45 441.718C2469.9 441.549 2468.68 443.898 2469.93 443.563C2473.84 442.533 2477.29 440.403 2481.17 439.495C2490.08 437.464 2494.6 440.469 2506.62 433.388C2508.16 432.517 2503.84 428.314 2517.12 424.176C2522.38 422.39 2546.06 415.585 2552.92 414.594C2559.75 413.417 2555.47 416.11 2555.97 416.071C2574.48 414.518 2567.86 416.895 2577.37 418.617C2586.86 420.52 2583.23 413.127 2586.86 411.753C2588.34 411.206 2591.5 410.92 2594.98 410.858C2600.13 410.745 2605.65 411.202 2607.58 411.487C2610.93 411.962 2606.82 413.243 2609.81 413.464C2629.23 415.323 2618.26 409.353 2624.82 408.072C2640.41 405.409 2651.95 412.592 2665.36 415.779C2669.01 416.674 2666.27 414.75 2669.61 415.327C2682.74 417.793 2689.92 421.765 2704.66 425.383C2707.04 425.926 2719.88 427.253 2726.02 432.927C2726.89 433.73 2723.4 433.737 2728.4 436.381C2735.85 440.307 2749.21 447.361 2757.42 451.057C2763.48 453.775 2757.82 448.158 2764.9 452.645C2768.05 454.64 2761.29 452.74 2767.25 456.384C2773.17 460.036 2788.99 467.945 2795.12 470.707C2801.21 473.49 2798.65 470.285 2799.19 470.404C2802.45 471.195 2814.49 475.441 2815.54 475.815C2850.81 490.329 2886.56 498.01 2923.28 497C2940.95 496.584 2958.53 493.881 2975.36 487.847C2979.43 486.367 2976.07 485.492 2976.68 485.247C2989.98 479.371 2981.14 488.317 2991.4 485.873C2988.43 482.872 2994.42 481.271 3003.41 475.9C3007.69 473.291 3004.56 473.291 3004.89 472.938C3010.16 467.327 3015.99 467.019 3017.47 466.801C3022.87 465.966 3025.84 460.707 3029.47 459.967C3033.09 459.199 3027.97 465.563 3036.24 459.601C3037.72 456.801 3029.5 458.26 3035.36 453.271C3055.8 433.124 3107.91 405.688 3133.06 408.018C3157.16 407.084 3164.83 408.881 3178.43 411.596C3178.65 411.647 3178.88 411.698 3179.1 411.748C3202.55 417.72 3194.45 413.234 3209.75 416.525C3225.11 420.507 3215.49 424.301 3217.12 426.373C3218.59 428.453 3221.38 427.957 3223.56 429.698C3225.71 431.44 3220.05 430.14 3225.67 432.805C3231.35 435.355 3247.72 440.74 3250.42 440.637C3256.08 440.194 3250.93 433.263 3265.03 442.86C3265.83 443.423 3262.22 443.29 3265.33 445.369C3289.94 461.805 3313.61 480.8 3336.96 498.229C3340.18 500.622 3336.12 500.216 3337.99 501.627C3357.65 516.09 3352.25 508.549 3365.38 512.152C3360.43 514.763 3365.03 521.525 3381.96 529.643C3392.16 534.299 3391.31 531.521 3398.49 532.78C3400.67 533.176 3407.53 537.14 3409.24 536.614C3414.74 534.843 3408.7 529.613 3426.19 535.802C3426.97 536.064 3424.01 537.175 3426.73 537.953C3439.02 541.322 3444.17 540.494 3452.69 540.502C3456.19 540.42 3460.16 540.249 3465.61 539.513C3479.59 538.629 3504.23 526.855 3518.02 515.512C3521.14 520.139 3533.47 508.107 3535.85 500.664C3544.5 492.95 3553.39 484.02 3561.94 476.581C3564.88 474.021 3564.12 476.931 3564.59 476.715C3571.88 473.464 3573.09 467.342 3574.86 465.506C3594.27 445.915 3613.08 433.286 3636.34 419.615C3637.15 419.189 3637.13 414.857 3645.05 414.947C3645.54 415.008 3637.69 419.482 3649.77 415.558C3657.25 413.293 3669.42 411.629 3681.59 412.506C3689.16 412.984 3696.69 414.009 3703.38 414.808C3707.54 415.22 3718.92 415.148 3726.14 420.522C3727.09 421.229 3725.55 421.805 3726.85 422.951C3731.01 426.643 3735.18 424.232 3739.46 429.765C3743.72 435.289 3753.74 442.925 3769.59 449.69C3770.09 449.909 3775.14 449.352 3779.75 452.205C3787.09 456.744 3797.13 463.791 3804.8 468.504C3808.48 470.762 3807.12 467.705 3807.78 468.069C3833.07 481.993 3849.65 494.952 3879.46 503.686C3885.04 505.381 3901.16 505.217 3912.06 505.75C3923.69 505.813 3914.5 518.021 3938.66 508.816C3939.71 508.336 3940.81 507.8 3941.96 507.2C3953.11 501.206 3959.12 484.933 3976.88 474.64C4002.59 444.083 4013.62 408.486 4032.61 374.695C4033.44 373.186 4033.82 366.693 4036.45 363.336C4040.3 358.395 4043.73 356.843 4046.82 353.705C4058.16 342.364 4070.27 333.28 4084.59 327.222C4086.72 326.325 4088.87 325.498 4091.06 324.748C4097.49 322.645 4095.72 324.809 4103.45 322.769C4111.16 320.934 4116.14 317.756 4127.12 317.642C4135.47 317.652 4143.65 321.653 4154.18 322.741C4154.82 318.609 4162.26 318.881 4175.57 319.806C4178.14 319.995 4175.65 318.117 4176.88 318.133C4181.95 318.184 4186.2 320.234 4190.99 320.43C4192.16 320.482 4192.52 319.092 4193.5 319.063C4201.85 318.692 4213.78 325.462 4215.72 326.685C4223.33 331.256 4227.71 330.796 4233.67 333.802C4239.57 336.836 4229.98 334.464 4237 337.574C4251.55 344.02 4270.31 351.947 4284.83 358.996C4290.61 361.787 4287.49 358.166 4288.34 358.525C4300.58 363.876 4311.68 371.891 4319.97 371.894C4323.65 384.951 4327.57 374.767 4343.53 385.435C4344.79 386.278 4344.33 391.319 4338.85 389.198C4333.47 387.135 4326.42 381.752 4318.81 378.986C4317.03 378.332 4305.4 377.254 4303.98 376.843C4292.83 373.504 4294.42 366.562 4294.05 365.942C4289.66 359.129 4275.64 357.727 4272.37 356.622C4257.33 351.403 4245.3 345.402 4232.54 341.896C4224.2 339.643 4221.94 343.732 4215.68 341.565C4194.91 334.783 4188.3 326.632 4167.04 329.208C4162.5 329.95 4166.37 335.004 4151.27 330.116C4150.39 329.764 4138.74 325.904 4132.24 328.739C4131.43 329.083 4131.56 330.532 4130.49 330.739C4123.37 332.15 4118.46 331.655 4110.92 333.858C4104.56 335.753 4097.46 338.587 4090.45 341.381C4089.18 341.882 4087.94 342.374 4086.73 342.849C4081.96 344.642 4074.8 345.683 4072.27 346.579C4065.06 348.916 4061.18 356.394 4056.44 357.855C4051.52 359.562 4055.47 350.191 4045.68 358.499C4048.19 361.363 4050.44 364.696 4052.9 367.678C4036.23 386.991 4025.49 412.481 4012.56 439.069C4010.93 442.377 4014.45 439.911 4012.71 443.501C4005.25 458.641 3996.1 471.229 3983.58 485.156C3973.98 495.899 3961.55 507.385 3947.65 514.191C3945.79 514.18 3943.6 514.487 3941.13 514.992C3930.01 517.596 3912.11 522.111 3898.31 520.831C3892.47 520.357 3892.99 519.179 3888.99 518.323C3874.24 514.498 3880.53 519.278 3876.26 519.045C3858.04 516.805 3859.44 507.969 3841.6 499.977C3840.64 499.603 3827.17 497.809 3825.51 497.155C3814.87 493.355 3824.65 494.86 3818.82 491.147C3808.23 484.298 3801.49 478.779 3788.53 472.318C3784.74 470.437 3774.73 467.588 3769.01 461.569C3768.25 460.776 3769.54 459.767 3768.85 459.254C3756.35 450.138 3753.59 454.207 3745.3 451.594C3737.06 448.978 3726.74 440.75 3724.58 438.928C3719.08 434.054 3729.91 439.951 3730.32 439.952C3735.57 439.15 3726.58 435.556 3719.79 432.868C3720.44 428.013 3710.37 425.06 3712.71 430.208C3712.98 430.745 3718.48 432.13 3719.79 432.868C3712.09 434.973 3702.18 432.269 3690.99 426.353C3686.62 424.163 3689.59 422.439 3681.15 421.723C3679.3 421.602 3676.91 421.592 3673.84 421.882C3666.09 422.823 3669.41 425.752 3663.11 427.665C3649.04 432.042 3629.76 438.667 3616.38 449.091C3611.61 452.786 3617.39 450.737 3614.19 453.329C3605.76 460.27 3597.43 465.68 3589.49 473.81C3588.77 474.548 3591.87 474.231 3589.29 476.619C3569.69 494.802 3552.54 511.494 3529.32 530.359C3518.35 539.561 3495.92 555.567 3478.49 559.021C3469.9 561.08 3460.02 561.679 3450.31 560.1C3430.52 556.913 3411.03 550.48 3396.26 545.365C3382.59 540.504 3384.84 543.214 3378.6 541.861C3366.3 539.173 3350 524.612 3348.11 522.524C3348.03 522.498 3358.85 528.377 3353.68 524.229C3351.42 520.584 3348.24 522.59 3348.11 522.524C3346.63 521.31 3326.55 507.554 3322.56 505.007C3320.32 503.672 3320.5 505.943 3319.35 505.217C3292.12 487.846 3267.42 469.051 3240.99 454.057C3240.53 453.773 3242.18 452.42 3241.08 451.771C3225.74 442.758 3214.26 440.747 3200.29 437.733C3190.38 435.663 3182.24 433.844 3175.34 431.266C3172.37 430.167 3169.77 428.974 3167.48 427.615C3156.74 426.285 3141.76 424.249 3133.01 424.28C3124.26 424.238 3123.75 428.487 3123.08 428.63C3101.25 435.603 3089.17 439.992 3067.4 454.65C3057.23 461.599 3036.79 478.051 3024.1 486.172C3014.2 492.641 3007.39 495.276 2997.48 500.355C2996.15 501.023 2998.21 501.979 2997.82 502.221C2987.05 508.962 2990.99 502.731 2988.36 503.003C2978.78 503.631 2973.15 504.255 2958.24 508.772C2954.98 509.797 2945.45 517.472 2938.7 518.442C2930.07 519.668 2933.32 517.29 2924.2 518.277C2924.17 518.28 2924.15 518.283 2924.12 518.288C2923.44 518.425 2923.43 519.705 2918.08 519.771C2892.63 520.126 2864.5 516.072 2838.93 508.801C2835.45 507.811 2839.36 511.147 2834.26 509.697C2810.4 502.893 2786.09 491.468 2766.33 480.26C2761.45 477.497 2765.25 477.778 2764.37 476.838C2758.95 471.099 2747.96 469.742 2746.42 469.039C2709.67 452.3 2684.05 436.729 2645.42 433.58C2643.17 433.286 2627.3 436.196 2620.04 432.873C2619.65 432.629 2612.22 429.078 2606.03 431.982C2605.64 432.172 2610.2 433.702 2602.44 434.072C2600.92 434.156 2599.21 434.323 2597.35 434.546C2589.67 435.45 2579.98 437.302 2571.03 437.331C2567.54 437.33 2558.62 435.396 2549.19 440.79C2548.48 441.104 2534.91 451.609 2528.13 449.16C2527.02 448.767 2526.47 443.822 2515.28 450.218C2513.16 451.46 2517.63 451.007 2511.88 453.741C2503.07 457.945 2490.52 461.439 2480.09 468.029C2478.25 469.179 2471.19 475.604 2463.51 476.217C2462.3 476.312 2463.68 474.002 2460.06 475.349C2442.82 481.756 2425.27 490.54 2406.88 496.469C2400.36 498.554 2402.72 494.929 2395.82 496.758C2388.92 498.615 2375.11 502.59 2368.2 505.802C2361.26 509.027 2370.41 510.716 2359.42 514.074C2322.74 525.168 2282.41 527.137 2244.32 520.02C2229.89 517.176 2219.36 512.362 2208.55 507.936C2202.01 505.128 2206.85 508.796 2197.11 504.612C2161.49 488.8 2102.65 462.962 2073.33 449.437C2049.91 438.335 2081.17 447.54 2062.85 439.935C2053.98 436.3 2042.69 437.695 2040.49 437.177C2018.76 432.07 2004.35 426.264 1984.72 423.174C1980.68 422.568 1984.27 425.177 1980.84 424.656C1969.16 422.916 1957.02 420.495 1945.87 419.841C1940.88 419.57 1941.7 421.095 1937.14 420.757C1926.24 420.03 1916.64 419.51 1905.97 418.89C1904.98 418.838 1911.4 416.527 1903.31 417.069C1899.61 417.348 1895.66 417.634 1891.57 418.042C1881.39 419.026 1870.28 421.117 1860.55 425.413C1856.55 427.242 1857.55 430.291 1848.01 431.663C1846.03 432.016 1846.66 427.148 1837.99 435.014C1836.44 436.222 1822.11 449.039 1812.35 451.498C1809.77 452.096 1802.47 452.645 1797.81 456.092C1797.18 456.569 1800.8 456.481 1796.81 459.116C1782.7 468.382 1766.67 477.795 1749.56 485.768C1744.96 487.883 1752.67 486.686 1745.72 489.747C1727.88 497.708 1703.44 502.935 1683.59 503.341C1682.11 503.39 1680.66 503.422 1679.25 503.437C1671.72 503.45 1676.89 501.745 1676.33 501.598C1667.57 499.066 1662.43 502.442 1659.38 502.497C1640.96 502.606 1627.32 498.048 1611.31 493.576C1606.9 492.293 1609.46 494.961 1608.54 494.83C1598.98 493.221 1606.73 492.533 1601.21 490.199C1585.84 483.553 1569.61 475.61 1555.55 468.277C1550.39 465.588 1555.17 470.494 1550.56 468.055C1523.34 453.498 1497.7 438.695 1472.39 429.907C1467.6 428.236 1471.1 427.651 1470.19 427.003C1463.82 422.439 1452.5 423.591 1450.11 423.558C1441.04 423.227 1436.74 422.126 1430.03 421.467C1428.54 421.329 1426.95 421.239 1425.23 421.239C1377.99 416.733 1340.76 464.254 1294.39 497.492C1271.89 512.853 1244.22 520.563 1219.54 519.419C1177.63 519.29 1142.67 496.913 1109.97 485.343C1106.56 484.19 1109.3 487.337 1106.39 486.403C1097.22 483.483 1088.17 481.371 1078.84 480.088C1047.1 475.542 1016.64 474.249 984.297 477.214C980.784 477.512 985.99 479.121 980.371 479.675C970.674 480.653 958.633 481.701 947.862 482.296C945.927 482.399 944.067 482.498 942.299 482.589C936.786 482.902 943.969 480.37 938.388 480.741C925.485 481.624 911.728 483.988 898.753 487.462C893.24 488.954 902.08 488.865 894.89 490.672C855.244 501.081 811.957 517.92 765.629 521.144C755.738 521.967 746.009 522.458 736.013 522.615C732.25 522.66 728.634 518.764 720.663 519.849C720.094 521.013 720.173 522.357 719.947 523.589C639.024 527.524 563.43 507.113 488.149 504.148C484.993 503.997 490.355 506.419 484.235 506.147C478.667 505.911 473.252 505.754 467.68 505.655C436.81 505.13 406.578 504.266 375.335 502.178C371.666 501.946 373.565 498.088 362.732 498.659C360.807 498.744 344.526 499.375 340.333 500.309C339.763 500.446 342.766 502.184 337.517 502.333C322.426 502.756 306.974 503.289 291.45 503.87C275.901 504.455 260.167 505.286 244.766 506.065C239.837 506.315 244.905 503.953 241.388 504.117C216.419 505.304 189.477 509.607 165.5 510.602C149.458 511.274 154.949 507.321 146.098 505.093C144.935 504.766 134.887 505.909 134.276 504.083C132.4 499.522 136.478 493.776 133.904 488.984C133.377 487.94 120.197 490.777 127.798 487.164C128.338 486.914 137.831 484.868 140.09 483.699C141.696 482.883 138.443 481.336 141.77 480.139C145.023 478.954 148.94 480.112 154.456 478.534C159.876 476.96 157.206 475.055 168.366 473.533ZM3094.03 430.572C3085.63 432.584 3087.76 439.087 3094.92 433.776C3095.26 433.521 3094.45 430.475 3094.03 430.572ZM4020.23 410.463C4012.71 419.644 4013.29 428.769 4018.83 422.27C4024.34 415.785 4022.52 407.69 4020.23 410.463ZM4096.38 329.174C4091.02 329.925 4088.08 332.267 4087.42 334.067C4087.02 335.135 4087.39 336.031 4088.41 336.451C4089.91 337.075 4092.76 336.672 4096.99 334.525C4097.68 334.178 4097.14 329.069 4096.38 329.174ZM185.344 499.692C185.168 499.619 178.129 500.303 177.92 500.416C174.369 502.956 188.604 501.569 185.344 499.692ZM4211.34 330.505C4207.69 328.019 4195.6 326.472 4200.25 329.32C4203.97 331.545 4215.86 333.51 4211.34 330.505ZM2665.09 419.073C2664.98 418.936 2659.99 417.914 2659.99 418.502C2660.04 420.336 2666.99 421.161 2665.09 419.073ZM4395.18 414.054C4367.06 402.61 4355.27 386.445 4383.7 401.465C4388.9 404.043 4371.21 398.419 4377.7 402.243C4389.73 409.032 4399.64 408.846 4411.79 412.443C4412.92 412.665 4409.7 414.128 4405.35 414.466C4400.82 414.815 4396.11 414.397 4395.13 414.048C4395.15 414.05 4395.16 414.052 4395.18 414.054ZM3086.05 425.457C3085.83 425.42 3079.53 428.71 3079.44 428.904C3077.16 432.567 3089.65 426.011 3086.05 425.457ZM2377.64 484.063C2377.22 484.083 2361.6 488.841 2361.11 489.075C2353.88 495.011 2385.8 485.379 2377.64 484.063ZM3518.33 515.452C3522.87 509.051 3529.5 502.824 3535.82 500.686C3530.13 505.705 3524.29 510.815 3518.33 515.452Z" fill="black"/>
<path d="M577.239 466.487C580.75 467.237 585.021 470.292 588.869 471.632C604.858 477.204 609.885 480.223 623.166 484.194C642.036 492.569 703.949 487.135 705.721 497.232C705.721 497.232 705.721 497.233 705.721 497.233C705.734 497.343 705.74 497.454 705.739 497.568C705.733 499.738 700.355 502.666 699.782 505.149C699.114 507.637 701.593 523.217 693.036 524.783C680.959 527.277 651.268 522.833 644.802 521.903C640.234 521.576 634.53 522.284 628.744 521.528C610.073 518.927 600.98 514.763 584.513 513.558C579.037 509.632 573.799 505.754 568.469 501.977C560.499 500.447 549.561 494.773 544.716 493.872C540.835 493.116 538.179 494.204 534.144 493.503C529.537 492.718 522.895 489.801 514.344 489.032C500.393 487.875 497.684 492.055 489.331 492.091C483.214 492.164 474.762 490.857 466.097 490.766C462.53 490.726 458.953 490.813 455.625 491.194C454.165 491.638 452.683 492.077 451.23 492.514C452.247 493.579 453.285 494.643 454.319 495.705C448.435 496.101 445.959 493.896 440.612 493.717C434.315 493.495 431.042 495.415 426.825 495.258C423.356 495.126 418.751 493.319 414.293 493.243C407.787 493.123 409.118 495.532 405.611 495.83C404.177 495.935 378.551 496.209 377.152 496.206C366.253 495.932 365.409 492.688 356.753 492.206C332.758 490.906 308.414 493.842 287.29 496.836C277.844 498.157 268.094 499.254 258.866 500.436C272.138 489.579 238.19 489.566 252.987 499.79C250.145 499.869 247.581 500.337 245.222 501.004C238.792 502.827 233.266 506.14 225.771 507.756C219.069 509.202 214.056 508.759 204.46 511.394C187.565 516.13 169.123 525.442 162.191 517.364C141.652 523.206 122.705 521.385 114.763 529.606C108.835 530.417 93.6374 524.956 87.0898 523.055C83.0214 522.323 56.598 515.728 42.7927 500.845C33.8808 491.258 33.6676 484.481 32.5886 482.108C29.9426 473.682 28.5737 460.373 27.4778 454.233C26.0885 446.589 17.3834 440.885 27.3657 427.254C26.8852 411.423 27.5335 405.831 29.6952 391.43C30.0994 388.832 31.5827 388.639 31.706 387.115C31.9573 383.984 31.3401 378.529 31.7521 372.927C32.4305 363.738 36.1041 358.805 31.3146 359.332C31.2116 353.089 31.1314 347.096 31.1303 340.842C32.2889 338.909 33.4777 336.788 34.6516 334.828C34.0948 331.509 33.5457 328.225 33.0422 324.72C39.1875 329.507 38.5991 306.15 33.6397 312.965C34.1634 311.107 34.73 309.005 35.2772 307.124L35.1173 308.374C37.1493 298.968 39.2017 289.26 41.2296 279.784C48.7689 282.203 44.4169 254.264 40.0165 256.297C40.1407 254.976 40.266 253.642 40.3924 252.294C43.4756 240.834 42.751 230.013 45.3671 215.965C47.9812 201.908 48.6098 203.315 52.5249 199.302C52.6135 195.925 52.6944 192.626 52.782 189.234C44.5664 170.902 61.1563 175.395 56.1377 144.849C60.2993 139.507 61.6167 127.643 61.2103 117.269C61.1654 114.367 62.6113 112.041 63.822 110.768C63.9768 110.601 64.1372 110.439 64.2856 110.297C64.3807 110.203 64.4756 110.113 64.5703 110.026C64.7596 109.851 64.9479 109.688 65.1349 109.534C65.5092 109.227 65.8784 108.956 66.2453 108.708C66.9633 108.22 67.7565 107.78 68.3999 107.449C68.9017 107.18 69.4116 106.928 69.9346 106.686C72.2016 105.669 73.9332 105.032 75.8353 104.367C79.5284 103.089 83.1112 102.057 85.965 101.234C87.8034 100.726 87.6642 99.541 90.2384 98.8006C96.1482 96.9976 111.812 96.9455 110.861 93.2124C116.483 93.787 121.68 94.4579 127.148 95.1404C131.326 94.1134 135.785 93.0904 139.964 92.1062C139.861 90.9142 139.757 89.7222 139.654 88.5302C148.765 91.9817 162.183 89.632 169.061 90.2501C170.41 90.3769 170.775 92.0077 174.959 92.2443C179.871 92.5261 188.898 91.6078 194.729 91.8695C196.903 89.9437 199.081 88.0201 201.257 86.0987C211.622 84.6738 215.41 89.3643 221.546 89.51C222.625 89.5241 242.587 88.4918 243.71 88.3634C252.397 87.2822 249.856 83.2042 275.432 83.4003C279.826 83.4464 283.749 84.7727 287.771 84.7352C294.073 84.6702 312.09 81.7742 317.178 79.0521L316.626 79.0684C317.275 78.6996 317.715 78.3377 317.895 77.9904C326.821 81.3366 350.205 78.794 357.159 79.5707C359.258 79.8112 359.831 82.1648 366.261 82.3917C371.473 82.5779 384.769 80.0956 391.371 80.1274C398.379 80.1699 400.963 82.0557 404.103 82.0605C407.069 82.063 409.728 80.3344 413.762 80.1684C426.358 79.6772 437.874 81.773 447.83 81.3881C462.227 80.8374 474.736 75.5181 486.688 72.8783C489.69 73.0574 492.672 73.9529 495.807 73.826C534.584 72.2909 578.359 71.2683 617.29 70.599C632.82 70.3276 668.361 73.6263 670.155 68.0406C679.288 67.804 686.461 74.3658 686.301 83.5C686.627 83.5361 686.989 83.5384 687.39 83.5C687.561 73.7231 679.883 66.6995 670.108 66.9527C669.858 66.2541 669.204 65.4504 668.086 64.5272C668.527 64.3731 669.169 64.2419 669.985 64.1312C681.427 63.8348 690.415 72.056 690.214 83.5C691.194 94.1274 687.432 134.136 687.371 142.197C687.306 150.887 689.244 157.771 689.272 164.598C689.343 181.785 688.381 194.779 689.043 213.139C689.174 216.72 689.369 220.615 689.648 224.751C690.089 231.214 692.384 238.173 692.357 242.003C692.32 246.621 690.1 251.6 689.959 257.579C689.64 271.847 690.37 298.447 689.986 312.111C689.911 314.625 687.962 315.521 687.353 319.059C684.972 333.044 685.178 348.532 691.402 345.834C688.527 360.35 690.125 373.951 690.927 387.419C690.727 398.788 682.195 407.719 670.827 407.519C670.792 407.599 669.092 407.774 667.926 407.94C666.503 408.121 665.171 408.293 663.651 408.462C649.858 410.021 630.363 412.263 610.049 413.692C599.824 414.395 589.386 414.954 578.664 414.833C573.28 414.743 567.879 414.55 561.682 413.62C558.387 413.075 555.242 412.529 550.711 410.781C548.597 409.935 545.735 408.608 542.734 406.24C539.412 403.633 535.33 399.003 533.695 392.364C531.291 383.459 530.342 375.472 529.679 369.118C527.847 347.359 526.297 347.097 529.692 320.977C530.095 317.557 530.495 314.195 530.795 310.591C530.988 308.021 531.165 305.23 531.31 302.269C532.15 284.773 536.294 268.198 529.204 255.148C529.501 235.444 527.133 219.898 531.229 204.851C529.818 203.254 528.402 201.612 526.989 200.017C526.757 197.623 526.52 195.205 526.282 192.807C527.433 192.006 528.572 191.071 529.719 190.227C529.464 186.461 528.921 182.388 528.231 178.473L556.255 189.045C547.214 199.098 538.432 211.172 530.89 219.102C530.248 219.776 529.62 220.418 529.002 221.025C511.701 237.025 468.909 283.891 450.085 299.702C445.07 304.091 443.028 306.753 440.915 308.55C439.141 310.038 437.269 310.839 433.121 311.367C431.455 313.563 429.801 315.773 428.17 317.977C427.815 320.018 427.454 322.073 427.114 324.111C416.233 335.437 402.012 348.057 391.23 359.152C385.708 364.825 379.543 371.468 372.411 378.432C368.782 381.939 365.032 385.488 360.198 389.211C357.758 391.047 355.129 392.976 351.146 394.923C348.984 395.916 346.575 397.014 342.397 397.606C338.508 398.299 329.882 397.51 324.18 391.646L325.211 392.592C313.2 382.859 301.903 372.94 293.371 363.97C288.498 358.846 283.646 351.117 278.582 346.437C271.228 339.618 266.67 340.861 257.394 332.04C244.57 319.831 225.486 296.512 211.836 278.63C208.577 274.374 205.527 270.552 202.839 267.456C198.822 262.824 195.842 261.576 193 258.394C181.09 245.027 171.912 233.466 159.763 220.173C152.072 202.064 157.539 200.649 158.832 193.17C159.698 187.39 161.746 171.926 164.267 169.13C165.908 167.116 170.451 169.907 172.093 167.335C182.294 183.833 185.409 191.851 192.397 207.834C205.38 225.319 219.971 242.303 234.554 259.502C240.807 266.854 247.506 274.119 254.366 281.261C255.35 284.319 256.392 287.412 257.43 290.476C257.428 290.478 257.426 290.48 257.424 290.482C264.948 300.471 271.287 301.603 276.624 305.681C296.024 320.446 321.28 342.504 348.165 365.568C348.375 365.74 348.965 366.295 349.161 366.482C347.272 364.539 344.35 363.11 342.165 362.703C339.812 362.249 338.639 362.447 337.745 362.57C336.231 362.861 336.315 363.002 336.593 362.84C337.29 362.52 338.934 361.491 340.598 360.257C343.974 357.77 347.764 354.492 351.487 351.107C358.968 344.284 366.557 336.742 374.041 329.256C389.07 314.202 403.807 299.015 418.452 285.416C429.805 274.94 439.885 264.859 448.565 255.662C458.733 244.811 491.435 205.797 501.022 200.07C503.404 198.524 505.472 199.506 507.633 197.507C507.967 197.144 508.304 196.779 508.643 196.414C517.702 186.646 526.79 177.108 535.941 167.545C544.668 159.074 556.401 163.653 557.684 175.747C559.407 187.957 561.054 200.284 562.643 212.556C563.149 244.468 565.672 276.821 567.234 309.591C568.441 333.122 564.777 356.026 566.76 374.354C567.121 377.674 567.677 380.858 568.462 383.933C567.583 380.322 565.34 378.553 564.756 378.142C564.032 377.647 564.114 377.777 564.501 377.882C565.24 378.127 567.118 378.512 568.921 378.721C572.767 379.19 577.309 379.329 581.895 379.307C591.157 379.248 600.765 378.592 610.416 377.754C630.273 376.138 647.581 373.205 670.827 371.466L654.874 387.419C654.33 329.172 653.86 271.017 653.628 213.139C653.458 170.62 653.417 128.122 653.57 85.7619C653.572 85.0152 653.574 84.1493 653.574 83.5L671.576 100.736C644.32 101.909 610.501 104.879 584.151 105.011C572.844 105.071 567.99 101.82 553.273 105.04C553.077 104.115 552.881 103.191 552.684 102.267C539.792 103.953 531.614 106.431 517.114 107.277C504.903 107.986 472.583 109.529 461.771 109.642C456.163 109.708 458.173 107.878 452.953 108.114C444.016 108.53 425.022 111.765 412.688 112.301C401.515 112.787 382.592 111.602 374.014 112.265C356.126 113.64 337.341 115.706 318.289 117.325C318.186 117.331 317.876 117.337 317.773 117.34C304.096 118.144 290.009 118.795 276.261 118.813C267.052 118.822 255.468 116.903 252.558 117.057C246.927 117.36 245.473 119.602 241.691 120.006C222.785 122.029 193.18 120.597 174.665 121.476C157.345 122.278 139.724 123.346 122.202 124.892C113.458 125.673 104.804 126.558 96.3109 127.736C92.1845 128.314 87.9772 128.984 84.2914 129.77C83.4898 129.941 82.462 130.176 81.6643 130.381C80.8238 130.599 80.3065 130.746 79.6379 130.964C79.3539 131.058 79.1567 131.134 79.0706 131.17C79.0037 131.196 78.9423 131.241 79.2774 131.075C79.6012 130.901 80.2697 130.57 81.4143 129.603C82.4852 128.755 86.9273 124.408 86.9181 117.269C85.5443 146.41 83.0795 171.299 80.767 197.255C77.8831 228.295 73.8412 276.001 69.7949 311.544C69.7764 311.795 69.672 312.541 69.6354 312.79C68.2325 320.341 66.9125 327.906 65.7342 334.248C64.3776 341.647 62.2472 339.453 61.4596 345.616C60.5839 352.597 61.7693 356.543 61.5321 359.786C59.6043 382.363 57.7544 432.085 58.1597 451.848C58.1176 455.691 56.5377 458.541 56.8269 460.77C56.9638 461.823 58.5759 464.304 59.3165 467.375C60.5438 473.463 63.7572 479.239 63.4887 478.26C76.2423 489.314 95.1906 492.893 119.329 491.954C155.493 490.39 194.666 477.188 236.789 465.921C266.559 458.569 296.608 456.445 324.872 456.496C340.115 456.554 350.378 460.53 352.491 460.512C357.127 460.522 360.158 458.065 369.563 457.721C399.158 456.653 437.769 461.177 466.097 460.299C467.86 460.253 469.567 460.205 471.217 460.153C486.204 459.606 506.987 457.638 522.363 459.078C534.595 459.754 562.395 467.393 567.823 467.781C571.238 467.873 573.354 465.667 577.239 466.487ZM193.649 512.078C194.632 507.419 174.238 516.107 182.756 516.43C184.718 516.516 193.427 513.309 193.649 512.078ZM548.022 79.1475C547.773 77.9201 547.524 76.6928 547.275 75.4655C544.494 76.1016 541.713 76.7376 538.933 77.3737C540.54 78.0481 542.148 78.7226 543.756 79.397C545.178 79.3138 546.6 79.2307 548.022 79.1475Z" fill="url(#paint0_linear_863_7)"/>
<defs>
<linearGradient id="paint0_linear_863_7" x1="41" y1="538" x2="4410" y2="538" gradientUnits="userSpaceOnUse">
<stop/>
<stop offset="1" stop-opacity="0"/>
</linearGradient>
</defs>
</svg>
