<svg width="4566" height="1140" viewBox="0 0 4566 1140" fill="none" xmlns="http://www.w3.org/2000/svg">
<path d="M84 921C84 921 188.824 838.393 265.5 844.5C368.931 852.739 356.596 1016.93 460 1025.5C573.907 1034.94 575.704 843.819 690 844.5C791.813 845.107 804.967 1003.1 906 990.5C991.962 979.784 989.637 868.056 1073 844.5C1211.16 805.459 1263.71 1087.92 1393 1025.5C1470.46 988.105 1434.96 864.996 1518.5 844.5C1633.09 816.387 1588.93 1071.06 1706.5 1081C1832.99 1091.7 1802.61 840.939 1929.5 844.5C2037.28 847.526 2031.57 1008.24 2138 1025.5C2270.6 1047 2299.33 815.529 2430.5 844.5C2517.26 863.664 2516.9 978.971 2605 990.5C2710.33 1004.28 2728.32 841.548 2834.5 844.5C2936.28 847.33 2948.69 989.108 3050.5 990.5C3154.42 991.922 3170.3 828.568 3273 844.5C3368.17 859.264 3346.08 1006.52 3440.5 1025.5C3558.82 1049.29 3570.36 841.151 3691 844.5C3795.05 847.389 3809.95 993.336 3914 990.5C3982.1 988.644 4074 921 4074 921" stroke="#C0C4E9" stroke-width="33" stroke-linecap="round" stroke-linejoin="round"/>
<path d="M4411 586.5L4389.5 848.5L4166.5 761.5L4411 586.5Z" fill="#C0C4E9"/>
<path d="M4192 716.5L4398 558.5L4104.5 80L3809.5 269.5L4192 716.5Z" fill="#C8C4FF"/>
<path d="M138 899.5C138 899.5 242.824 816.892 319.5 823C422.931 831.239 410.596 995.426 514 1004C627.907 1013.44 629.704 822.318 744 823C845.813 823.607 858.967 981.595 960 969C1045.96 958.284 1043.64 846.556 1127 823C1265.16 783.959 1317.71 1066.42 1447 1004C1524.46 966.604 1488.96 843.495 1572.5 823C1687.09 794.886 1642.93 1049.56 1760.5 1059.5C1886.99 1070.2 1856.61 819.438 1983.5 823C2091.28 826.025 2085.57 986.738 2192 1004C2324.6 1025.5 2353.33 794.028 2484.5 823C2571.26 842.163 2570.9 957.471 2659 969C2764.33 982.783 2782.32 820.048 2888.5 823C2990.28 825.83 3002.69 967.607 3104.5 969C3208.42 970.422 3224.3 807.068 3327 823C3422.17 837.764 3400.08 985.016 3494.5 1004C3612.82 1027.79 3624.36 819.65 3745 823C3849.05 825.889 3863.95 971.836 3968 969C4036.1 967.144 4128 899.5 4128 899.5H4427.5V697.5L4030.5 84.5L3745 259L4225.5 823" stroke="black" stroke-width="33" stroke-linecap="round" stroke-linejoin="round"/>
<path d="M4393.5 756.5V853L4305 814L4393.5 756.5Z" fill="black"/>
</svg>
