<svg width="5635" height="818" viewBox="0 0 5635 818" fill="none" xmlns="http://www.w3.org/2000/svg">
<path d="M3213.28 670.746C3251.61 685.444 3471.07 721.04 3576 737L3491.31 151.848C3386.56 105.452 3168.6 19.897 3134.72 48.8483C3092.37 85.0375 3165.36 652.373 3213.28 670.746Z" fill="#96A8E6"/>
<path d="M3850.62 51.7445C3802.56 70.887 3625.51 180.659 3543 233.153L3627.55 818C3726.01 781.83 3928.94 697.358 3952.97 648.834C3983.01 588.179 3910.7 27.8164 3850.62 51.7445Z" fill="#B0BCE5"/>
<path d="M3817.44 16.7445C3769.3 35.887 3591.97 145.659 3509.32 198.153C3404.57 151.781 3186.6 66.2701 3152.72 95.2064C3110.37 131.377 3183.36 698.417 3231.28 716.78C3269.62 731.471 3489.07 767.048 3594.01 783C3692.63 746.83 3895.89 662.358 3919.96 613.834C3950.05 553.179 3877.61 -7.18358 3817.44 16.7445Z" stroke="#797D9A" stroke-width="31"/>
<path d="M4130.44 222.406C4168.79 183.839 4263.14 196.501 4292.84 222.406C4322.54 248.311 4316.75 388.919 4292.84 407.421C4262.95 430.547 4130.44 407.421 4104.09 384.294C4077.75 361.167 4103.12 249.878 4130.44 222.406Z" stroke="#797D9A" stroke-width="42"/>
<path d="M2486.85 515.922C2545.91 483.05 2932.43 526.19 2965.47 548.794C3007.82 577.766 2859.72 749.704 2815.59 773.327C2760.43 802.856 2284.59 763.855 2258.4 743.798C2232.21 723.74 2427.78 548.794 2486.85 515.922Z" stroke="#797D9A" stroke-width="31"/>
<path d="M5628 473C5091.57 533.495 4553.17 548.905 4011.22 548.905C2984.16 548.905 1957.11 555.806 930.118 555.806C768.24 555.806 599.69 563.772 440.074 538.555C414.036 534.441 387.759 529.348 361.477 527.82C243.671 520.971 125.181 507.502 7 507.502" stroke="url(#paint0_linear)" stroke-width="13" stroke-linecap="round" stroke-linejoin="round"/>
<defs>
<linearGradient id="paint0_linear" x1="5628" y1="556.998" x2="6.99994" y2="556.994" gradientUnits="userSpaceOnUse">
<stop stop-color="#797D9A" stop-opacity="0"/>
<stop offset="0.119792" stop-color="#797D9A"/>
<stop offset="0.78125" stop-color="#797D9A"/>
<stop offset="1" stop-color="#797D9A" stop-opacity="0"/>
</linearGradient>
</defs>
</svg>
