<svg width="4687" height="1054" viewBox="0 0 4687 1054" fill="none" xmlns="http://www.w3.org/2000/svg">
<path d="M126 628.5C126 628.5 230.824 545.893 307.5 552C410.931 560.239 398.596 724.427 502 733C615.907 742.445 617.704 551.319 732 552C833.813 552.607 846.967 710.595 948 698C1033.96 687.284 1031.64 575.556 1115 552C1253.16 512.959 1305.71 795.42 1435 733C1512.46 695.605 1476.96 572.496 1560.5 552C1675.09 523.887 1630.93 778.556 1748.5 788.5C1874.99 799.2 1844.61 548.439 1971.5 552C2079.28 555.026 2073.57 715.739 2180 733C2312.6 754.505 2341.33 523.029 2472.5 552C2559.26 571.164 2558.9 686.471 2647 698C2752.33 711.783 2770.32 549.048 2876.5 552C2978.28 554.83 2990.69 696.608 3092.5 698C3196.42 699.422 3212.3 536.068 3315 552C3410.17 566.764 3388.08 714.017 3482.5 733C3600.82 756.79 3612.36 548.651 3733 552C3837.05 554.889 3851.95 700.836 3956 698C4024.1 696.144 4116 628.5 4116 628.5" stroke="#C8C4FF" stroke-width="30" stroke-linecap="round" stroke-linejoin="round"/>
<path d="M4440 415.5V577L4289.5 518L4440 415.5Z" fill="#C0C4E9"/>
<path d="M4308.5 476.5L4474 356L4243 40L4038 188L4308.5 476.5Z" fill="#C8C4FF"/>
<path d="M170.716 595.219C164.209 600.346 163.091 609.778 168.219 616.284C173.346 622.791 182.778 623.909 189.284 618.781L170.716 595.219ZM361.5 530.5L360.309 545.453L361.5 530.5ZM556 711.5L554.761 726.449L556 711.5ZM786 530.5L786.089 515.5L786 530.5ZM1002 676.5L1000.14 661.615L1002 676.5ZM1169 530.5L1173.08 544.935L1169 530.5ZM1489 711.5L1482.48 697.992L1489 711.5ZM1614.5 530.5L1618.07 545.068L1614.5 530.5ZM1802.5 767L1801.24 781.947L1802.5 767ZM2025.5 530.5L2025.92 515.506L2025.5 530.5ZM2234 711.5L2236.4 696.693L2234 711.5ZM2526.5 530.5L2523.26 545.147L2526.5 530.5ZM2701 676.5L2702.95 661.627L2701 676.5ZM2930.5 530.5L2930.08 545.494L2930.5 530.5ZM3146.5 676.5L3146.29 691.499L3146.5 676.5ZM3369 530.5L3366.7 545.323L3369 530.5ZM3536.5 711.5L3539.46 696.794L3536.5 711.5ZM3787 530.5L3787.42 515.506L3787.42 515.506L3787 530.5ZM4010 676.5L4009.59 661.506L4010 676.5ZM4170 607L4173.85 621.497L4173.85 621.497L4170 607ZM4469.5 607L4467.11 621.809L4484.5 624.609V607H4469.5ZM4469.5 425H4484.5C4484.5 421.631 4483.37 418.361 4481.28 415.715L4469.5 425ZM4170 45L4181.78 35.7149C4176.9 29.524 4168.06 28.1661 4161.55 32.6066L4170 45ZM3972 180L3963.55 167.607C3959.94 170.071 3957.58 173.991 3957.09 178.338C3956.61 182.686 3958.05 187.029 3961.03 190.229L3972 180ZM4298.53 552.229C4304.18 558.288 4313.67 558.621 4319.73 552.971C4325.79 547.322 4326.12 537.83 4320.47 531.771L4298.53 552.229ZM180 607C189.284 618.781 189.283 618.783 189.281 618.784C189.281 618.784 189.28 618.785 189.28 618.785C189.28 618.785 189.282 618.783 189.285 618.781C189.292 618.775 189.305 618.765 189.324 618.75C189.362 618.72 189.426 618.671 189.513 618.603C189.689 618.466 189.962 618.255 190.328 617.974C191.061 617.411 192.167 616.57 193.615 615.491C196.512 613.333 200.768 610.23 206.127 606.512C216.862 599.065 231.931 589.214 249.282 579.571C284.825 559.821 326.767 542.781 360.309 545.453L362.691 515.547C319.557 512.112 270.749 533.322 234.71 553.348C216.272 563.594 200.343 574.013 189.026 581.864C183.36 585.795 178.828 589.098 175.693 591.433C174.124 592.602 172.904 593.529 172.064 594.174C171.644 594.496 171.319 594.748 171.093 594.924C170.98 595.012 170.891 595.081 170.828 595.13C170.797 595.155 170.772 595.175 170.753 595.189C170.743 595.197 170.736 595.203 170.729 595.208C170.726 595.21 170.723 595.213 170.721 595.214C170.718 595.217 170.716 595.219 180 607ZM360.309 545.453C402.489 548.812 421.792 582.961 445.494 627.875C467.33 669.252 493.556 721.374 554.761 726.449L557.239 696.551C515.041 693.052 495.732 658.794 472.026 613.874C450.187 572.49 423.941 520.426 362.691 515.547L360.309 545.453ZM554.761 726.449C588.21 729.222 613.664 716.975 634.09 698.133C653.821 679.931 669.331 655.102 683.586 632.217C698.341 608.53 711.882 586.698 728.365 570.531C744.296 554.906 762.219 545.358 785.911 545.5L786.089 515.5C752.632 515.301 727.47 529.389 707.359 549.113C687.8 568.295 672.342 593.526 658.122 616.355C643.403 639.986 629.962 661.125 613.749 676.082C598.23 690.398 580.744 698.5 557.239 696.551L554.761 726.449ZM785.911 545.5C828.088 545.751 852.44 577.85 882.315 617.48C909.936 654.122 943.53 698.905 1003.86 691.385L1000.14 661.615C959.436 666.69 935.937 638.777 906.271 599.421C878.857 563.055 845.726 515.856 786.089 515.5L785.911 545.5ZM1003.86 691.385C1054.57 685.063 1078.83 648.138 1099.11 616.391C1120.4 583.071 1137.83 554.896 1173.08 544.935L1164.92 516.065C1116.81 529.66 1093.71 569.127 1073.83 600.239C1052.95 632.924 1035.4 657.221 1000.14 661.615L1003.86 691.385ZM1173.08 544.935C1201.75 536.833 1226.15 544.906 1250.04 563.038C1274.63 581.701 1296.98 609.731 1320.63 639.165C1343.55 667.667 1367.98 697.881 1395.48 716.486C1409.51 725.98 1424.96 732.909 1442.02 734.938C1459.24 736.983 1477.06 733.92 1495.52 725.008L1482.48 697.992C1468.62 704.685 1456.52 706.449 1445.57 705.148C1434.47 703.829 1423.52 699.237 1412.29 691.638C1389.26 676.057 1367.67 649.801 1344.02 620.37C1321.11 591.871 1296.33 560.507 1268.17 539.14C1239.32 517.24 1205.33 504.647 1164.92 516.065L1173.08 544.935ZM1495.52 725.008C1541.34 702.886 1553.15 655.071 1563.85 618.919C1575.46 579.706 1585.67 553.017 1618.07 545.068L1610.93 515.932C1559.79 528.478 1545.98 573.592 1535.09 610.406C1523.29 650.281 1514.12 682.718 1482.48 697.992L1495.52 725.008ZM1618.07 545.068C1629.85 542.18 1638.27 543.188 1644.73 545.964C1651.36 548.811 1657.48 554.193 1663.33 562.696C1675.5 580.386 1683.79 607.298 1692.99 638.694C1701.81 668.813 1711.37 702.639 1726.62 729.337C1742.22 756.65 1765.17 778.896 1801.24 781.947L1803.76 752.053C1781.05 750.132 1765.43 736.815 1752.67 714.459C1739.55 691.489 1730.94 661.54 1721.78 630.262C1712.99 600.262 1703.5 568.156 1688.04 545.693C1680.08 534.118 1669.93 524.14 1656.58 518.401C1643.06 512.592 1627.8 511.792 1610.93 515.932L1618.07 545.068ZM1801.24 781.947C1839.09 785.149 1865.48 768.197 1884.74 743.219C1903.21 719.26 1915.98 686.847 1927.8 656.941C1940.06 625.937 1951.4 597.326 1966.95 576.402C1981.86 556.34 1999.52 544.777 2025.08 545.494L2025.92 515.506C1988.03 514.442 1961.91 532.889 1942.87 558.509C1924.48 583.266 1911.72 616.009 1899.9 645.912C1887.64 676.915 1876.36 704.963 1860.98 724.901C1846.4 743.82 1829.16 754.201 1803.76 752.053L1801.24 781.947ZM2025.08 545.494C2069.62 546.744 2091.3 579.407 2117.36 623.316C2141.77 664.461 2170.26 716.358 2231.6 726.307L2236.4 696.693C2191.31 689.38 2169.43 652.29 2143.16 608.006C2118.52 566.487 2089.16 517.281 2025.92 515.506L2025.08 545.494ZM2231.6 726.307C2269.83 732.507 2300.59 720.17 2326.42 700.049C2351.57 680.451 2372.86 652.789 2392.62 627.417C2412.99 601.26 2431.79 577.465 2453.07 561.612C2473.55 546.353 2495.58 539.031 2523.26 545.147L2529.74 515.853C2491.84 507.483 2461.08 518.231 2435.15 537.554C2410 556.283 2388.74 583.58 2368.95 608.983C2348.56 635.171 2329.6 659.534 2307.98 676.384C2287.02 692.712 2264.47 701.246 2236.4 696.693L2231.6 726.307ZM2523.26 545.147C2559.82 553.221 2578.35 581.041 2600.77 614.681C2622.12 646.725 2647.44 684.619 2699.05 691.373L2702.95 661.627C2666.46 656.852 2647.91 631.327 2625.73 598.045C2604.61 566.358 2579.94 526.942 2529.74 515.853L2523.26 545.147ZM2699.05 691.373C2761.27 699.515 2797.24 654.238 2827.13 616.943C2859.29 576.83 2885.73 544.261 2930.08 545.494L2930.92 515.506C2869.09 513.787 2833.44 561.109 2803.72 598.179C2771.75 638.069 2746.06 667.268 2702.95 661.627L2699.05 691.373ZM2930.08 545.494C2972.95 546.686 2997.38 576.372 3026.74 613.364C3054.52 648.362 3087.26 690.691 3146.29 691.499L3146.71 661.501C3103.94 660.916 3079.56 631.66 3050.24 594.714C3022.49 559.761 2989.83 517.144 2930.92 515.506L2930.08 545.494ZM3146.29 691.499C3176.75 691.915 3200.6 680.081 3220.31 663.535C3239.52 647.404 3255.5 626.14 3270.09 607.214C3285.2 587.597 3298.86 570.437 3314.47 558.829C3329.36 547.758 3345.64 542.055 3366.7 545.323L3371.3 515.677C3341.01 510.979 3316.79 519.721 3296.57 534.754C3277.08 549.249 3261.01 569.85 3246.33 588.903C3231.11 608.646 3217.22 626.959 3201.02 640.558C3185.31 653.744 3168.21 661.796 3146.71 661.501L3146.29 691.499ZM3366.7 545.323C3404.97 551.26 3420.43 582.847 3439.32 625.493C3456.73 664.798 3477.48 714.934 3533.54 726.206L3539.46 696.794C3501.1 689.083 3485.69 656.101 3466.75 613.342C3449.28 573.925 3428.2 524.504 3371.3 515.677L3366.7 545.323ZM3533.54 726.206C3568.27 733.187 3595.65 722.843 3618.12 704.372C3639.71 686.622 3657.19 661.003 3673.32 637.043C3690.01 612.259 3705.47 588.917 3723.87 571.652C3741.74 554.875 3761.43 544.796 3786.58 545.494L3787.42 515.506C3752.25 514.529 3725.25 529.212 3703.34 549.775C3681.94 569.851 3664.5 596.429 3648.44 620.287C3631.82 644.97 3616.68 666.716 3599.07 681.196C3582.33 694.956 3563.89 701.708 3539.46 696.794L3533.54 726.206ZM3786.58 545.494C3830.67 546.718 3856.24 577.526 3886.87 615.122C3915.85 650.684 3950 693.141 4010.41 691.494L4009.59 661.506C3965.95 662.695 3940.62 633.596 3910.13 596.172C3881.29 560.781 3847.39 517.171 3787.42 515.506L3786.58 545.494ZM4010.41 691.494C4048.65 690.452 4075.05 675.609 4098.96 660.23C4123.07 644.723 4143.75 629.493 4173.85 621.497L4166.15 592.503C4130.41 601.999 4105.14 620.59 4082.73 634.997C4060.13 649.531 4039.45 660.692 4009.59 661.506L4010.41 691.494ZM4173.85 621.497C4227.9 607.139 4300.73 606.972 4361.22 610.71C4391.22 612.564 4417.76 615.347 4436.78 617.667C4446.29 618.826 4453.91 619.867 4459.14 620.616C4461.75 620.991 4463.76 621.292 4465.12 621.498C4465.79 621.601 4466.3 621.681 4466.64 621.733C4466.8 621.76 4466.93 621.779 4467.01 621.792C4467.05 621.799 4467.08 621.803 4467.1 621.806C4467.1 621.807 4467.11 621.808 4467.11 621.809C4467.12 621.809 4467.12 621.809 4467.12 621.809C4467.12 621.809 4467.11 621.809 4469.5 607C4471.89 592.191 4471.88 592.19 4471.88 592.19C4471.88 592.19 4471.87 592.189 4471.87 592.188C4471.86 592.187 4471.85 592.185 4471.84 592.183C4471.81 592.179 4471.77 592.172 4471.72 592.164C4471.62 592.149 4471.48 592.126 4471.29 592.096C4470.91 592.037 4470.36 591.951 4469.64 591.842C4468.21 591.623 4466.1 591.308 4463.4 590.92C4457.98 590.144 4450.15 589.074 4440.41 587.887C4420.95 585.514 4393.8 582.666 4363.07 580.767C4302.06 576.997 4225.14 576.83 4166.15 592.503L4173.85 621.497ZM4484.5 607V425H4454.5V607H4484.5ZM4481.28 415.715L4181.78 35.7149L4158.22 54.2851L4457.72 434.285L4481.28 415.715ZM4161.55 32.6066L3963.55 167.607L3980.45 192.393L4178.45 57.3934L4161.55 32.6066ZM3961.03 190.229L4298.53 552.229L4320.47 531.771L3982.97 169.771L3961.03 190.229Z" fill="black"/>
<path d="M4440 524.5V577.5L4390.5 558.5L4440 524.5Z" fill="black"/>
</svg>
