<svg width="4687" height="1072" viewBox="0 0 4687 1072" fill="none" xmlns="http://www.w3.org/2000/svg">
<path d="M141 712.5C141 712.5 245.824 629.893 322.5 636C425.931 644.239 413.596 808.427 517 817C630.907 826.445 632.704 635.319 747 636C848.813 636.607 861.967 794.595 963 782C1048.96 771.284 1046.64 659.556 1130 636C1268.16 596.959 1320.71 879.42 1450 817C1527.46 779.605 1491.96 656.496 1575.5 636C1690.09 607.887 1645.93 862.556 1763.5 872.5C1889.99 883.2 1859.61 632.439 1986.5 636C2094.28 639.026 2088.57 799.739 2195 817C2327.6 838.505 2356.33 607.029 2487.5 636C2574.26 655.164 2573.9 770.471 2662 782C2767.33 795.783 2785.32 633.048 2891.5 636C2993.28 638.83 3005.69 780.608 3107.5 782C3211.42 783.422 3227.3 620.068 3330 636C3425.17 650.764 3403.08 798.017 3497.5 817C3615.82 840.79 3627.36 632.651 3748 636C3852.05 638.889 3866.95 784.836 3971 782C4039.1 780.144 4131 712.5 4131 712.5" stroke="#C8C4FF" stroke-width="30" stroke-linecap="round" stroke-linejoin="round"/>
<path d="M4455 501.5V661L4335.5 633.5L4307.5 604L4455 501.5Z" fill="#C0C4E9"/>
<path d="M4318 579L4463 473.5L4234.5 129L4034.5 271L4318 579Z" fill="#C8C4FF"/>
<path d="M195 691C195 691 299.824 608.392 376.5 614.5C479.931 622.739 467.596 786.926 571 795.5C684.907 804.945 686.704 613.818 801 614.5C902.813 615.107 915.967 773.095 1017 760.5C1102.96 749.784 1100.64 638.056 1184 614.5C1322.16 575.459 1374.71 857.92 1504 795.5C1581.46 758.104 1545.96 634.995 1629.5 614.5C1744.09 586.386 1699.93 841.055 1817.5 851C1943.99 861.7 1913.61 610.938 2040.5 614.5C2148.28 617.525 2142.57 778.238 2249 795.5C2381.6 817.005 2410.33 585.528 2541.5 614.5C2628.26 633.663 2627.9 748.971 2716 760.5C2821.33 774.283 2839.32 611.548 2945.5 614.5C3047.28 617.33 3059.69 759.107 3161.5 760.5C3265.42 761.922 3281.3 598.568 3384 614.5C3479.17 629.264 3457.08 776.516 3551.5 795.5C3669.82 819.29 3681.36 611.15 3802 614.5C3906.05 617.389 3920.95 763.336 4025 760.5C4093.1 758.644 4185 691 4185 691H4484.5V554L4185 129L3987 264L4337 634.5" stroke="black" stroke-width="26" stroke-linecap="round" stroke-linejoin="round"/>
<path d="M4455 608.5V662.5L4397 647.5L4455 608.5Z" fill="black"/>
</svg>
