<svg width="4687" height="1000" viewBox="0 0 4687 1000" fill="none" xmlns="http://www.w3.org/2000/svg">
<path d="M170 617.5C170 617.5 274.824 534.893 351.5 541C454.931 549.239 442.596 713.427 546 722C659.907 731.445 661.704 540.319 776 541C877.813 541.607 890.967 699.595 992 687C1077.96 676.284 1075.64 564.556 1159 541C1297.16 501.959 1349.71 784.42 1479 722C1556.46 684.605 1520.96 561.496 1604.5 541C1719.09 512.887 1674.93 767.556 1792.5 777.5C1918.99 788.2 1888.61 537.439 2015.5 541C2123.28 544.026 2117.57 704.739 2224 722C2356.6 743.505 2385.33 512.029 2516.5 541C2603.26 560.164 2602.9 675.471 2691 687C2796.33 700.783 2814.32 538.048 2920.5 541C3022.28 543.83 3034.69 685.608 3136.5 687C3240.42 688.422 3256.3 525.068 3359 541C3454.17 555.764 3432.08 703.017 3526.5 722C3644.82 745.79 3656.36 537.651 3777 541C3881.05 543.889 3895.95 689.836 4000 687C4068.1 685.144 4160 617.5 4160 617.5" stroke="#C8C4FF" stroke-width="30" stroke-linecap="round" stroke-linejoin="round"/>
<path d="M4484 404.5V566L4333.5 507L4484 404.5Z" fill="#C0C4E9"/>
<path d="M4352.5 465.5L4518 345L4287 29L4082 177L4352.5 465.5Z" fill="#C8C4FF"/>
<path d="M214.716 584.219C208.209 589.346 207.091 598.778 212.219 605.284C217.346 611.791 226.778 612.909 233.284 607.781L214.716 584.219ZM405.5 519.5L404.309 534.453L405.5 519.5ZM600 700.5L598.761 715.449L600 700.5ZM830 519.5L830.089 504.5L830 519.5ZM1046 665.5L1044.14 650.615L1046 665.5ZM1213 519.5L1217.08 533.935L1213 519.5ZM1533 700.5L1526.48 686.992L1533 700.5ZM1658.5 519.5L1662.07 534.068L1658.5 519.5ZM1846.5 756L1845.24 770.947L1846.5 756ZM2069.5 519.5L2069.92 504.506L2069.5 519.5ZM2278 700.5L2280.4 685.693L2278 700.5ZM2570.5 519.5L2567.26 534.147L2570.5 519.5ZM2745 665.5L2746.95 650.627L2745 665.5ZM2974.5 519.5L2974.08 534.494L2974.5 519.5ZM3190.5 665.5L3190.29 680.499L3190.5 665.5ZM3413 519.5L3410.7 534.323L3413 519.5ZM3580.5 700.5L3583.46 685.794L3580.5 700.5ZM3831 519.5L3831.42 504.506L3831.42 504.506L3831 519.5ZM4054 665.5L4053.59 650.506L4054 665.5ZM4214 596V581C4210.8 581 4207.68 582.023 4205.11 583.92L4214 596ZM4513.5 596V611H4528.5V596H4513.5ZM4513.5 414H4528.5C4528.5 410.631 4527.37 407.361 4525.28 404.715L4513.5 414ZM4214 34L4225.78 24.7149C4220.9 18.524 4212.06 17.1661 4205.55 21.6066L4214 34ZM4016 169L4007.55 156.607C4003.94 159.071 4001.58 162.991 4001.09 167.338C4000.61 171.686 4002.05 176.029 4005.03 179.229L4016 169ZM4342.53 541.229C4348.18 547.288 4357.67 547.621 4363.73 541.971C4369.79 536.322 4370.12 526.83 4364.47 520.771L4342.53 541.229ZM224 596C233.284 607.781 233.283 607.783 233.281 607.784C233.281 607.784 233.28 607.785 233.28 607.785C233.28 607.785 233.282 607.783 233.285 607.781C233.292 607.775 233.305 607.765 233.324 607.75C233.362 607.72 233.426 607.671 233.513 607.603C233.689 607.466 233.962 607.255 234.328 606.974C235.061 606.411 236.167 605.57 237.615 604.491C240.512 602.333 244.768 599.23 250.127 595.512C260.862 588.065 275.931 578.214 293.282 568.571C328.825 548.821 370.767 531.781 404.309 534.453L406.691 504.547C363.557 501.112 314.749 522.322 278.71 542.348C260.272 552.594 244.343 563.013 233.026 570.864C227.36 574.795 222.828 578.098 219.693 580.433C218.124 581.602 216.904 582.529 216.064 583.174C215.644 583.496 215.319 583.748 215.093 583.924C214.98 584.012 214.891 584.081 214.828 584.13C214.797 584.155 214.772 584.175 214.753 584.189C214.743 584.197 214.736 584.203 214.729 584.208C214.726 584.21 214.723 584.213 214.721 584.214C214.718 584.217 214.716 584.219 224 596ZM404.309 534.453C446.489 537.812 465.792 571.961 489.494 616.875C511.33 658.252 537.556 710.374 598.761 715.449L601.239 685.551C559.041 682.052 539.732 647.794 516.026 602.874C494.187 561.49 467.941 509.426 406.691 504.547L404.309 534.453ZM598.761 715.449C632.21 718.222 657.664 705.975 678.09 687.133C697.821 668.931 713.331 644.102 727.586 621.217C742.341 597.53 755.882 575.698 772.365 559.531C788.296 543.906 806.219 534.358 829.911 534.5L830.089 504.5C796.632 504.301 771.47 518.389 751.359 538.113C731.8 557.295 716.342 582.526 702.122 605.355C687.403 628.986 673.962 650.125 657.749 665.082C642.23 679.398 624.744 687.5 601.239 685.551L598.761 715.449ZM829.911 534.5C872.088 534.751 896.44 566.85 926.315 606.48C953.936 643.122 987.53 687.905 1047.86 680.385L1044.14 650.615C1003.44 655.69 979.937 627.777 950.271 588.421C922.857 552.055 889.726 504.856 830.089 504.5L829.911 534.5ZM1047.86 680.385C1098.57 674.063 1122.83 637.138 1143.11 605.391C1164.4 572.071 1181.83 543.896 1217.08 533.935L1208.92 505.065C1160.81 518.66 1137.71 558.127 1117.83 589.239C1096.95 621.924 1079.4 646.221 1044.14 650.615L1047.86 680.385ZM1217.08 533.935C1245.75 525.833 1270.15 533.906 1294.04 552.038C1318.63 570.701 1340.98 598.731 1364.63 628.165C1387.55 656.667 1411.98 686.881 1439.48 705.486C1453.51 714.98 1468.96 721.909 1486.02 723.938C1503.24 725.983 1521.06 722.92 1539.52 714.008L1526.48 686.992C1512.62 693.685 1500.52 695.449 1489.57 694.148C1478.47 692.829 1467.52 688.237 1456.29 680.638C1433.26 665.057 1411.67 638.801 1388.02 609.37C1365.11 580.871 1340.33 549.507 1312.17 528.14C1283.32 506.24 1249.33 493.647 1208.92 505.065L1217.08 533.935ZM1539.52 714.008C1585.34 691.886 1597.15 644.071 1607.85 607.919C1619.46 568.706 1629.67 542.017 1662.07 534.068L1654.93 504.932C1603.79 517.478 1589.98 562.592 1579.09 599.406C1567.29 639.281 1558.12 671.718 1526.48 686.992L1539.52 714.008ZM1662.07 534.068C1673.85 531.18 1682.27 532.188 1688.73 534.964C1695.36 537.811 1701.48 543.193 1707.33 551.696C1719.5 569.386 1727.79 596.298 1736.99 627.694C1745.81 657.813 1755.37 691.639 1770.62 718.337C1786.22 745.65 1809.17 767.896 1845.24 770.947L1847.76 741.053C1825.05 739.132 1809.43 725.815 1796.67 703.459C1783.55 680.489 1774.94 650.54 1765.78 619.262C1756.99 589.262 1747.5 557.156 1732.04 534.693C1724.08 523.118 1713.93 513.14 1700.58 507.401C1687.06 501.592 1671.8 500.792 1654.93 504.932L1662.07 534.068ZM1845.24 770.947C1883.09 774.149 1909.48 757.197 1928.74 732.219C1947.21 708.26 1959.98 675.847 1971.8 645.941C1984.06 614.937 1995.4 586.326 2010.95 565.402C2025.86 545.34 2043.52 533.777 2069.08 534.494L2069.92 504.506C2032.03 503.442 2005.91 521.889 1986.87 547.509C1968.48 572.266 1955.72 605.009 1943.9 634.912C1931.64 665.915 1920.36 693.963 1904.98 713.901C1890.4 732.82 1873.16 743.201 1847.76 741.053L1845.24 770.947ZM2069.08 534.494C2113.62 535.744 2135.3 568.407 2161.36 612.316C2185.77 653.461 2214.26 705.358 2275.6 715.307L2280.4 685.693C2235.31 678.38 2213.43 641.29 2187.16 597.006C2162.52 555.487 2133.16 506.281 2069.92 504.506L2069.08 534.494ZM2275.6 715.307C2313.83 721.507 2344.59 709.17 2370.42 689.049C2395.57 669.451 2416.86 641.789 2436.62 616.417C2456.99 590.26 2475.79 566.465 2497.07 550.612C2517.55 535.353 2539.58 528.031 2567.26 534.147L2573.74 504.853C2535.84 496.483 2505.08 507.231 2479.15 526.554C2454 545.283 2432.74 572.58 2412.95 597.983C2392.56 624.171 2373.6 648.534 2351.98 665.384C2331.02 681.712 2308.47 690.246 2280.4 685.693L2275.6 715.307ZM2567.26 534.147C2603.82 542.221 2622.35 570.041 2644.77 603.681C2666.12 635.725 2691.44 673.619 2743.05 680.373L2746.95 650.627C2710.46 645.852 2691.91 620.327 2669.73 587.045C2648.61 555.358 2623.94 515.942 2573.74 504.853L2567.26 534.147ZM2743.05 680.373C2805.27 688.515 2841.24 643.238 2871.13 605.943C2903.29 565.83 2929.73 533.261 2974.08 534.494L2974.92 504.506C2913.09 502.787 2877.44 550.109 2847.72 587.179C2815.75 627.069 2790.06 656.268 2746.95 650.627L2743.05 680.373ZM2974.08 534.494C3016.95 535.686 3041.38 565.372 3070.74 602.364C3098.52 637.362 3131.26 679.691 3190.29 680.499L3190.71 650.501C3147.94 649.916 3123.56 620.66 3094.24 583.714C3066.49 548.761 3033.83 506.144 2974.92 504.506L2974.08 534.494ZM3190.29 680.499C3220.75 680.915 3244.6 669.081 3264.31 652.535C3283.52 636.404 3299.5 615.14 3314.09 596.214C3329.2 576.597 3342.86 559.437 3358.47 547.829C3373.36 536.758 3389.64 531.055 3410.7 534.323L3415.3 504.677C3385.01 499.979 3360.79 508.721 3340.57 523.754C3321.08 538.249 3305.01 558.85 3290.33 577.903C3275.11 597.646 3261.22 615.959 3245.02 629.558C3229.31 642.744 3212.21 650.796 3190.71 650.501L3190.29 680.499ZM3410.7 534.323C3448.97 540.26 3464.43 571.847 3483.32 614.493C3500.73 653.798 3521.48 703.934 3577.54 715.206L3583.46 685.794C3545.1 678.083 3529.69 645.101 3510.75 602.342C3493.28 562.925 3472.2 513.504 3415.3 504.677L3410.7 534.323ZM3577.54 715.206C3612.27 722.187 3639.65 711.843 3662.12 693.372C3683.71 675.622 3701.19 650.003 3717.32 626.043C3734.01 601.259 3749.47 577.917 3767.87 560.652C3785.74 543.875 3805.43 533.796 3830.58 534.494L3831.42 504.506C3796.25 503.529 3769.25 518.212 3747.34 538.775C3725.94 558.851 3708.5 585.429 3692.44 609.287C3675.82 633.97 3660.68 655.716 3643.07 670.196C3626.33 683.956 3607.89 690.708 3583.46 685.794L3577.54 715.206ZM3830.58 534.494C3874.67 535.718 3900.24 566.526 3930.87 604.122C3959.85 639.684 3994 682.141 4054.41 680.494L4053.59 650.506C4009.95 651.695 3984.62 622.596 3954.13 585.172C3925.29 549.781 3891.39 506.171 3831.42 504.506L3830.58 534.494ZM4054.41 680.494C4092.26 679.463 4134.95 660.517 4166.71 643.228C4182.91 634.409 4196.89 625.666 4206.82 619.128C4211.8 615.855 4215.77 613.123 4218.52 611.196C4219.9 610.232 4220.97 609.469 4221.71 608.939C4222.08 608.674 4222.36 608.467 4222.56 608.323C4222.66 608.251 4222.74 608.194 4222.79 608.153C4222.82 608.133 4222.84 608.117 4222.86 608.105C4222.87 608.099 4222.87 608.093 4222.88 608.089C4222.88 608.087 4222.89 608.085 4222.89 608.084C4222.89 608.082 4222.89 608.08 4214 596C4205.11 583.92 4205.11 583.918 4205.11 583.917C4205.11 583.917 4205.11 583.917 4205.11 583.917C4205.11 583.917 4205.11 583.918 4205.11 583.92C4205.1 583.924 4205.09 583.932 4205.07 583.945C4205.04 583.969 4204.99 584.01 4204.91 584.065C4204.76 584.177 4204.52 584.35 4204.2 584.581C4203.55 585.043 4202.58 585.735 4201.31 586.624C4198.77 588.404 4195.04 590.971 4190.33 594.068C4180.9 600.272 4167.65 608.556 4152.36 616.88C4121.14 633.877 4083.83 649.681 4053.59 650.506L4054.41 680.494ZM4214 611H4513.5V581H4214V611ZM4528.5 596V414H4498.5V596H4528.5ZM4525.28 404.715L4225.78 24.7149L4202.22 43.2851L4501.72 423.285L4525.28 404.715ZM4205.55 21.6066L4007.55 156.607L4024.45 181.393L4222.45 46.3934L4205.55 21.6066ZM4005.03 179.229L4342.53 541.229L4364.47 520.771L4026.97 158.771L4005.03 179.229Z" fill="black"/>
<path d="M4484 513.5V566.5L4434.5 547.5L4484 513.5Z" fill="black"/>
</svg>
