<svg width="4687" height="1000" viewBox="0 0 4687 1000" fill="none" xmlns="http://www.w3.org/2000/svg">
<path d="M170 617.5C170 617.5 274.824 534.893 351.5 541C454.931 549.239 442.596 713.427 546 722C659.907 731.445 661.704 540.319 776 541C877.813 541.607 890.967 699.595 992 687C1077.96 676.284 1075.64 564.556 1159 541C1297.16 501.959 1349.71 784.42 1479 722C1556.46 684.605 1520.96 561.496 1604.5 541C1719.09 512.887 1674.93 767.556 1792.5 777.5C1918.99 788.2 1888.61 537.439 2015.5 541C2123.28 544.026 2117.57 704.739 2224 722C2356.6 743.505 2385.33 512.029 2516.5 541C2603.26 560.164 2602.9 675.471 2691 687C2796.33 700.783 2814.32 538.048 2920.5 541C3022.28 543.83 3034.69 685.608 3136.5 687C3240.42 688.422 3256.3 525.068 3359 541C3454.17 555.764 3432.08 703.017 3526.5 722C3644.82 745.79 3656.36 537.651 3777 541C3881.05 543.889 3895.95 689.836 4000 687C4068.1 685.144 4160 617.5 4160 617.5" stroke="#C8C4FF" stroke-width="30" stroke-linecap="round" stroke-linejoin="round"/>
<path d="M4484 404.5V566L4333.5 507L4484 404.5Z" fill="#C0C4E9"/>
<path d="M4352.5 465.5L4518 345L4287 29L4082 177L4352.5 465.5Z" fill="#C8C4FF"/>
<path d="M213.168 582.255C205.577 588.237 204.273 599.241 210.255 606.832C216.237 614.423 227.241 615.727 234.832 609.745L213.168 582.255ZM405.5 519.5L404.11 536.945L405.5 519.5ZM600 700.5L598.554 717.94L600 700.5ZM830 519.5L830.104 502L830 519.5ZM1046 665.5L1043.84 648.134L1046 665.5ZM1213 519.5L1217.76 536.341L1213 519.5ZM1533 700.5L1525.39 684.74L1533 700.5ZM1658.5 519.5L1662.67 536.496L1662.67 536.496L1658.5 519.5ZM1846.5 756L1845.02 773.438L1846.5 756ZM2069.5 519.5L2069.99 502.007L2069.5 519.5ZM2278 700.5L2280.8 683.226L2278 700.5ZM2570.5 519.5L2566.73 536.588L2570.5 519.5ZM2745 665.5L2747.27 648.148L2745 665.5ZM2974.5 519.5L2974.01 536.993L2974.5 519.5ZM3190.5 665.5L3190.26 682.998L3190.5 665.5ZM3413 519.5L3410.32 536.793L3413 519.5ZM3580.5 700.5L3583.95 683.343L3580.5 700.5ZM3831 519.5L3831.49 502.007L3831 519.5ZM4054 665.5L4053.52 648.006L4054 665.5ZM4214 596V578.5C4210.27 578.5 4206.63 579.694 4203.63 581.906L4214 596ZM4513.5 596V613.5H4531V596H4513.5ZM4513.5 414H4531C4531 410.07 4529.68 406.254 4527.24 403.167L4513.5 414ZM4214 34L4227.74 23.1674C4222.05 15.9447 4211.74 14.3604 4204.14 19.541L4214 34ZM4016 169L4006.14 154.541C4001.92 157.416 3999.17 161.989 3998.61 167.062C3998.04 172.134 3999.72 177.201 4003.2 180.934L4016 169ZM4340.7 542.934C4347.29 550.003 4358.36 550.391 4365.43 543.8C4372.5 537.209 4372.89 526.136 4366.3 519.066L4340.7 542.934ZM224 596C234.832 609.745 234.83 609.747 234.828 609.748C234.828 609.748 234.826 609.749 234.826 609.749C234.826 609.75 234.827 609.749 234.83 609.747C234.835 609.742 234.847 609.733 234.865 609.719C234.902 609.69 234.963 609.642 235.048 609.576C235.219 609.443 235.488 609.235 235.85 608.957C236.574 608.401 237.671 607.567 239.109 606.496C241.985 604.353 246.219 601.266 251.552 597.567C262.238 590.153 277.236 580.348 294.497 570.757C329.998 551.029 371.368 534.337 404.11 536.945L406.89 502.055C362.956 498.556 313.576 520.114 277.496 540.163C258.967 550.459 242.966 560.925 231.601 568.809C225.909 572.759 221.354 576.078 218.199 578.429C216.621 579.604 215.391 580.539 214.542 581.191C214.117 581.516 213.788 581.772 213.558 581.951C213.443 582.04 213.352 582.111 213.287 582.162C213.255 582.187 213.228 582.208 213.208 582.223C213.199 582.231 213.19 582.238 213.184 582.243C213.18 582.246 213.176 582.249 213.175 582.25C213.171 582.253 213.168 582.255 224 596ZM404.11 536.945C444.702 540.178 463.426 572.834 487.283 618.042C508.963 659.123 535.765 712.734 598.554 717.94L601.446 683.06C560.831 679.692 542.099 646.923 518.237 601.707C496.553 560.618 469.729 507.061 406.89 502.055L404.11 536.945ZM598.554 717.94C632.832 720.782 658.95 708.19 679.785 688.97C699.81 670.498 715.492 645.362 729.708 622.539C744.507 598.78 757.888 577.231 774.116 561.316C789.699 546.032 807.018 536.863 829.896 537L830.104 502C795.833 501.796 770.068 516.262 749.608 536.328C729.793 555.762 714.176 581.276 700 604.034C685.242 627.726 671.974 648.558 656.054 663.244C640.943 677.183 624.122 684.94 601.446 683.06L598.554 717.94ZM829.896 537C870.618 537.243 894.239 568.083 924.318 607.985C951.769 644.401 986.205 690.59 1048.16 682.866L1043.84 648.134C1004.76 653.005 982.104 626.498 952.267 586.917C925.058 550.822 891.196 502.365 830.104 502L829.896 537ZM1048.16 682.866C1100.16 676.383 1124.99 638.406 1145.22 606.737C1166.63 573.233 1183.58 545.999 1217.76 536.341L1208.24 502.659C1159.06 516.557 1135.49 556.965 1115.73 587.892C1094.79 620.656 1077.8 643.901 1043.84 648.134L1048.16 682.866ZM1217.76 536.341C1245.45 528.515 1269.05 536.212 1292.53 554.029C1316.82 572.468 1338.96 600.22 1362.69 629.731C1385.53 658.155 1410.2 688.7 1438.08 707.557C1452.35 717.209 1468.16 724.333 1485.73 726.42C1503.46 728.528 1521.76 725.357 1540.61 716.26L1525.39 684.74C1511.91 691.248 1500.29 692.905 1489.86 691.665C1479.27 690.406 1468.69 686.008 1457.69 678.567C1435.03 663.239 1413.69 637.312 1389.97 607.803C1367.12 579.382 1342.14 547.74 1313.68 526.148C1284.41 503.935 1249.63 490.965 1208.24 502.659L1217.76 536.341ZM1540.61 716.26C1587.61 693.567 1599.64 644.471 1610.25 608.629C1621.92 569.215 1631.83 544.062 1662.67 536.496L1654.33 502.504C1601.63 515.433 1587.53 562.082 1576.69 598.696C1564.8 638.882 1555.85 670.037 1525.39 684.74L1540.61 716.26ZM1662.67 536.496C1674.02 533.712 1681.88 534.738 1687.75 537.261C1693.81 539.866 1699.59 544.866 1705.27 553.113C1717.16 570.406 1725.36 596.885 1734.59 628.397C1743.38 658.419 1753.02 692.568 1768.44 719.577C1784.28 747.303 1807.84 770.293 1845.02 773.438L1847.98 738.562C1826.37 736.735 1811.37 724.162 1798.84 702.219C1785.9 679.559 1777.37 649.934 1768.18 618.56C1759.43 588.675 1749.83 556.137 1734.1 533.276C1725.96 521.445 1715.48 511.084 1701.56 505.104C1687.46 499.042 1671.63 498.259 1654.33 502.504L1662.67 536.496ZM1845.02 773.438C1883.92 776.727 1911.08 759.228 1930.72 733.745C1949.45 709.451 1962.34 676.674 1974.12 646.86C1986.42 615.764 1997.65 587.498 2012.96 566.893C2027.52 547.294 2044.48 536.305 2069.01 536.993L2069.99 502.007C2031.07 500.915 2004.25 519.935 1984.86 546.018C1966.23 571.094 1953.36 604.182 1941.57 633.993C1929.28 665.087 1918.12 692.771 1903 712.375C1888.81 730.789 1872.33 740.622 1847.98 738.562L1845.02 773.438ZM2069.01 536.993C2111.99 538.2 2133.03 569.484 2159.21 613.592C2183.47 654.475 2212.5 707.606 2275.2 717.774L2280.8 683.226C2237.06 676.132 2215.74 640.276 2189.31 595.731C2164.78 554.411 2134.79 503.826 2069.99 502.007L2069.01 536.993ZM2275.2 717.774C2314.28 724.112 2345.72 711.458 2371.95 691.021C2397.4 671.195 2418.89 643.257 2438.59 617.953C2459.01 591.733 2477.6 568.23 2498.56 552.617C2518.59 537.697 2539.89 530.66 2566.73 536.588L2574.27 502.412C2535.53 493.854 2504.05 504.888 2477.65 524.549C2452.19 543.517 2430.71 571.107 2410.98 596.447C2390.53 622.703 2371.77 646.791 2350.44 663.412C2329.89 679.424 2308.02 687.641 2280.8 683.226L2275.2 717.774ZM2566.73 536.588C2602.15 544.411 2620.16 571.265 2642.68 605.068C2663.97 637.009 2689.85 675.932 2742.73 682.852L2747.27 648.148C2712.05 643.539 2694.06 619.044 2671.81 585.658C2650.8 554.134 2625.62 513.752 2574.27 502.412L2566.73 536.588ZM2742.73 682.852C2806.54 691.202 2843.36 644.585 2873.08 607.507C2905.44 567.14 2931.11 535.8 2974.01 536.993L2974.99 502.007C2911.71 500.247 2875.29 548.799 2845.77 585.616C2813.62 625.722 2788.79 653.581 2747.27 648.148L2742.73 682.852ZM2974.01 536.993C3015.54 538.148 3039.29 566.757 3068.78 603.919C3096.43 638.754 3129.87 682.172 3190.26 682.998L3190.74 648.002C3149.33 647.435 3125.65 619.268 3096.2 582.159C3068.59 547.377 3035.23 503.682 2974.99 502.007L2974.01 536.993ZM3190.26 682.998C3221.46 683.425 3245.87 671.275 3265.92 654.45C3285.38 638.108 3301.54 616.598 3316.07 597.74C3331.22 578.076 3344.67 561.202 3359.96 549.835C3374.41 539.094 3390.02 533.645 3410.32 536.793L3415.68 502.207C3384.63 497.389 3359.74 506.384 3339.08 521.747C3319.26 536.483 3302.99 557.372 3288.35 576.377C3273.08 596.189 3259.36 614.255 3243.41 627.644C3228.04 640.549 3211.5 648.286 3190.74 648.002L3190.26 682.998ZM3410.32 536.793C3447.04 542.49 3462.02 572.59 3481.03 615.506C3498.32 654.522 3519.51 706.088 3577.05 717.657L3583.95 683.343C3547.07 675.929 3532.1 644.376 3513.03 601.33C3495.69 562.182 3474.13 511.274 3415.68 502.207L3410.32 536.793ZM3577.05 717.657C3612.63 724.81 3640.76 714.167 3663.71 695.303C3685.63 677.281 3703.3 651.339 3719.4 627.439C3736.14 602.578 3751.43 579.505 3769.58 562.475C3787.12 546.013 3806.19 536.318 3830.51 536.993L3831.49 502.007C3795.49 501.007 3767.88 516.073 3745.63 536.952C3723.98 557.262 3706.38 584.109 3690.36 607.891C3673.7 632.633 3658.77 654.057 3641.48 668.265C3625.22 681.632 3607.53 688.084 3583.95 683.343L3577.05 717.657ZM3830.51 536.993C3873.27 538.18 3898.15 567.922 3928.93 605.702C3957.78 641.108 3992.67 684.678 4054.48 682.994L4053.52 648.006C4011.28 649.158 3986.69 621.172 3956.07 583.592C3927.38 548.385 3892.78 503.709 3831.49 502.007L3830.51 536.993ZM4054.48 682.994C4092.97 681.944 4136.1 662.737 4167.9 645.424C4184.18 636.563 4198.22 627.782 4208.2 621.217C4213.19 617.929 4217.19 615.183 4219.96 613.244C4221.34 612.274 4222.42 611.505 4223.17 610.969C4223.54 610.701 4223.83 610.491 4224.03 610.344C4224.13 610.271 4224.21 610.213 4224.27 610.171C4224.3 610.15 4224.32 610.133 4224.34 610.12C4224.35 610.114 4224.35 610.108 4224.36 610.104C4224.36 610.102 4224.37 610.099 4224.37 610.098C4224.37 610.096 4224.37 610.094 4214 596C4203.63 581.906 4203.63 581.905 4203.63 581.904C4203.63 581.903 4203.63 581.902 4203.63 581.902C4203.63 581.902 4203.63 581.903 4203.63 581.905C4203.62 581.908 4203.61 581.916 4203.6 581.927C4203.57 581.95 4203.51 581.99 4203.44 582.044C4203.29 582.153 4203.05 582.323 4202.74 582.551C4202.1 583.007 4201.14 583.693 4199.88 584.576C4197.36 586.344 4193.64 588.897 4188.96 591.98C4179.57 598.156 4166.38 606.401 4151.17 614.684C4119.99 631.657 4083.13 647.199 4053.52 648.006L4054.48 682.994ZM4214 613.5H4513.5V578.5H4214V613.5ZM4531 596V414H4496V596H4531ZM4527.24 403.167L4227.74 23.1674L4200.26 44.8326L4499.76 424.833L4527.24 403.167ZM4204.14 19.541L4006.14 154.541L4025.86 183.459L4223.86 48.459L4204.14 19.541ZM4003.2 180.934L4340.7 542.934L4366.3 519.066L4028.8 157.066L4003.2 180.934Z" fill="black"/>
<path d="M4484 513.5V566.5L4434.5 547.5L4484 513.5Z" fill="black"/>
</svg>
