<svg width="189" height="211" viewBox="0 0 189 211" fill="none" xmlns="http://www.w3.org/2000/svg">
<path d="M132.449 96.1728C109.114 99.3187 85.6748 101.694 62.1827 103.294C60.3911 116.141 58.8701 129.026 57.621 141.937C57.395 144.273 58.0374 147.576 60.3829 147.435C93.9945 145.423 127.871 147.872 160.842 154.699C162.75 157.099 164.658 159.5 166.566 161.9C167.175 162.591 167.785 163.283 168.395 163.974C166.207 165.395 163.379 165.178 160.782 164.923C127.459 161.645 93.922 160.545 60.4559 161.634C58.1533 161.709 55.182 162.371 54.9212 164.657C53.5173 176.967 52.1134 189.278 50.7095 201.588C50.2566 205.559 48.8521 210.539 44.8746 210.974C42.2698 211.259 39.8858 209.139 38.9851 206.681C38.0843 204.223 38.3208 201.514 38.5926 198.911C39.8822 186.563 41.6948 174.268 44.0239 162.072C29.5428 162.63 14.9875 161.234 0.877067 157.935C-0.305062 153.312 -0.917922 147.234 3.24463 144.893C5.18746 143.8 7.56806 143.986 9.78709 144.203C20.7329 145.274 31.6787 146.345 42.6244 147.416C45.1534 147.664 46.3181 144.39 46.6153 141.87C47.8084 131.751 49.0015 121.633 50.1946 111.515C50.4086 109.7 50.6099 107.789 49.8952 106.107C49.1804 104.426 47.2047 103.13 45.5105 103.819C41.3979 105.491 36.1319 104.687 33.3654 101.218C30.5988 97.7492 31.4622 91.7282 35.4814 89.8431C38.584 88.3878 42.1992 89.5736 45.6127 89.886C49.0261 90.1984 53.363 88.7265 53.5904 85.3106C54.4204 72.8439 55.8107 60.4145 57.7558 48.0723C41.0967 49.43 24.4376 50.7876 7.77847 52.1453C6.52083 52.2478 5.19572 52.3389 4.05466 51.8009C2.0536 50.8574 1.36487 48.4082 0.89612 46.2482C0.304366 43.5215 -0.0757606 40.1537 2.11961 38.4284C3.32355 37.4822 4.96054 37.3614 6.49028 37.2791C24.1153 36.3311 41.7403 35.3832 59.3653 34.4352C60.9098 24.552 62.4544 14.6689 63.9989 4.78571C64.2791 2.99257 64.7784 0.905339 66.4537 0.202571C68.1248 -0.498412 70.1021 0.717467 70.8819 2.35157C71.6618 3.98567 71.5641 5.88361 71.4498 7.69025C70.8959 16.4508 70.3419 25.2113 69.788 33.9718C102.235 29.5598 134.818 26.1408 167.475 23.7211C171.738 23.4053 176.111 23.1176 180.207 24.3368C184.303 25.556 188.126 28.6185 189 32.7969C148.42 37.6455 107.839 42.4941 67.259 47.3427C66.0614 59.8307 64.8638 72.3187 63.6661 84.8067C63.5071 86.465 63.9786 88.8198 65.6412 88.6869C85.8385 87.0725 106.076 85.966 126.329 85.3687C129.38 85.2788 132.648 85.2591 135.194 86.9396C137.739 88.6201 138.892 92.6912 136.622 94.7285C135.51 95.7271 133.931 95.973 132.449 96.1728Z" fill="black"/>
</svg>
