<?xml version="1.0" encoding="UTF-8"?>
<svg width="575px" height="592px" viewBox="0 0 575 592" version="1.1" xmlns="http://www.w3.org/2000/svg" xmlns:xlink="http://www.w3.org/1999/xlink">
    <!-- Generator: Sketch 63.1 (92452) - https://sketch.com -->
    <title>tv</title>
    <desc>Created with Sketch.</desc>
    <g id="Page-1" stroke="none" stroke-width="1" fill="none" fill-rule="evenodd">
        <g id="tv" transform="translate(-160.000000, -70.000000)">
            <g transform="translate(160.000000, 70.000000)">
                <g id="knobs" transform="translate(0.000000, 144.000000)">
                    <path d="M555.369583,356.262139 C532.559204,373.631754 48.0514498,380.574909 23.6987738,356.262139 C-0.653902246,331.949368 -14.405726,58.3398041 23.6987738,21.4542934 C61.8032736,-15.4312172 526.034701,2.50135695 555.369583,21.4542934 C584.704464,40.4072299 578.179962,338.892523 555.369583,356.262139 Z" id="tv-box" fill="#D8D8D8"></path>
                    <circle id="Oval" fill="#AAAAAA" cx="479.5" cy="89.5" r="25.5"></circle>
                    <circle id="Oval-Copy" fill="#AAAAAA" cx="479.5" cy="157.5" r="25.5"></circle>
                    <circle id="Oval-Copy-2" fill="#AAAAAA" cx="479.5" cy="214.5" r="11.5"></circle>
                    <circle id="Oval-Copy-3" fill="#AAAAAA" cx="442.5" cy="214.5" r="11.5"></circle>
                    <circle id="Oval-Copy-4" fill="#AAAAAA" cx="516.5" cy="214.5" r="11.5"></circle>
                </g>
                <g id="vent" transform="translate(430.000000, 397.000000)" fill="#AAAAAA">
                    <rect id="Rectangle" transform="translate(49.500000, 6.000000) rotate(-1.000000) translate(-49.500000, -6.000000) " x="1" y="1" width="97" height="10" rx="5"></rect>
                    <rect id="Rectangle-Copy" transform="translate(49.500000, 27.000000) rotate(-1.000000) translate(-49.500000, -27.000000) " x="1" y="22" width="97" height="10" rx="5"></rect>
                    <rect id="Rectangle-Copy-2" transform="translate(49.500000, 48.000000) rotate(-1.000000) translate(-49.500000, -48.000000) " x="1" y="43" width="97" height="10" rx="5"></rect>
                </g>
                <g id="antenna" transform="translate(317.000000, 0.000000)">
                    <line x1="69" y1="153" x2="188" y2="36" id="Line" stroke="#D8D8D8" stroke-width="5" stroke-linecap="square"></line>
                    <line x1="44.5" y1="144.5" x2="12.5" y2="13.5" id="Line-2" stroke="#D8D8D8" stroke-width="5" stroke-linecap="square"></line>
                    <circle id="Oval" fill="#D8D8D8" cx="188" cy="36" r="13"></circle>
                    <circle id="Oval-Copy-5" fill="#D8D8D8" cx="13" cy="13" r="13"></circle>
                </g>
                <g id="legs" transform="translate(57.000000, 496.000000)" fill="#D8D8D8">
                    <path d="M424.048163,-7.10542736e-15 C455.373268,62.3249053 467.656943,94.1633764 460.899187,95.5154134 C454.141432,96.8674504 428.974765,67.4965327 385.399187,7.40266029 L424.048163,-7.10542736e-15 Z" id="Path"></path>
                    <path d="M20.1624483,-2.13162821e-14 L61.020914,8.81223421 C27.7641422,67.896081 8.16435255,96.7971408 2.22154493,95.5154134 C-3.72126269,94.2336861 2.25903844,62.3952149 20.1624483,-2.13162821e-14 Z" id="Path-2"></path>
                </g>
            </g>
        </g>
    </g>
</svg>