<?xml version="1.0" encoding="UTF-8" standalone="no"?>
<!-- Generator: Adobe Illustrator 18.0.0, SVG Export Plug-In . SVG Version: 6.00 Build 0)  -->

<svg
   xmlns:dc="http://purl.org/dc/elements/1.1/"
   xmlns:cc="http://creativecommons.org/ns#"
   xmlns:rdf="http://www.w3.org/1999/02/22-rdf-syntax-ns#"
   xmlns:svg="http://www.w3.org/2000/svg"
   xmlns="http://www.w3.org/2000/svg"
   xmlns:sodipodi="http://sodipodi.sourceforge.net/DTD/sodipodi-0.dtd"
   xmlns:inkscape="http://www.inkscape.org/namespaces/inkscape"
   version="1.1"
   id="Layer_1"
   x="0px"
   y="0px"
   viewBox="0 0 809 64"
   enable-background="new 0 0 818 66"
   xml:space="preserve"
   inkscape:version="0.91 r13725"
   sodipodi:docname="main_logo.svg"
   width="809"
   height="64"><metadata
     id="metadata4465"><rdf:RDF><cc:Work
         rdf:about=""><dc:format>image/svg+xml</dc:format><dc:type
           rdf:resource="http://purl.org/dc/dcmitype/StillImage" /><dc:title></dc:title></cc:Work></rdf:RDF></metadata><defs
     id="defs4463"><clipPath
       clipPathUnits="userSpaceOnUse"
       id="clipPath4640"><rect
         style="fill:#f87217;fill-opacity:1"
         id="rect4642"
         width="808.39905"
         height="69.126762"
         x="0.96009392"
         y="-0.24647887" /></clipPath><clipPath
       clipPathUnits="userSpaceOnUse"
       id="clipPath4644"><rect
         style="fill:#f87217;fill-opacity:1"
         id="rect4646"
         width="808.39905"
         height="69.126762"
         x="0.96009392"
         y="-0.24647887" /></clipPath><clipPath
       clipPathUnits="userSpaceOnUse"
       id="clipPath4648"><rect
         style="fill:#f87217;fill-opacity:1"
         id="rect4650"
         width="808.39905"
         height="69.126762"
         x="0.96009392"
         y="-0.24647887" /></clipPath><clipPath
       clipPathUnits="userSpaceOnUse"
       id="clipPath4652"><rect
         style="fill:#f87217;fill-opacity:1"
         id="rect4654"
         width="808.39905"
         height="69.126762"
         x="0.96009392"
         y="-0.24647887" /></clipPath><clipPath
       clipPathUnits="userSpaceOnUse"
       id="clipPath4656"><rect
         style="fill:#f87217;fill-opacity:1"
         id="rect4658"
         width="808.39905"
         height="69.126762"
         x="0.96009392"
         y="-0.24647887" /></clipPath><clipPath
       clipPathUnits="userSpaceOnUse"
       id="clipPath4660"><rect
         style="fill:#f87217;fill-opacity:1"
         id="rect4662"
         width="808.39905"
         height="69.126762"
         x="0.96009392"
         y="-0.24647887" /></clipPath><clipPath
       clipPathUnits="userSpaceOnUse"
       id="clipPath4664"><rect
         style="fill:#f87217;fill-opacity:1"
         id="rect4666"
         width="808.39905"
         height="69.126762"
         x="0.96009392"
         y="-0.24647887" /></clipPath><clipPath
       clipPathUnits="userSpaceOnUse"
       id="clipPath4668"><rect
         style="fill:#f87217;fill-opacity:1"
         id="rect4670"
         width="808.39905"
         height="69.126762"
         x="0.96009392"
         y="-0.24647887" /></clipPath><clipPath
       clipPathUnits="userSpaceOnUse"
       id="clipPath4672"><rect
         style="fill:#f87217;fill-opacity:1"
         id="rect4674"
         width="808.39905"
         height="69.126762"
         x="0.96009392"
         y="-0.24647887" /></clipPath><clipPath
       clipPathUnits="userSpaceOnUse"
       id="clipPath4676"><rect
         style="fill:#f87217;fill-opacity:1"
         id="rect4678"
         width="808.39905"
         height="69.126762"
         x="0.96009392"
         y="-0.24647887" /></clipPath><clipPath
       clipPathUnits="userSpaceOnUse"
       id="clipPath4680"><rect
         style="fill:#f87217;fill-opacity:1"
         id="rect4682"
         width="808.39905"
         height="69.126762"
         x="0.96009392"
         y="-0.24647887" /></clipPath><clipPath
       clipPathUnits="userSpaceOnUse"
       id="clipPath4684"><rect
         style="fill:#f87217;fill-opacity:1"
         id="rect4686"
         width="808.39905"
         height="69.126762"
         x="0.96009392"
         y="-0.24647887" /></clipPath><clipPath
       clipPathUnits="userSpaceOnUse"
       id="clipPath4688"><rect
         style="fill:#f87217;fill-opacity:1"
         id="rect4690"
         width="808.39905"
         height="69.126762"
         x="0.96009392"
         y="-0.24647887" /></clipPath><clipPath
       clipPathUnits="userSpaceOnUse"
       id="clipPath4692"><rect
         style="fill:#f87217;fill-opacity:1"
         id="rect4694"
         width="808.39905"
         height="69.126762"
         x="0.96009392"
         y="-0.24647887" /></clipPath><clipPath
       clipPathUnits="userSpaceOnUse"
       id="clipPath4696"><rect
         style="fill:#f87217;fill-opacity:1"
         id="rect4698"
         width="808.39905"
         height="69.126762"
         x="0.96009392"
         y="-0.24647887" /></clipPath><clipPath
       clipPathUnits="userSpaceOnUse"
       id="clipPath4700"><rect
         style="fill:#f87217;fill-opacity:1"
         id="rect4702"
         width="808.39905"
         height="69.126762"
         x="0.96009392"
         y="-0.24647887" /></clipPath><clipPath
       clipPathUnits="userSpaceOnUse"
       id="clipPath4704"><rect
         style="fill:#f87217;fill-opacity:1"
         id="rect4706"
         width="808.39905"
         height="69.126762"
         x="0.96009392"
         y="-0.24647887" /></clipPath><clipPath
       clipPathUnits="userSpaceOnUse"
       id="clipPath4708"><rect
         style="fill:#f87217;fill-opacity:1"
         id="rect4710"
         width="808.39905"
         height="69.126762"
         x="0.96009392"
         y="-0.24647887" /></clipPath><clipPath
       clipPathUnits="userSpaceOnUse"
       id="clipPath4712"><rect
         style="fill:#f87217;fill-opacity:1"
         id="rect4714"
         width="808.39905"
         height="69.126762"
         x="0.96009392"
         y="-0.24647887" /></clipPath><clipPath
       clipPathUnits="userSpaceOnUse"
       id="clipPath4716"><rect
         style="fill:#f87217;fill-opacity:1"
         id="rect4718"
         width="808.39905"
         height="69.126762"
         x="0.96009392"
         y="-0.24647887" /></clipPath><clipPath
       clipPathUnits="userSpaceOnUse"
       id="clipPath4720"><rect
         style="fill:#f87217;fill-opacity:1"
         id="rect4722"
         width="808.39905"
         height="69.126762"
         x="0.96009392"
         y="-0.24647887" /></clipPath><clipPath
       clipPathUnits="userSpaceOnUse"
       id="clipPath4724"><rect
         style="fill:#f87217;fill-opacity:1"
         id="rect4726"
         width="808.39905"
         height="69.126762"
         x="0.96009392"
         y="-0.24647887" /></clipPath><clipPath
       clipPathUnits="userSpaceOnUse"
       id="clipPath4728"><rect
         style="fill:#f87217;fill-opacity:1"
         id="rect4730"
         width="808.39905"
         height="69.126762"
         x="0.96009392"
         y="-0.24647887" /></clipPath><clipPath
       clipPathUnits="userSpaceOnUse"
       id="clipPath4732"><rect
         style="fill:#f87217;fill-opacity:1"
         id="rect4734"
         width="808.39905"
         height="69.126762"
         x="0.96009392"
         y="-0.24647887" /></clipPath><clipPath
       clipPathUnits="userSpaceOnUse"
       id="clipPath4736"><rect
         style="fill:#f87217;fill-opacity:1"
         id="rect4738"
         width="808.39905"
         height="69.126762"
         x="0.96009392"
         y="-0.24647887" /></clipPath><clipPath
       clipPathUnits="userSpaceOnUse"
       id="clipPath4740"><rect
         style="fill:#f87217;fill-opacity:1"
         id="rect4742"
         width="808.39905"
         height="69.126762"
         x="0.96009392"
         y="-0.24647887" /></clipPath><clipPath
       clipPathUnits="userSpaceOnUse"
       id="clipPath4744"><rect
         style="fill:#f87217;fill-opacity:1"
         id="rect4746"
         width="808.39905"
         height="69.126762"
         x="0.96009392"
         y="-0.24647887" /></clipPath><clipPath
       clipPathUnits="userSpaceOnUse"
       id="clipPath4748"><rect
         style="fill:#f87217;fill-opacity:1"
         id="rect4750"
         width="808.39905"
         height="69.126762"
         x="0.96009392"
         y="-0.24647887" /></clipPath><clipPath
       clipPathUnits="userSpaceOnUse"
       id="clipPath4752"><rect
         style="fill:#f87217;fill-opacity:1"
         id="rect4754"
         width="808.39905"
         height="69.126762"
         x="0.96009392"
         y="-0.24647887" /></clipPath><clipPath
       clipPathUnits="userSpaceOnUse"
       id="clipPath4756"><rect
         style="fill:#f87217;fill-opacity:1"
         id="rect4758"
         width="808.39905"
         height="69.126762"
         x="0.96009392"
         y="-0.24647887" /></clipPath><clipPath
       clipPathUnits="userSpaceOnUse"
       id="clipPath4760"><rect
         style="fill:#f87217;fill-opacity:1"
         id="rect4762"
         width="808.39905"
         height="69.126762"
         x="0.96009392"
         y="-0.24647887" /></clipPath><clipPath
       clipPathUnits="userSpaceOnUse"
       id="clipPath4764"><rect
         style="fill:#f87217;fill-opacity:1"
         id="rect4766"
         width="808.39905"
         height="69.126762"
         x="0.96009392"
         y="-0.24647887" /></clipPath></defs><sodipodi:namedview
     pagecolor="#ffffff"
     bordercolor="#666666"
     borderopacity="1"
     objecttolerance="10"
     gridtolerance="10"
     guidetolerance="10"
     inkscape:pageopacity="0"
     inkscape:pageshadow="2"
     inkscape:window-width="1280"
     inkscape:window-height="735"
     id="namedview4461"
     showgrid="false"
     inkscape:zoom="4.1662592"
     inkscape:cx="159.73738"
     inkscape:cy="-16.962158"
     inkscape:window-x="0"
     inkscape:window-y="0"
     inkscape:window-maximized="0"
     inkscape:current-layer="Layer_1" /><path
     style="fill:none"
     inkscape:connector-curvature="0"
     id="path4387"
     d="M 111.3,13.2 C 109.4,11 107,9.1 104.2,7.9 101.4,6.7 98.2,6 94.6,6 L 82,6 l 0,52 12.5,0 c 3.6,0 6.8,-0.5 9.6,-1.7 2.8,-1.2 5.2,-2.9 7.1,-5.1 1.9,-2.2 3.4,-4.9 4.5,-8.2 1,-3.2 1.6,-6.8 1.6,-10.9 0,-4 -0.5,-7.6 -1.6,-10.8 -1,-3.1 -2.5,-5.8 -4.4,-8.1 z"
     clip-path="url(#clipPath4764)"
     sodipodi:nodetypes="cssccssscscc"
     transform="translate(-0.96009389,-1.0399061)" /><path
     style="fill:none"
     inkscape:connector-curvature="0"
     id="path4389"
     d="m 662.4,14.7 c -0.6,-1.9 -1.3,-4 -1.9,-6.2 -0.6,2.3 -1.2,4.3 -1.8,6.3 -0.6,1.9 -1.2,3.7 -1.8,5.1 l -7.5,22.1 22.1,0 -7.4,-22.3 c -0.5,-1.4 -1.1,-3.1 -1.7,-5 z"
     clip-path="url(#clipPath4760)"
     sodipodi:nodetypes="sccccccs"
     transform="translate(-0.96009389,-1.0399061)" /><path
     style="fill:none"
     inkscape:connector-curvature="0"
     id="path4391"
     d="m 595.2,13.3 c -1.9,-2.2 -4.3,-3.9 -7.1,-5.1 -2.8,-1.2 -6,-1.8 -9.6,-1.8 -3.6,0 -6.9,0.6 -9.7,1.8 -2.8,1.2 -5.2,2.9 -7.2,5.1 -1.9,2.2 -3.4,4.9 -4.5,8.1 -1,3.2 -1.6,6.8 -1.6,10.8 0,4 0.5,7.7 1.6,10.9 1,3.2 2.5,5.9 4.5,8.1 1.9,2.2 4.3,3.9 7.2,5.1 2.8,1.2 6.1,1.7 9.7,1.7 3.6,0 6.8,-0.6 9.6,-1.7 2.8,-1.2 5.2,-2.9 7.1,-5.1 1.9,-2.2 3.4,-4.9 4.5,-8.1 1,-3.2 1.6,-6.8 1.6,-10.9 0,-4 -0.5,-7.6 -1.6,-10.8 -1,-3.2 -2.5,-5.9 -4.5,-8.1 z"
     clip-path="url(#clipPath4756)"
     sodipodi:nodetypes="csssccscccscscscc"
     transform="translate(-0.96009389,-1.0399061)" /><path
     style="fill:none"
     inkscape:connector-curvature="0"
     id="path4393"
     d="m 354,0 0,34.6 c 0,1.3 0,2.7 0.1,4.1 0.1,1.5 0.2,3.2 0.3,4.7 L 319.8,0 300,0 l 0,66 16,0 0,-36.7 c 0,-1.2 0.2,-2.5 0.1,-3.8 -0.1,-1.4 -0.1,-2.6 -0.2,-4 L 351.1,66 370,66 370,0 Z"
     clip-path="url(#clipPath4752)"
     sodipodi:nodetypes="csccccccscccccc"
     transform="translate(-0.96009389,-1.0399061)" /><path
     style="fill:none"
     inkscape:connector-curvature="0"
     id="path4395"
     d="m 440.7,52.9 c -0.4,-0.4 -0.8,-0.7 -1.3,-0.9 -0.4,-0.2 -0.9,-0.2 -1.3,-0.2 -0.6,0 -1.1,0.1 -1.6,0.4 -0.5,0.2 -1,0.5 -1.4,0.9 -1.1,1 -2.2,1.8 -3.3,2.4 -1.1,0.6 -2.2,1.2 -3.4,1.6 -1.2,0.4 -2.5,0.7 -3.9,0.9 -1.4,0.2 -3,0.2 -4.7,0.2 -3,0 -5.7,-0.6 -8.3,-1.7 -2.6,-1.1 -4.9,-2.8 -6.8,-5 -1.9,-2.2 -3.5,-4.9 -4.6,-8.1 -1.1,-3.2 -1.7,-6.9 -1.7,-11 0,-4 0.6,-7.5 1.7,-10.7 1.1,-3.2 2.7,-5.9 4.7,-8.1 2,-2.2 4.4,-4 7.2,-5.2 2.8,-1.2 5.9,-1.8 9.3,-1.8 2,0 3.7,0.1 5.1,0.4 1.5,0.3 2.7,0.7 3.8,1.1 1.1,0.4 2,0.9 2.8,1.4 0.8,0.5 1.5,1 2.2,1.4 0.7,0.4 1.3,0.8 1.9,1.1 0.6,0.3 1.2,0.5 1.9,0.5 1,0 1.8,-0.2 2.3,-0.6 0.6,-0.4 1,-0.8 1.4,-1.4 L 449,2.1 c -0.7,-0.7 -1.5,-1.9 -2.3,-1.9 l -52.5,0 c -1.2,0 -2.4,1.7 -3.4,2.8 -3.7,3.7 -6.6,7.8 -8.7,12.9 -2.1,5.1 -3.1,10.6 -3.1,16.6 0,5.9 0.9,11.4 2.7,16.5 1.8,5.1 4.4,9.5 7.8,13.2 1.3,1.4 2.7,2 4.2,4 l 49.6,0 c 1.7,-2 3.3,-3.3 4.7,-5.1 z"
     clip-path="url(#clipPath4748)"
     sodipodi:nodetypes="ccsccsssssssssssscssssscccsscsssccccc"
     transform="translate(-0.96009389,-1.0399061)" /><polygon
     style="fill:none"
     id="polygon4397"
     points="508,0 508,26 476,26 476,0 457,0 457,66 476,66 476,39 508,39 508,66 527,66 527,0 "
     clip-path="url(#clipPath4744)"
     transform="translate(-0.96009389,-1.0399061)" /><polygon
     style="fill:none"
     id="polygon4399"
     points="19,58 19,39 45,39 45,25 19,25 19,6 52,6 52,0 0,0 0,66 52,66 52,58 "
     clip-path="url(#clipPath4740)"
     transform="translate(-0.96009389,-1.0399061)" /><path
     style="fill:none"
     inkscape:connector-curvature="0"
     id="path4401"
     d="m 133.5,48.4 c 2,-4.9 3,-10.3 3,-16.2 0,-5.8 -1,-11.1 -3,-16.1 C 131.5,11.2 128.6,7 125,3.4 123.6,2.2 122,1 120.4,0 L 63,0 l 0,66 56.5,0 c 2,-2 3.8,-2.9 5.5,-4.6 3.6,-3.6 6.5,-8 8.5,-13 z m -17.8,-5.3 c -1,3.2 -2.5,5.9 -4.5,8.2 -1.9,2.2 -4.3,3.9 -7.1,5.1 -2.8,1.2 -6,1.7 -9.6,1.7 L 82,58.1 82,6 94.5,6 c 3.6,0 6.8,0.7 9.6,1.9 2.8,1.2 5.2,3.1 7.1,5.3 1.9,2.2 3.4,5 4.5,8.2 1,3.2 1.6,6.8 1.6,10.8 0,4.1 -0.5,7.7 -1.6,10.9 z"
     clip-path="url(#clipPath4736)"
     sodipodi:nodetypes="csccccccscccssccssscsc"
     transform="translate(-0.96009389,-1.0399061)" /><path
     style="fill:none"
     inkscape:connector-curvature="0"
     id="path4403"
     d="m 608.9,61.9 c 3.7,-3.7 6.5,-8.2 8.5,-13.3 2,-5 3,-10.4 3,-16.3 0,-5.8 -1,-11.2 -3,-16.2 -2,-5 -4.9,-9.3 -8.5,-13 C 607.7,1.9 606.5,1 605.1,0 l -53.4,0 c -1.3,1 -2.6,1.9 -3.7,3 -3.7,3.7 -6.5,7.8 -8.5,12.9 -2,5 -3,10.5 -3,16.3 0,5.8 1,11.3 3,16.3 2,5 4.9,9.6 8.5,13.3 1.4,1.5 3,2.2 4.7,4.2 l 51.6,0 c 1.6,-2 3.2,-2.7 4.6,-4.1 z m -9.2,-18.8 c -1,3.2 -2.5,5.9 -4.5,8.1 -1.9,2.2 -4.3,3.9 -7.1,5.1 -2.8,1.2 -6,1.7 -9.6,1.7 -3.6,0 -6.9,-0.6 -9.7,-1.7 -2.8,-1.2 -5.2,-2.9 -7.2,-5.1 -1.9,-2.2 -3.4,-4.9 -4.5,-8.1 -1,-3.2 -1.6,-6.8 -1.6,-10.9 0,-4 0.5,-7.6 1.6,-10.8 1,-3.2 2.5,-5.9 4.5,-8.1 1.9,-2.2 4.3,-3.9 7.2,-5.1 2.8,-1.2 6.1,-1.8 9.7,-1.8 3.6,0 6.8,0.6 9.6,1.8 2.8,1.2 5.2,2.9 7.1,5.1 1.9,2.2 3.4,4.9 4.5,8.1 1,3.2 1.6,6.8 1.6,10.8 -0.1,4.1 -0.6,7.7 -1.6,10.9 z"
     clip-path="url(#clipPath4732)"
     sodipodi:nodetypes="scsscccscsscccsscsscccscccsssccs"
     transform="translate(-0.96009389,-1.0399061)" /><path
     style="fill:none"
     inkscape:connector-curvature="0"
     id="path4405"
     d="m 235.3,0 -10.1,38.3 c -0.3,1.3 -0.7,2.5 -1,3.9 -0.3,1.5 -0.6,3 -0.9,4.7 -0.3,-1.7 -0.7,-3.2 -1.2,-4.7 -0.4,-1.5 -0.9,-2.6 -1.3,-3.9 L 209,0 l -20.1,0 -12,38.3 c -0.4,1.4 -0.8,2.6 -1.3,4.1 -0.4,1.5 -0.9,3.2 -1.2,4.9 -0.2,-1.7 -0.5,-3.3 -0.8,-4.9 -0.4,-1.6 -0.7,-2.8 -1.1,-4.2 L 162.3,0 l -20.6,0 20.4,66 21.3,0 13.3,-43.3 c 0.3,-0.8 0.5,-1.8 0.8,-2.7 0.3,-0.9 0.5,-1.9 0.8,-2.9 0.3,1 0.5,2 0.8,2.9 0.3,0.9 0.5,1.9 0.8,2.7 l 13.2,43.3 21.3,0 20.4,-66 z"
     clip-path="url(#clipPath4728)"
     sodipodi:nodetypes="ccccccccccccccccccscsccccc"
     transform="translate(-0.96009389,-1.0399061)" /><rect
     style="fill:none"
     y="0"
     id="rect4407"
     height="66"
     width="19"
     x="266"
     clip-path="url(#clipPath4724)"
     transform="translate(-0.96009389,-1.0399061)" /><polygon
     style="fill:none"
     id="polygon4409"
     points="758,7 758,0 693,0 693,7 716,7 716,66 735,66 735,7 "
     clip-path="url(#clipPath4720)"
     transform="translate(-0.96009389,-1.0399061)" /><path
     style="fill:none"
     inkscape:connector-curvature="0"
     id="path4411"
     d="m 647.9,0 -25.6,66 19,0 3.8,-11 30.7,0 3.8,11 19,0 -25.5,-66 z m 1.5,42 7.4,-22.1 c 0.6,-1.4 1.1,-3.2 1.8,-5.1 0.6,-1.9 1.2,-4 1.8,-6.3 0.6,2.2 1.3,4.3 1.9,6.2 0.6,1.9 1.2,3.7 1.7,5.1 l 7.4,22.3 -22,0 z"
     clip-path="url(#clipPath4716)"
     sodipodi:nodetypes="cccccccccccccscccc"
     transform="translate(-0.96009389,-1.0399061)" /><path
     inkscape:connector-curvature="0"
     id="path4413"
     d="m 605.1,0 c 1.3,1 2.6,1.9 3.8,3.1 3.7,3.7 6.5,8 8.5,13 2,5 3,10.4 3,16.2 0,5.8 -1,11.3 -3,16.3 -2,5 -4.9,9.6 -8.5,13.3 -1.4,1.5 -3,2.1 -4.6,4.1 l 18,0 25.6,-66 z"
     clip-path="url(#clipPath4712)"
     sodipodi:nodetypes="cssssccccc"
     transform="translate(-0.96009389,-1.0399061)" /><path
     inkscape:connector-curvature="0"
     id="path4415"
     d="m 120.4,0 c 1.6,1 3.1,2.2 4.5,3.5 3.7,3.6 6.5,7.7 8.5,12.7 2,4.9 3,10.3 3,16.1 0,5.8 -1,11.2 -3,16.2 -2,4.9 -4.9,9.4 -8.5,13 -1.7,1.6 -3.5,2.6 -5.5,4.6 l 42.7,0 L 141.8,0 Z"
     clip-path="url(#clipPath4708)"
     sodipodi:nodetypes="cccscccccc"
     transform="translate(-0.96009389,-1.0399061)" /><polygon
     id="polygon4417"
     points="52,0 52,6 19,6 19,25 45,25 45,39 19,39 19,58 52,58 52,66 63,66 63,0 "
     clip-path="url(#clipPath4704)"
     transform="translate(-0.96009389,-1.0399061)" /><polygon
     id="polygon4419"
     points="758,0 758,7 735,7 735,66 766,66 766,0 "
     clip-path="url(#clipPath4700)"
     transform="translate(-0.96009389,-1.0399061)" /><polygon
     id="polygon4421"
     points="693,7 693,0 673.1,0 698.6,66 716,66 716,7 "
     clip-path="url(#clipPath4696)"
     transform="translate(-0.96009389,-1.0399061)" /><polygon
     id="polygon4423"
     points="645.1,55 641.3,66 679.6,66 675.8,55 "
     clip-path="url(#clipPath4692)"
     transform="translate(-0.96009389,-1.0399061)" /><path
     inkscape:connector-curvature="0"
     id="path4425"
     d="m 446.9,0 c 0.8,0 1.6,1.2 2.3,1.9 l -6.3,8.4 c -0.4,0.5 -0.9,0.9 -1.4,1.4 -0.6,0.4 -1.3,0.6 -2.3,0.6 -0.7,0 -1.3,-0.2 -1.9,-0.5 -0.6,-0.3 -1.2,-0.7 -1.9,-1.1 -0.7,-0.4 -1.4,-0.9 -2.2,-1.4 -0.8,-0.5 -1.7,-1 -2.8,-1.4 -1.1,-0.4 -2.4,-0.8 -3.8,-1.1 -1.5,-0.3 -3.2,-0.4 -5.1,-0.4 -3.4,0 -6.5,0.6 -9.3,1.8 -2.8,1.2 -5.2,2.9 -7.2,5.2 -2,2.2 -3.6,4.9 -4.7,8.1 -1.1,3.2 -1.7,6.8 -1.7,10.7 0,4.1 0.6,7.8 1.7,11 1.1,3.2 2.7,5.9 4.6,8.1 1.9,2.2 4.2,3.9 6.8,5 2.6,1.1 5.4,1.7 8.3,1.7 1.7,0 3.3,-0.1 4.7,-0.2 1.4,-0.2 2.7,-0.5 3.9,-0.9 1.2,-0.4 2.3,-0.9 3.4,-1.6 1.1,-0.6 2.2,-1.5 3.3,-2.4 0.4,-0.4 0.9,-0.7 1.4,-0.9 0.5,-0.2 1.1,-0.4 1.6,-0.4 0.4,0 0.9,0.1 1.3,0.2 0.4,0.2 0.9,0.5 1.3,0.9 l 7.4,8 c -1.4,1.9 -3,3.340023 -4.7,5.340023 L 456.87999,66.280047 457,0 Z"
     clip-path="url(#clipPath4688)"
     sodipodi:nodetypes="ccccssssscsscsssssscsccssccccccc"
     transform="translate(-0.96009389,-1.0399061)" /><path
     inkscape:connector-curvature="0"
     id="path4427"
     d="M 354.1,38.8 C 354,37.3 354,36 354,34.7 L 354,0 319.8,0 354.4,43.5 c -0.1,-1.6 -0.2,-3.3 -0.3,-4.7 z"
     clip-path="url(#clipPath4684)"
     sodipodi:nodetypes="cscccc"
     transform="translate(-0.96009389,-1.0399061)" /><polygon
     id="polygon4429"
     points="254.8,0 234.3,66 266,66 266,0 "
     clip-path="url(#clipPath4680)"
     transform="translate(-0.96009389,-1.0399061)" /><path
     inkscape:connector-curvature="0"
     id="path4431"
     d="m 389.7,62 c -3.4,-3.7 -6,-8.1 -7.8,-13.2 -1.8,-5.1 -2.7,-10.6 -2.7,-16.5 0,-6 1,-11.6 3.1,-16.6 2.1,-5.1 5,-9.2 8.7,-12.9 1.1,-1.1 2.2,-2.8 3.4,-2.8 l -24.4,0 0,66 23.9,0 c -1.5,-2 -2.9,-2.6 -4.2,-4 z"
     clip-path="url(#clipPath4676)"
     sodipodi:nodetypes="csscsccccc"
     transform="translate(-0.96009389,-1.0399061)" /><rect
     y="0"
     id="rect4433"
     height="66"
     width="15"
     x="285"
     clip-path="url(#clipPath4672)"
     transform="translate(-0.96009389,-1.0399061)" /><rect
     id="rect4435"
     height="27"
     width="32"
     y="39"
     x="476"
     clip-path="url(#clipPath4668)"
     transform="translate(-0.96009389,-1.0399061)" /><rect
     y="0"
     id="rect4437"
     height="26"
     width="32"
     x="476"
     clip-path="url(#clipPath4664)"
     transform="translate(-0.96009389,-1.0399061)" /><path
     inkscape:connector-curvature="0"
     id="path4439"
     d="m 316.1,25.5 c 0.1,1.4 -0.1,2.6 -0.1,3.8 L 316,66 351.1,66 316,21.6 c 0,1.4 0,2.6 0.1,3.9 z"
     clip-path="url(#clipPath4660)"
     sodipodi:nodetypes="cscccc"
     transform="translate(-0.96009389,-1.0399061)" /><path
     inkscape:connector-curvature="0"
     id="path4441"
     d="m 222.1,42.2 c 0.4,1.5 0.8,3 1.2,4.7 0.3,-1.6 0.6,-3.2 0.9,-4.7 0.3,-1.5 0.6,-2.6 1,-3.9 L 235.3,0 209,0 220.9,38.3 c 0.4,1.3 0.8,2.4 1.2,3.9 z"
     clip-path="url(#clipPath4656)"
     sodipodi:nodetypes="scsccccs"
     transform="translate(-0.96009389,-1.0399061)" /><path
     inkscape:connector-curvature="0"
     id="path4443"
     d="m 173.6,42.4 c 0.4,1.6 0.6,3.2 0.8,4.9 0.4,-1.7 0.8,-3.4 1.2,-4.9 0.4,-1.5 0.9,-2.8 1.3,-4.1 l 12,-38.3 -26.5,0 10.1,38.3 c 0.3,1.4 0.7,2.6 1.1,4.1 z"
     clip-path="url(#clipPath4652)"
     sodipodi:nodetypes="ccsccccc"
     transform="translate(-0.96009389,-1.0399061)" /><path
     inkscape:connector-curvature="0"
     id="path4445"
     d="m 548,61.8 c -3.7,-3.7 -6.5,-8.3 -8.5,-13.3 -2,-5 -3,-10.5 -3,-16.3 0,-5.8 1,-11.3 3,-16.3 2,-5 4.9,-9.2 8.5,-12.9 1.2,-1.2 2.4,-2 3.7,-3 l -24.7,0 0,66 25.7,0 C 551,64 549.4,63.3 548,61.8 Z"
     clip-path="url(#clipPath4648)"
     sodipodi:nodetypes="cssscccccc"
     transform="translate(-0.96009389,-1.0399061)" /><path
     inkscape:connector-curvature="0"
     id="path4447"
     d="m 199.2,20 c -0.3,-0.9 -0.5,-1.9 -0.8,-2.9 -0.3,1 -0.5,2 -0.8,2.9 -0.3,0.9 -0.5,1.9 -0.8,2.7 L 183.5,66 213.1,66 200,22.7 C 199.7,22 199.5,20.9 199.2,20 Z"
     clip-path="url(#clipPath4644)"
     sodipodi:nodetypes="scsccccs"
     transform="translate(-0.96009389,-1.0399061)" /><g
     id="g4449"
     clip-path="url(#clipPath4640)"
     transform="translate(-0.96009389,-1.0399061)"><path
       style="fill:none"
       inkscape:connector-curvature="0"
       id="path4451"
       d="m 810,0 c 0,1.8 0,3.8 0,6 l 8,0 0,-6 -8,0 z" /><path
       style="fill:none"
       inkscape:connector-curvature="0"
       id="path4453"
       d="m 784,58 0,-19 26,0 0,-7.8 0,-6.2 -26,0 0,-19 26,0 c 0,-2.2 0,-4.2 0,-6 l -44,0 0,66 44,0 c 0,-2.2 0,-4.9 0,-8 l -26,0 z" /><path
       style="fill:none"
       inkscape:connector-curvature="0"
       id="path4455"
       d="m 810,66 8,0 0,-8 -8,0 c 0,3.1 0,5.8 0,8 z" /><path
       inkscape:connector-curvature="0"
       id="path4457"
       d="m 784,58 26,0 c 0,-5.3 0,-11.8 0,-19 l -26,0 0,19 z" /><path
       inkscape:connector-curvature="0"
       id="path4459"
       d="m 784,25 26,0 c 0,-7.1 0,-13.6 0,-19 l -26,0 0,19 z" /></g></svg>