<svg width="468" height="305" viewBox="0 0 468 305" fill="none" xmlns="http://www.w3.org/2000/svg">
<path d="M67.931 24.6812C103.315 -4.65036 142.823 20.4361 187.041 32.8985C239.722 47.7459 264.967 83.6194 281.907 135.202C297.534 182.785 302.95 223.596 271.72 262.93C242.767 299.395 170.712 306.564 123.931 304.181C65.3757 301.198 62.0001 251.698 38.431 206.681C21.7197 174.762 -5.36411 161.265 0.931 122.181C5.97445 90.8684 44.1923 44.3591 67.931 24.6812Z" fill="#CECDED"/>
<path d="M255.226 35.6674C276.775 13.2979 295.953 3.98068 326.862 1.21932C355.571 -1.34553 378.397 -1.67771 398.497 19.0175C419.189 40.3214 402.864 65.8663 413.398 93.6551C427.061 129.701 463.538 137.955 467.268 176.331C471.672 221.647 456.517 265.29 413.398 279.675C376.265 292.062 362.493 251.687 326.862 235.467C292.894 220.003 256.349 231.029 235.741 199.87C215.057 168.596 216.796 141.435 223.706 104.564C229.158 75.4749 234.71 56.964 255.226 35.6674Z" fill="#B8ACE7"/>
<path fill-rule="evenodd" clip-rule="evenodd" d="M290.922 226.001C290.103 225.871 289.286 225.742 288.471 225.614C267.686 222.334 248.608 219.324 235.741 199.87C215.057 168.596 216.796 141.435 223.706 104.564C227.071 86.6109 230.474 72.6874 237.409 59.6514C258.199 78.2109 271.592 103.794 281.907 135.202C292.72 168.126 298.644 197.808 290.922 226.001Z" fill="#AEA4EE"/>
<path d="M178.437 135.517C136.575 140.541 118.641 148.918 68.8582 149.767C61.8935 149.886 53.9373 149.767 51.0214 149.767C41.3079 149.767 57.7271 136.169 62.2572 127.577C77.1024 99.4193 104.11 57.6341 104.11 57.6341C104.11 57.6341 109.899 50.1245 112.256 46.1174C119.054 34.5624 119.138 74.0664 119.138 74.0664C119.138 74.0664 116.218 129.581 119.279 164.936C120.652 180.796 124.335 205.385 124.335 205.385C124.335 205.385 128.709 231.476 129.391 248.361C129.749 257.24 129.391 271.114 129.391 271.114" stroke="#797D9A" stroke-width="16" stroke-linecap="round" stroke-linejoin="round"/>
<path d="M344.525 263.706C347.669 234.226 351.547 175.224 351.547 175.224C351.547 175.224 351.514 149.204 354.075 132.809C356.662 116.248 362.661 107.868 364.749 91.2368C366.813 74.8017 364.749 62.9601 364.749 48.8217C364.749 47.2522 366.566 42.8132 366.153 44.3274C364.036 52.0895 349.019 69.0461 349.019 69.0461L318.12 108.371C318.12 108.371 302.856 125.644 290.031 132.107C285.283 134.499 281.673 135.939 277.391 137.163C267.508 139.987 285.181 137.311 290.172 137.444C333.2 138.594 362.966 144.888 400.142 144.888" stroke="#797D9A" stroke-width="13" stroke-linecap="round" stroke-linejoin="round"/>
<path d="M174.911 88.6592C189.103 67.1099 205.506 52.224 231.178 54.1916C254.062 55.9454 265.748 69.7614 278.855 88.6592C292.425 108.224 295.083 123.864 294.318 147.685C293.636 168.915 292.851 183.878 278.855 199.817C265.312 215.241 251.632 220.57 231.178 221.79C207.64 223.195 189.579 218.337 174.911 199.817C161.998 183.513 164.244 168.503 163.744 147.685C163.18 124.229 162.019 108.236 174.911 88.6592Z" stroke="#797D9A" stroke-width="11"/>
</svg>
