<svg width="468" height="305" viewBox="0 0 468 305" fill="none" xmlns="http://www.w3.org/2000/svg">
<path d="M67.931 24.6812C103.315 -4.65036 142.823 20.4361 187.041 32.8985C239.722 47.7459 264.967 83.6194 281.907 135.202C297.534 182.785 302.95 223.596 271.72 262.93C242.767 299.395 170.712 306.564 123.931 304.181C65.3757 301.198 62.0001 251.698 38.431 206.681C21.7197 174.762 -5.36411 161.265 0.931 122.181C5.97445 90.8684 44.1923 44.3591 67.931 24.6812Z" fill="#9593FF" fill-opacity="0.3"/>
<path d="M255.226 35.6674C276.775 13.2979 295.953 3.98068 326.862 1.21932C355.571 -1.34553 378.397 -1.67771 398.497 19.0175C419.189 40.3214 402.864 65.8663 413.398 93.6551C427.061 129.701 463.538 137.955 467.268 176.331C471.672 221.647 456.517 265.29 413.398 279.675C376.265 292.062 362.493 251.687 326.862 235.467C292.894 220.003 256.349 231.029 235.741 199.87C215.057 168.596 216.796 141.435 223.706 104.564C229.158 75.4749 234.71 56.964 255.226 35.6674Z" fill="#7557EB" fill-opacity="0.4"/>
<path d="M178 135.5C136.137 140.524 118.204 148.901 68.4209 149.75C61.4563 149.869 53.5 149.75 50.5841 149.75C40.8706 149.75 57.2898 136.152 61.8199 127.56C76.6651 99.4021 103.673 57.6169 103.673 57.6169C103.673 57.6169 109.462 50.1073 111.819 46.1002C118.616 34.5452 118.701 74.0492 118.701 74.0492C118.701 74.0492 115.781 129.564 118.841 164.919C120.214 180.778 123.898 205.367 123.898 205.367C123.898 205.367 128.272 231.459 128.954 248.344C129.312 257.222 128.954 271.097 128.954 271.097" stroke="black" stroke-opacity="0.6" stroke-width="8" stroke-linecap="round" stroke-linejoin="round"/>
<path d="M344.087 263.689C347.232 234.209 351.11 175.207 351.11 175.207C351.11 175.207 351.077 149.187 353.638 132.792C356.224 116.231 362.223 107.851 364.312 91.2196C366.375 74.7845 364.312 62.9429 364.312 48.8045C364.312 47.235 366.129 42.796 365.716 44.3102C363.599 52.0723 348.582 69.0289 348.582 69.0289L317.683 108.354C317.683 108.354 302.419 125.627 289.594 132.09C284.846 134.482 281.236 135.922 276.954 137.146C267.071 139.969 284.744 137.293 289.734 137.427C332.763 138.576 362.529 144.87 399.704 144.87" stroke="black" stroke-opacity="0.68" stroke-width="13" stroke-linecap="round" stroke-linejoin="round"/>
<path d="M174.474 88.642C188.665 67.0927 205.069 52.2068 230.741 54.1744C253.625 55.9282 265.311 69.7442 278.418 88.642C291.988 108.206 294.646 123.847 293.881 147.668C293.199 168.898 292.414 183.86 278.418 199.8C264.875 215.224 251.195 220.552 230.741 221.773C207.203 223.178 189.142 218.32 174.474 199.8C161.561 183.496 163.807 168.485 163.307 147.668C162.743 124.212 161.582 108.219 174.474 88.642Z" stroke="black" stroke-opacity="0.6" stroke-width="5"/>
</svg>
