<svg width="64" height="64" viewBox="0 0 64 64" fill="none" xmlns="http://www.w3.org/2000/svg">
<path d="M43.5434 29.3477C36.7528 30.2423 29.9318 30.9178 23.0955 31.3728C22.5741 35.026 22.1315 38.6899 21.768 42.3613C21.7023 43.0256 21.8892 43.9647 22.5718 43.9248C32.3529 43.3525 42.2112 44.049 51.8059 45.9903C52.3611 46.6728 52.9163 47.3553 53.4715 48.0379C53.6489 48.2345 53.8263 48.4311 54.0037 48.6277C53.367 49.0317 52.5441 48.9701 51.7883 48.8975C42.0913 47.9654 32.3318 47.6527 22.593 47.9622C21.9229 47.9835 21.0582 48.1718 20.9824 48.8219C20.5738 52.3224 20.1653 55.823 19.7567 59.3236C19.6249 60.4527 19.2162 61.869 18.0587 61.9927C17.3007 62.0737 16.607 61.4707 16.3449 60.7718C16.0827 60.073 16.1515 59.3026 16.2307 58.5624C16.6059 55.0509 17.1334 51.555 17.8112 48.0869C13.5971 48.2454 9.36144 47.8485 5.25523 46.9104C4.91123 45.5959 4.73288 43.8675 5.94421 43.2018C6.50958 42.8911 7.20235 42.9439 7.8481 43.0056C11.0334 43.3102 14.2187 43.6147 17.4039 43.9193C18.1399 43.9897 18.4788 43.0588 18.5653 42.3421C18.9125 39.4648 19.2597 36.5876 19.6069 33.7104C19.6692 33.1944 19.7277 32.6509 19.5198 32.1727C19.3118 31.6945 18.7368 31.3261 18.2438 31.522C17.047 31.9974 15.5146 31.7687 14.7095 30.7824C13.9044 29.796 14.1557 28.0838 15.3253 27.5478C16.2281 27.134 17.2802 27.4712 18.2735 27.56C19.2668 27.6488 20.5289 27.2303 20.5951 26.2589C20.8366 22.7139 21.2412 19.1795 21.8072 15.6698C16.9594 16.0559 12.1115 16.442 7.26358 16.828C6.89759 16.8572 6.51198 16.8831 6.17993 16.7301C5.59761 16.4618 5.39718 15.7654 5.26078 15.1512C5.08857 14.3758 4.97795 13.4181 5.61682 12.9275C5.96717 12.6585 6.44354 12.6241 6.88871 12.6007C12.0177 12.3311 17.1466 12.0616 22.2756 11.792C22.7251 8.98162 23.1746 6.17124 23.624 3.36087C23.7056 2.85097 23.8509 2.25744 24.3384 2.0576C24.8247 1.85827 25.4001 2.20402 25.627 2.66869C25.854 3.13337 25.8255 3.67306 25.7923 4.1868C25.6311 6.67794 25.4699 9.16908 25.3087 11.6602C34.7511 10.4056 44.2328 9.43341 53.7362 8.74534C54.9766 8.65554 56.2493 8.57373 57.4413 8.92042C58.6332 9.26711 59.7455 10.138 60 11.3261C48.1909 12.7049 36.3818 14.0836 24.5727 15.4624C24.2242 19.0135 23.8757 22.5646 23.5272 26.1157C23.4809 26.5872 23.6181 27.2568 24.1019 27.219C29.9794 26.76 35.8688 26.4453 41.7625 26.2755C42.6501 26.2499 43.6012 26.2443 44.342 26.7222C45.0829 27.2 45.4182 28.3577 44.7577 28.937C44.434 29.221 43.9747 29.2909 43.5434 29.3477Z" fill="black"/>
</svg>
