<?xml version="1.0" encoding="UTF-8"?>
<svg width="24px" height="24px" viewBox="0 0 24 24" version="1.1" xmlns="http://www.w3.org/2000/svg" xmlns:xlink="http://www.w3.org/1999/xlink">
    <title>linkedin-icon</title>
    <g id="linkedin-icon" stroke="none" stroke-width="1" fill="none" fill-rule="evenodd">
        <g id="bx:bxl-linkedin" transform="translate(2.000000, 1.500000)">
            <rect id="ViewBox" x="0" y="0" width="20" height="20"></rect>
            <circle id="Oval" fill="#000000" fill-rule="nonzero" cx="4.1525" cy="4.17416667" r="1.82333333"></circle>
            <path d="M7.6975,7.37916667 L7.6975,17.495 L10.8383333,17.495 L10.8383333,12.4925 C10.8383333,11.1725 11.0866667,9.89416667 12.7233333,9.89416667 C14.3375,9.89416667 14.3575,11.4033333 14.3575,12.5758333 L14.3575,17.4958333 L17.5,17.4958333 L17.5,11.9483333 C17.5,9.22333333 16.9133333,7.12916667 13.7283333,7.12916667 C12.1991667,7.12916667 11.1741667,7.96833333 10.755,8.7625 L10.7125,8.7625 L10.7125,7.37916667 L7.6975,7.37916667 L7.6975,7.37916667 Z M2.57916667,7.37916667 L5.725,7.37916667 L5.725,17.495 L2.57916667,17.495 L2.57916667,7.37916667 Z" id="Shape" fill="#000000" fill-rule="nonzero"></path>
        </g>
    </g>
</svg>