<svg width="640" height="150" viewBox="0 0 640 150" fill="none" xmlns="http://www.w3.org/2000/svg">
<path d="M225.636 38.8973C225.886 38.2539 226.412 37.762 226.941 37.3195C228.508 36.0108 230.667 34.8841 232.513 35.7543C233.747 36.336 234.442 37.6416 235.053 38.862C235.69 40.1369 236.343 41.4718 236.339 42.8974C236.332 45.3302 233.854 47.572 231.494 46.9844C230.01 46.6151 228.935 45.3671 227.964 44.1864C227.694 43.8583 227.424 43.5301 227.154 43.202C226.137 41.9668 225.057 40.3886 225.636 38.8973Z" fill="black"/>
<path d="M564.81 84.2521C565.074 80.9764 567.393 78.0904 570.308 76.5755C573.224 75.0605 576.65 74.7731 579.915 75.1433C583.038 75.4974 586.438 76.7092 587.783 79.55C588.707 81.5022 588.447 83.7837 588.152 85.9235C587.936 87.4848 587.686 89.1146 586.759 90.3891C585.684 91.8661 583.892 92.6095 582.182 93.2497C578.689 94.5567 575.146 95.7263 571.562 96.755C570.812 101.486 573.304 106.358 577.113 109.26C580.922 112.163 585.843 113.299 590.632 113.323C595.421 113.347 600.148 112.342 604.831 111.342C611.304 109.96 617.776 108.577 624.249 107.195C626.517 106.71 628.828 106.21 630.837 105.052C631.841 104.473 632.786 103.725 633.919 103.482C635.667 103.106 637.51 104.081 638.551 105.535C639.593 106.989 639.948 108.831 639.995 110.619C640.034 112.103 639.86 113.654 639.061 114.906C638.263 116.157 636.709 117.016 635.275 116.631C633.825 116.242 632.288 116.523 630.816 116.819C619.426 119.106 608.17 122.166 596.638 123.564C591.23 124.219 585.558 124.471 580.523 122.391C576.026 120.534 572.407 116.929 569.836 112.798C567.265 108.667 565.66 104.012 564.336 99.33C563.961 98.0062 562.29 97.5326 560.923 97.685C559.556 97.8373 558.209 98.3841 556.847 98.1922C554.189 97.8178 552.735 94.9173 552.044 92.323C551.808 91.4366 551.643 90.3836 552.247 89.6935C552.561 89.3352 553.027 89.1521 553.485 89.0217C555.626 88.4121 557.921 88.6896 560.113 88.3007C562.305 87.9118 564.631 86.4718 564.81 84.2521Z" fill="black"/>
<path d="M422.542 101.29C427.586 98.4646 432.124 94.7386 435.878 90.3409C438.764 86.9595 444.692 88.2725 447.454 91.7562C450.216 95.2398 450.689 99.9559 451.055 104.387C455.332 101.492 458.681 97.2474 460.502 92.414C461.401 90.0281 462.178 87.2144 464.489 86.1383C467.818 84.588 471.643 88.3223 471.658 91.9954C471.673 95.6685 469.303 98.8673 467.042 101.762C470.451 101.828 474.116 101.82 476.913 99.8694C479.71 97.9187 480.778 93.2288 478.06 91.1703C475.646 89.3428 473.117 87.0218 473.012 83.9958C472.907 80.9698 477.092 78.269 479.035 80.5906C483.755 86.2293 490.737 90.8407 498.021 89.8373C502.064 89.2804 505.699 87.0649 509.686 86.1927C513.673 85.3204 518.727 86.4416 520.107 90.2833C521.12 93.1021 519.754 96.1655 518.417 98.846C520.466 100.687 522.515 102.529 524.564 104.37C525.718 102.844 526.935 101.264 528.652 100.42C530.369 99.5761 532.738 99.7271 533.861 101.276C534.483 94.2463 535.106 87.2163 535.729 80.1863C527.884 77.456 519.701 75.7025 511.426 74.9791C507.518 74.6374 507.289 68.2052 510.552 66.0272C513.815 63.8491 518.147 64.6751 521.963 65.583C526.061 66.5579 530.16 67.5328 534.258 68.5077C535.05 68.696 535.949 68.8673 536.625 68.4149C537.33 67.9435 537.497 66.9962 537.602 66.1544C539.092 54.2135 540.582 42.2727 542.072 30.3319C542.356 28.0557 543.103 25.2557 545.356 24.8294C548.761 24.1852 549.833 29.2721 549.331 32.7013C547.523 45.0382 545.716 57.375 543.908 69.7119C547.961 69.6165 552.369 69.6314 555.577 72.1104C558.784 74.5893 559.379 80.5261 555.711 82.2518C553.135 81.1846 550.436 80.0967 547.656 80.3194C544.876 80.5422 542.023 82.5277 541.819 85.3096C540.918 97.6075 540.017 109.905 539.115 122.203C539.036 123.291 538.898 124.5 538.068 125.207C536.1 126.887 533.457 123.994 532.738 121.509C531.811 118.3 531.377 114.95 531.455 111.611C531.81 114.327 528.412 116.278 525.75 115.635C523.089 114.992 521.152 112.771 519.352 110.707C517.553 108.642 515.485 106.493 512.778 106.085C508.6 105.456 504.415 109.221 500.429 107.822C494.687 105.807 494.555 94.9707 488.474 95.2114C487.159 101.783 483.669 108.354 477.665 111.331C471.662 114.308 463.047 112.215 460.627 105.965C458.406 108.91 456.185 111.854 453.963 114.798C452.926 116.173 451.786 117.624 450.147 118.157C448.509 118.69 446.301 117.762 446.206 116.041C445.869 109.965 444.226 103.965 441.422 98.5643C439.592 107.287 431.167 112.844 423.189 116.815C393.042 131.817 358.575 138.006 325.094 134.427C320.168 133.901 315.058 133.09 311.005 130.241C302.512 124.271 301.822 111.933 303.717 101.725C307.05 83.7729 315.618 67.2379 325.025 51.5895C334.956 35.0695 346.589 18.5915 363.532 9.40541C372.657 4.45848 383.709 1.89504 393.484 5.38359C403.26 8.87214 410.686 19.7711 407.809 29.745C407.205 31.8401 405.565 34.1588 403.422 33.757C405.823 25.7335 399.757 16.9505 391.872 14.1319C383.986 11.3132 375.121 13.2603 367.547 16.8329C348.905 25.6266 336.089 43.2283 325.56 60.9512C317.747 74.1037 310.617 88.0574 308.408 103.196C307.938 106.412 307.705 109.757 308.677 112.859C311.571 122.098 323.106 124.967 332.768 125.553C358.744 127.129 385.047 123.052 409.328 113.689C411.199 112.967 413.314 111.921 413.699 109.953C419.276 81.43 426.552 53.2393 435.473 25.5798C436.534 22.2904 439.234 18.2132 442.389 19.6224C443.786 24.5824 442.024 29.8184 440.354 34.6934C432.904 56.4504 426.948 78.719 422.542 101.29ZM533.05 108.459C533.08 108.259 533.11 108.059 533.14 107.86C532.959 107.75 532.738 107.708 532.528 107.743C532.416 107.916 532.374 108.133 532.413 108.335C532.584 108.449 532.802 108.489 533.002 108.444L533.05 108.459ZM532.028 110.34C531.839 110.412 531.801 110.716 531.967 110.833C532.133 110.949 532.406 110.81 532.41 110.607C532.305 110.501 532.201 110.395 532.096 110.289L532.028 110.34Z" fill="black"/>
<path d="M198.984 98.9601C194.781 101.118 191.393 104.567 187.446 107.164C183.498 109.761 178.44 111.495 174.07 109.696C169.701 107.897 167.517 101.299 171.134 98.2575C165.272 103.687 159.41 109.116 153.548 114.545C150.659 117.221 145.539 114.261 144.768 110.399C143.997 106.536 145.987 102.715 147.909 99.2779C141.086 104.554 133.393 108.702 125.235 111.503C121.894 112.651 118.223 113.571 114.877 112.438C111.53 111.305 108.954 107.325 110.518 104.157C90.8663 107.234 71.2146 110.312 51.5628 113.389C49.9077 113.648 47.8748 114.268 47.6396 115.927C46.2818 125.501 44.924 135.076 43.5662 144.651C43.2777 146.685 42.7169 149.079 40.799 149.815C38.8961 150.544 36.7322 149.011 36.026 147.099C35.3197 145.187 35.6634 143.067 36.0159 141.059C37.5359 132.4 39.0559 123.742 40.5758 115.083C33.8678 116.443 27.1598 117.803 20.4517 119.164C17.2104 119.821 13.0853 120.123 11.3635 117.299C9.97597 115.023 11.217 111.884 13.355 110.293C15.493 108.701 18.2488 108.263 20.8851 107.873C27.5578 106.885 34.2305 105.897 40.9032 104.909C42.2381 104.712 42.7424 103.083 42.9623 101.751C44.6801 91.3463 46.3979 80.9414 48.1157 70.5364C44.9599 69.7395 41.809 71.5061 38.77 72.672C35.7311 73.8379 31.6386 74.117 29.8491 71.3978C27.9699 68.5423 30.3114 64.552 33.3987 63.0852C36.486 61.6183 40.0605 61.716 43.3899 60.9431C46.7193 60.1701 50.2316 57.9151 50.4505 54.5036C51.0216 45.6019 51.5927 36.7002 52.1639 27.7986C36.892 29.7449 21.6202 31.6912 6.34838 33.6376C4.7594 33.8401 3.02619 34.0137 1.66473 33.1696C-0.808641 31.6361 -0.335674 27.5883 1.83453 25.6493C4.00474 23.7102 7.10032 23.3039 9.9928 22.9846C22.9681 21.5522 35.9435 20.1198 48.9188 18.6874C52.5501 18.2865 53.5866 13.5027 53.3639 9.85544C53.1412 6.2082 53.0787 1.62914 56.3489 0C59.3152 5.44861 60.321 11.9389 59.1431 18.03C85.7901 13.7612 112.658 10.8717 139.603 9.37669C142.822 9.19813 146.419 9.1677 148.794 11.3481C151.168 13.5284 150.429 18.6377 147.207 18.7314C118.498 19.5658 89.8473 22.4164 61.5362 27.2551C60.6784 27.4017 59.7654 27.5774 59.1406 28.1832C58.3609 28.9392 58.2547 30.1332 58.1959 31.2177C57.7143 40.1154 57.2326 49.0132 56.7509 57.9109C70.6388 55.3371 84.5268 52.7632 98.4148 50.1894C102.023 49.5208 106.093 48.9468 109.067 51.0958C112.042 53.2447 111.725 59.1974 108.07 59.526C91.5255 61.0135 75.1028 63.8585 59.0214 68.0229C57.7576 68.3502 56.4215 68.7295 55.5464 69.6984C54.6319 70.711 54.412 72.1533 54.232 73.5059C52.8817 83.653 51.5315 93.8001 50.1813 103.947C64.3624 101.733 78.5436 99.5198 92.7248 97.3062C99.0383 96.3206 105.443 95.3326 111.792 96.0531C114.828 90.3494 117.959 84.5214 122.761 80.1993C127.564 75.8773 134.455 73.2924 140.6 75.2878C146.744 77.2832 150.963 84.9286 147.936 90.6369C156.381 73.0575 164.826 55.4781 173.271 37.8986C175.195 33.8931 179.567 29.1725 183.13 31.8276C185.774 33.7986 184.818 37.9136 183.599 40.979C178.689 53.3288 173.742 65.7547 166.713 77.0331C161.889 84.7731 155.914 92.4687 155.353 101.572C161.168 95.1282 166.984 88.6842 172.8 82.2403C174.136 80.7595 176.047 79.135 177.879 79.9227C179.43 80.5892 179.832 82.5708 179.952 84.2547C180.315 89.3325 180.029 94.4563 179.103 99.4621C187.876 96.17 195.734 90.4756 201.595 83.1635C203.969 80.2024 208.949 83.7637 209.309 87.5418C209.668 91.3199 207.852 95.1047 208.481 98.8475C214.574 94.4663 220.667 90.0852 226.76 85.7041C227.525 85.1542 228.335 84.5861 229.271 84.4813C232.355 84.136 233.51 88.3575 233.679 91.4565C233.848 94.5554 235.739 98.7192 238.659 97.6697C253.425 92.3628 270.608 87.2437 284.045 95.3483C286.358 96.7437 288.633 98.8248 288.775 101.523C288.916 104.221 285.525 106.803 283.447 105.077C278.594 101.047 272.087 99.0746 265.814 99.7335C258.43 100.509 251.84 104.669 244.619 106.394C237.398 108.118 228.061 106.135 225.749 99.079C221.388 102.087 217.026 105.095 212.665 108.103C209.645 110.186 205.856 112.352 202.533 110.798C198.529 108.925 198.45 103.349 198.984 98.9601ZM136.381 93.1362C134.639 92.5483 133.458 90.6236 133.724 88.8043C133.989 86.985 135.67 85.4776 137.507 85.4116C137.465 84.8948 136.737 84.8228 136.228 84.9213C127.709 86.5697 120.338 93.1779 117.771 101.468C117.651 101.856 117.572 102.354 117.894 102.602C118.034 102.71 118.219 102.738 118.395 102.758C121.954 103.169 125.49 101.967 128.809 100.615C133.912 98.5351 138.853 96.0544 143.569 93.2034C141.254 92.507 138.672 93.9096 136.381 93.1362Z" fill="black"/>
</svg>
