<svg width="640" height="150" fill="none" xmlns="http://www.w3.org/2000/svg"><path d="M225.636 38.897c.25-.643.776-1.135 1.305-1.578 1.567-1.308 3.726-2.435 5.572-1.565 1.234.582 1.929 1.888 2.54 3.108.637 1.275 1.29 2.61 1.286 4.035-.007 2.433-2.485 4.675-4.845 4.087-1.484-.369-2.559-1.617-3.53-2.798l-.81-.984c-1.017-1.235-2.097-2.813-1.518-4.305zM564.81 84.252c.264-3.276 2.583-6.162 5.498-7.676 2.916-1.515 6.342-1.803 9.607-1.433 3.123.354 6.523 1.566 7.868 4.407.924 1.952.664 4.234.369 6.374-.216 1.56-.466 3.19-1.393 4.465-1.075 1.477-2.867 2.22-4.577 2.86a142.441 142.441 0 0 1-10.62 3.506c-.75 4.731 1.742 9.603 5.551 12.505 3.809 2.903 8.73 4.039 13.519 4.063 4.789.024 9.516-.981 14.199-1.981l19.418-4.147c2.268-.485 4.579-.985 6.588-2.143 1.004-.579 1.949-1.327 3.082-1.57 1.748-.376 3.591.599 4.632 2.053 1.042 1.454 1.397 3.296 1.444 5.084.039 1.484-.135 3.035-.934 4.287-.798 1.251-2.352 2.11-3.786 1.725-1.45-.389-2.987-.108-4.459.188-11.39 2.287-22.646 5.347-34.178 6.745-5.408.655-11.08.907-16.115-1.173-4.497-1.857-8.116-5.462-10.687-9.593-2.571-4.131-4.176-8.786-5.5-13.468-.375-1.324-2.046-1.797-3.413-1.645-1.367.152-2.714.7-4.076.507-2.658-.374-4.112-3.275-4.803-5.869-.236-.886-.401-1.94.203-2.63.314-.358.78-.54 1.238-.671 2.141-.61 4.436-.332 6.628-.721 2.192-.39 4.518-1.83 4.697-4.049z" fill="#000"/><path d="M422.542 101.29a49.18 49.18 0 0 0 13.336-10.95c2.886-3.38 8.814-2.068 11.576 1.416 2.762 3.484 3.235 8.2 3.601 12.631a25.367 25.367 0 0 0 9.447-11.973c.899-2.386 1.676-5.2 3.987-6.276 3.329-1.55 7.154 2.184 7.169 5.857.015 3.673-2.355 6.872-4.616 9.767 3.409.066 7.074.058 9.871-1.893 2.797-1.95 3.865-6.64 1.147-8.699-2.414-1.827-4.943-4.148-5.048-7.174-.105-3.026 4.08-5.727 6.023-3.405 4.72 5.638 11.702 10.25 18.986 9.246 4.043-.557 7.678-2.772 11.665-3.644 3.987-.873 9.041.249 10.421 4.09 1.013 2.82-.353 5.882-1.69 8.563l6.147 5.524c1.154-1.526 2.371-3.106 4.088-3.95 1.717-.844 4.086-.693 5.209.856l1.868-21.09a100.712 100.712 0 0 0-24.303-5.207c-3.908-.342-4.137-6.774-.874-8.952 3.263-2.178 7.595-1.352 11.411-.444l12.295 2.925c.792.188 1.691.36 2.367-.093.705-.472.872-1.419.977-2.26l4.47-35.823c.284-2.276 1.031-5.076 3.284-5.503 3.405-.644 4.477 4.443 3.975 7.872l-5.423 37.01c4.053-.094 8.461-.08 11.669 2.4 3.207 2.478 3.802 8.415.134 10.14-2.576-1.066-5.275-2.154-8.055-1.932-2.78.223-5.633 2.209-5.837 4.99l-2.704 36.894c-.079 1.088-.217 2.297-1.047 3.004-1.968 1.68-4.611-1.213-5.33-3.698a32.957 32.957 0 0 1-1.283-9.898c.355 2.716-3.043 4.667-5.705 4.024-2.661-.643-4.598-2.864-6.398-4.928-1.799-2.065-3.867-4.214-6.574-4.622-4.178-.629-8.363 3.136-12.349 1.737-5.742-2.015-5.874-12.851-11.955-12.61-1.315 6.571-4.805 13.142-10.809 16.119-6.003 2.977-14.618.884-17.038-5.366l-6.664 8.833c-1.037 1.375-2.177 2.826-3.816 3.359-1.638.533-3.846-.395-3.941-2.116a43.267 43.267 0 0 0-4.784-17.477c-1.83 8.723-10.255 14.28-18.233 18.251-30.147 15.002-64.614 21.191-98.095 17.612-4.926-.526-10.036-1.337-14.089-4.186-8.493-5.97-9.183-18.308-7.288-28.516 3.333-17.952 11.901-34.487 21.308-50.135 9.931-16.52 21.564-32.999 38.507-42.185 9.125-4.947 20.177-7.51 29.952-4.021 9.776 3.488 17.202 14.387 14.325 24.361-.604 2.095-2.244 4.414-4.387 4.012 2.401-8.023-3.665-16.806-11.55-19.625-7.886-2.819-16.751-.872-24.325 2.7-18.642 8.795-31.458 26.396-41.987 44.12-7.813 13.152-14.943 27.105-17.152 42.244-.47 3.216-.703 6.561.269 9.663 2.894 9.239 14.429 12.108 24.091 12.694 25.976 1.576 52.279-2.501 76.56-11.864 1.871-.722 3.986-1.768 4.371-3.736a733.482 733.482 0 0 1 21.774-84.373c1.061-3.29 3.761-7.367 6.916-5.958 1.397 4.96-.365 10.196-2.035 15.071a503.335 503.335 0 0 0-17.812 66.597zm110.508 7.169.09-.599a.903.903 0 0 0-.612-.117.817.817 0 0 0-.115.592.77.77 0 0 0 .589.109l.048.015zm-1.022 1.881c-.189.072-.227.376-.061.493.166.116.439-.023.443-.226l-.314-.318-.068.051zM198.984 98.96c-4.203 2.158-7.591 5.607-11.538 8.204-3.948 2.597-9.006 4.331-13.376 2.532-4.369-1.799-6.553-8.397-2.936-11.439l-17.586 16.288c-2.889 2.676-8.009-.284-8.78-4.146-.771-3.863 1.219-7.684 3.141-11.121a79.18 79.18 0 0 1-22.674 12.225c-3.341 1.148-7.012 2.068-10.358.935-3.347-1.133-5.923-5.113-4.359-8.281l-58.955 9.232c-1.655.259-3.688.879-3.923 2.538l-4.074 28.724c-.288 2.034-.85 4.428-2.767 5.164-1.903.729-4.067-.804-4.773-2.716-.706-1.912-.363-4.032-.01-6.04l4.56-25.976-20.124 4.081c-3.242.657-7.367.959-9.089-1.865-1.387-2.276-.146-5.415 1.992-7.006 2.138-1.592 4.894-2.03 7.53-2.42l20.018-2.964c1.335-.197 1.84-1.826 2.06-3.158l5.153-31.215c-3.156-.796-6.307.97-9.346 2.136-3.039 1.166-7.131 1.445-8.92-1.274-1.88-2.856.461-6.846 3.549-8.313 3.087-1.467 6.661-1.369 9.99-2.142 3.33-.773 6.843-3.028 7.061-6.44L52.164 27.8 6.348 33.638c-1.589.202-3.322.376-4.683-.468-2.474-1.534-2-5.582.17-7.52 2.17-1.94 5.265-2.346 8.158-2.665l38.926-4.298c3.631-.4 4.668-5.184 4.445-8.832C53.14 6.208 53.079 1.63 56.349 0c2.966 5.449 3.972 11.939 2.794 18.03a782.991 782.991 0 0 1 80.46-8.653c3.219-.179 6.816-.21 9.191 1.971 2.374 2.18 1.635 7.29-1.587 7.383a614.746 614.746 0 0 0-85.67 8.524c-.859.147-1.772.322-2.396.928-.78.756-.886 1.95-.945 3.035L56.75 57.91l41.664-7.722c3.608-.668 7.678-1.242 10.652.907 2.975 2.149 2.658 8.101-.997 8.43a304.554 304.554 0 0 0-49.049 8.497c-1.263.327-2.6.707-3.475 1.675-.914 1.013-1.134 2.455-1.314 3.808l-4.05 30.441 42.543-6.64c6.313-.986 12.718-1.974 19.067-1.254 3.036-5.704 6.167-11.532 10.969-15.854 4.803-4.322 11.694-6.907 17.839-4.911 6.144 1.995 10.363 9.64 7.336 15.349l25.335-52.738c1.924-4.006 6.296-8.727 9.859-6.071 2.644 1.97 1.688 6.086.469 9.151-4.91 12.35-9.857 24.776-16.886 36.054-4.824 7.74-10.799 15.436-11.36 24.539L172.8 82.24c1.336-1.48 3.247-3.105 5.079-2.317 1.551.666 1.953 2.648 2.073 4.332a60.14 60.14 0 0 1-.849 15.207 52.74 52.74 0 0 0 22.492-16.299c2.374-2.96 7.354.6 7.714 4.379.359 3.778-1.457 7.563-.828 11.305l18.279-13.143c.765-.55 1.575-1.118 2.511-1.223 3.084-.345 4.239 3.877 4.408 6.976.169 3.098 2.06 7.262 4.98 6.213 14.766-5.307 31.949-10.426 45.386-2.322 2.313 1.396 4.588 3.477 4.73 6.175.141 2.698-3.25 5.28-5.328 3.554-4.853-4.03-11.36-6.002-17.633-5.343-7.384.775-13.974 4.935-21.195 6.66-7.221 1.724-16.558-.259-18.87-7.315l-13.084 9.024c-3.02 2.083-6.809 4.249-10.132 2.695-4.004-1.873-4.083-7.449-3.549-11.838zm-62.603-5.824c-1.742-.588-2.923-2.512-2.657-4.332.265-1.819 1.946-3.326 3.783-3.392-.042-.517-.77-.59-1.279-.49-8.519 1.648-15.89 8.256-18.457 16.546-.12.388-.199.886.123 1.134.14.108.325.136.501.156 3.559.411 7.095-.791 10.414-2.143a105.555 105.555 0 0 0 14.76-7.412c-2.315-.696-4.897.707-7.188-.067z" fill="#000"/></svg>