<svg width="7371" height="743" viewBox="0 0 7371 743" fill="none" xmlns="http://www.w3.org/2000/svg">
<path d="M5199.64 604.357C5051.54 463.742 5237.66 48.4259 5423.99 132.008C5525.24 177.421 5550.09 263.199 5578.48 370.461C5601.86 458.761 5626.47 526.635 5578.48 604.357C5500.76 730.24 5306.92 706.226 5199.64 604.357Z" stroke="#53566F" stroke-width="58"/>
<path d="M4699.97 80.3411C4745.38 21.5362 4821.87 10.885 4887.19 46.3121C4969.99 91.2205 4993.34 220.008 4924.71 284.516C4860.18 345.171 4750.17 326.927 4699.97 253.971C4661.53 198.104 4658.52 134.015 4699.97 80.3411Z" fill="#8E98EF"/>
<path d="M7 501C887.46 501 1767.34 510 2647.68 510C3255.33 510 3859.97 476.164 4467.16 474C4814.02 472.764 5160.12 474.135 5506.86 467C5936.47 458.159 6360.19 425.569 6788.59 411.5C6982.97 405.116 7169.2 384 7364 384" stroke="url(#paint0_linear)" stroke-width="14" stroke-linecap="round" stroke-linejoin="round"/>
<path d="M3606.07 521.085C3559.58 384.818 3566.06 256.296 3702 167.521C3884.31 48.4661 4071.84 220.107 4272.16 318.391C4386.13 374.306 4466.04 400.455 4538.7 490.871C4737.43 738.158 3703.08 805.431 3606.07 521.085Z" stroke="#53566F" stroke-width="54"/>
<defs>
<linearGradient id="paint0_linear" x1="6.99998" y1="509.998" x2="7363.64" y2="417.881" gradientUnits="userSpaceOnUse">
<stop stop-color="#53566F" stop-opacity="0"/>
<stop offset="0.276042" stop-color="#53566F"/>
<stop offset="0.697917" stop-color="#53566F"/>
<stop offset="1" stop-opacity="0"/>
<stop offset="1" stop-color="#53566F" stop-opacity="0"/>
</linearGradient>
</defs>
</svg>
