<svg width="6098" height="743" viewBox="0 0 6098 743" fill="none" xmlns="http://www.w3.org/2000/svg">
<path d="M4067.97 80.3411C4113.38 21.5362 4189.87 10.885 4255.19 46.3121C4337.99 91.2205 4361.34 220.008 4292.71 284.516C4228.18 345.171 4118.17 326.927 4067.97 253.971C4029.53 198.104 4026.52 134.015 4067.97 80.3411Z" stroke="black" stroke-width="51"/>
<path d="M7 501C735.112 501 1462.74 510 2190.76 510C2693.26 510 3193.28 476.164 3695.41 474C3982.25 472.764 4268.46 474.135 4555.2 467C4910.48 458.159 5260.89 425.569 5615.15 411.5C5775.9 405.116 5929.9 384 6091 384" stroke="url(#paint0_linear)" stroke-width="14" stroke-linecap="round" stroke-linejoin="round"/>
<path d="M2894.07 521.085C2847.58 384.818 2854.06 256.296 2990 167.521C3172.31 48.4661 3359.84 220.107 3560.16 318.391C3674.13 374.306 3754.04 400.455 3826.7 490.871C4025.43 738.158 2991.08 805.431 2894.07 521.085Z" fill="white" stroke="black" stroke-width="51"/>
<path d="M4524.78 641.252C4348.67 474.195 4570 -19.2216 4791.57 80.0779C4911.96 134.031 4941.52 235.939 4975.28 363.371C5003.08 468.277 5032.35 548.914 4975.28 641.252C4882.86 790.807 4652.36 762.277 4524.78 641.252Z" fill="#001AFF" fill-opacity="0.38"/>
<defs>
<linearGradient id="paint0_linear" x1="6.99998" y1="509.998" x2="6091" y2="446.998" gradientUnits="userSpaceOnUse">
<stop stop-opacity="0"/>
<stop offset="0.276042"/>
<stop offset="0.697917"/>
<stop offset="1" stop-opacity="0"/>
<stop offset="1" stop-opacity="0"/>
</linearGradient>
</defs>
</svg>
