<svg width="4402" height="575" viewBox="0 0 4402 575" fill="none" xmlns="http://www.w3.org/2000/svg">
<g clip-path="url(#clip0)">
<path d="M80.0844 56.2161C109.688 35.2031 630.553 32.148 671.462 97.8325C706.146 153.522 696.879 482.552 651.627 513.643C593.866 553.329 94.9164 501.116 50.6673 454.295C6.41826 407.473 19.5963 99.1512 80.0844 56.2161Z" fill="#B5B9EB"/>
<path d="M130.672 150.14C144.139 180.63 169.418 210.565 199.262 246.01C238.662 292.805 312.885 355.848 312.885 355.848C322.296 365.191 370.372 306.965 405.031 273.311C440.576 238.796 456.952 215.939 492.327 181.25C503.331 170.459 520.816 153.938 520.816 153.938C520.816 153.938 528.311 234.915 529.739 286.961C530.569 317.199 524.369 340.846 530.086 364.419C533.892 380.116 633.004 364.419 646.827 364.419C646.827 364.419 646.827 258.2 646.827 190.139C646.827 139.512 646.827 60.5 646.827 60.5L293.486 75.8565C293.486 75.8565 44.7616 79.7246 44.7616 94.2686C44.7616 108.813 28.4801 286.961 28.4801 286.961C28.4801 286.961 2.64981 443.603 28.4802 467.273C71.2626 506.479 169.467 470.027 216.582 458.702C286.3 441.944 370.449 452.988 442.097 452.988C568.774 452.988 622.71 481.87 737.326 468.861C810.118 460.598 846.853 434.931 919.835 428.227C972.588 423.381 1003.17 420.97 1055.59 428.227C1111.66 435.988 1137.16 467.918 1193.85 468.861C1286.6 470.403 1302.43 362.827 1405.36 369.76C1509.02 376.741 1552.65 457.055 1656.37 450.864C1744.11 445.628 1776.39 381.434 1863.38 369.76C2007.89 350.366 2169.56 460.531 2221.4 468.861C2353.05 490.012 2436.63 396.423 2569.41 383.149C2710.97 368.998 2754.38 474.56 2897.43 468.861C3023.74 463.828 3028.94 359.369 3152.44 383.149C3268.89 405.572 3307.44 500.192 3425.95 514.557C3504.02 524.02 3563.41 378.717 3655.47 383.149C3748.3 387.618 3824.28 502.941 3909.48 468.861C3995.57 434.419 3973.35 331.57 4058.98 296.167C4180.2 246.054 4339.57 383.149 4386 383.149" stroke="url(#paint0_linear)" stroke-width="33" stroke-linecap="round" stroke-linejoin="round"/>
</g>
<defs>
<linearGradient id="paint0_linear" x1="17" y1="515" x2="4386" y2="515" gradientUnits="userSpaceOnUse">
<stop stop-color="#797D9A"/>
<stop offset="0.291667" stop-color="#797D9A"/>
<stop offset="1" stop-color="#797D9A" stop-opacity="0"/>
</linearGradient>
<clipPath id="clip0">
<rect width="4402" height="575" fill="white"/>
</clipPath>
</defs>
</svg>
