<svg width="5635" height="737" viewBox="0 0 5635 737" fill="none" xmlns="http://www.w3.org/2000/svg">
<path d="M3306.91 603.669C3341.31 616.869 3538.25 648.836 3632.41 663.169L3556.41 137.669C3462.41 96.0025 3266.81 19.1691 3236.41 45.1691C3198.41 77.6691 3263.91 587.169 3306.91 603.669Z" fill="#617EE6" fill-opacity="0.6"/>
<path d="M3878.91 47.669C3835.71 64.869 3676.58 163.502 3602.41 210.669L3678.41 736.169C3766.91 703.669 3949.31 627.769 3970.91 584.169C3997.91 529.669 3932.91 26.169 3878.91 47.669Z" fill="#617EE7" fill-opacity="0.4"/>
<path d="M3848.91 16.669C3805.71 33.869 3646.58 132.502 3572.41 179.669C3478.41 138.002 3282.81 61.1689 3252.41 87.1689C3214.41 119.669 3279.91 629.169 3322.91 645.669C3357.31 658.869 3554.25 690.836 3648.41 705.169C3736.91 672.669 3919.31 596.769 3940.91 553.169C3967.91 498.669 3902.91 -4.83103 3848.91 16.669Z" stroke="black" stroke-width="31"/>
<path d="M4130.52 200.954C4164.86 166.261 4249.35 177.652 4275.95 200.954C4302.54 224.257 4297.36 350.74 4275.95 367.383C4249.19 388.186 4130.52 367.383 4106.93 346.579C4083.34 325.776 4106.06 225.666 4130.52 200.954Z" stroke="black" stroke-width="42"/>
<path d="M2654.15 464.699C2707.15 435.199 3054 473.914 3083.65 494.199C3121.65 520.199 2988.75 674.499 2949.15 695.699C2899.65 722.199 2472.65 687.199 2449.15 669.199C2425.65 651.199 2601.15 494.199 2654.15 464.699Z" stroke="black" stroke-width="31"/>
<path d="M5628 496C5091.57 556.495 4553.17 571.905 4011.22 571.905C2984.16 571.905 1957.11 578.806 930.118 578.806C768.24 578.806 599.69 586.772 440.074 561.555C414.036 557.441 387.759 552.348 361.477 550.82C243.671 543.971 125.181 530.502 7 530.502" stroke="url(#paint0_linear)" stroke-width="13" stroke-linecap="round" stroke-linejoin="round"/>
<defs>
<linearGradient id="paint0_linear" x1="5628" y1="579.998" x2="6.99994" y2="579.994" gradientUnits="userSpaceOnUse">
<stop stop-opacity="0"/>
<stop offset="0.119792"/>
<stop offset="0.78125"/>
<stop offset="1" stop-opacity="0"/>
</linearGradient>
</defs>
</svg>
